<?xml version="1.0" encoding="UTF-8"?>
<svg id="_图层_2" data-name="图层 2" xmlns="http://www.w3.org/2000/svg" viewBox="0 0 53.96 12.92">
  <defs>
    <style>
      .cls-1 {
        fill: #036eb8;
      }

      .cls-2 {
        fill: #fff;
      }
    </style>
  </defs>
  <g id="Layer_1" data-name="Layer 1">
    <g>
      <path class="cls-1" d="M47.5,12.92H6.46c-3.57,0-6.46-2.89-6.46-6.46h0C0,2.89,2.89,0,6.46,0h41.03c3.57,0,6.46,2.89,6.46,6.46h0c0,3.57-2.89,6.46-6.46,6.46Z"/>
      <g>
        <path class="cls-2" d="M17.75,4.4c.62.64,1.58,1.23,2.47,1.5-.11.09-.27.3-.35.43-.98-.36-2.03-1.09-2.69-1.9v1.45h-.52v-1.45c-.64.83-1.7,1.57-2.66,1.95-.08-.12-.24-.32-.35-.42.87-.3,1.82-.9,2.43-1.57h-2.28v-.47h2.86v-.9h.52v.9h2.9v.47h-2.34ZM13.93,8.83h6.06v.48h-6.06v-.48ZM18.9,6.09v2.31h-3.93v-2.31h3.93ZM18.36,6.47h-2.87v.59h2.87v-.59ZM18.36,7.43h-2.87v.59h2.87v-.59Z"/>
        <path class="cls-2" d="M23.23,5.68c-.09.16-.19.33-.29.49h3.55v3.38h-.52v-.28h-3.09v.28h-.51v-2.64c-.36.4-.78.75-1.27,1.05-.07-.12-.23-.31-.33-.41.8-.46,1.41-1.13,1.85-1.87h-1.68v-.44h1.93c.09-.17.17-.35.24-.52h-1.65v-.43h1.8c.06-.16.11-.33.15-.5-.66.04-1.33.05-1.95.05,0-.12-.06-.29-.11-.41,1.72-.01,3.88-.13,5-.36l.33.38c-.71.15-1.68.24-2.7.3-.05.18-.11.35-.16.53h2.94v.43h-3.09c-.07.17-.15.35-.24.52h3.73v.44h-3.96ZM25.97,6.59h-3.09v.49h3.09v-.49ZM25.97,7.45h-3.09v.5h3.09v-.5ZM25.97,8.84v-.53h-3.09v.53h3.09Z"/>
        <path class="cls-2" d="M30.17,3.21c-.19.51-.45,1.03-.73,1.52v4.78h-.53v-3.96c-.22.31-.46.6-.71.85-.05-.12-.21-.41-.31-.53.71-.68,1.36-1.75,1.76-2.83l.51.16ZM32.25,4.72v1.02h2.03v.49h-2.03v1.08h2.13v.5h-2.13v1.72h-.53v-4.81h-.49c-.31.57-.66,1.08-1.01,1.48-.08-.09-.29-.27-.41-.36.64-.66,1.22-1.69,1.57-2.73l.51.13c-.11.33-.25.65-.39.96h2.96v.51h-2.2Z"/>
        <path class="cls-2" d="M41.42,8.64v.52h-6.23v-.52h1.98V3.12h.53v5.52h1.2V3.12h.53v5.51h1.99ZM36.31,7.3c-.17-.63-.6-1.7-.97-2.5l.49-.15c.38.79.81,1.83,1,2.45l-.53.2ZM41.28,4.9c-.34.81-.82,1.8-1.23,2.45l-.43-.24c.39-.64.9-1.67,1.18-2.45l.48.24Z"/>
      </g>
    </g>
  </g>
</svg>