<?xml version="1.0" encoding="UTF-8"?>
<svg id="_图层_2" data-name="图层 2" xmlns="http://www.w3.org/2000/svg" viewBox="0 0 21.15 21">
  <defs>
    <style>
      .cls-1 {
        fill: #7acad4;
      }

      .cls-2 {
        fill: #fbf8f4;
      }

      .cls-3 {
        fill: #3b5daa;
      }

      .cls-4 {
        fill: #6ec6e6;
      }

      .cls-5 {
        fill: #ef8647;
      }

      .cls-6 {
        fill: #e62f25;
      }

      .cls-7 {
        fill: #2d140c;
      }

      .cls-8 {
        fill: #f0c33f;
      }

      .cls-9 {
        fill: #ea6261;
      }

      .cls-10 {
        fill: #25180d;
      }

      .cls-11 {
        fill: #3259a6;
      }

      .cls-12 {
        fill: #646464;
      }

      .cls-13 {
        fill: #fcfbf7;
      }

      .cls-14 {
        fill: #f4f9f7;
      }

      .cls-15 {
        fill: #fbf8f6;
      }

      .cls-16 {
        fill: #4fa74b;
      }

      .cls-17 {
        fill: #e73d2f;
      }

      .cls-18 {
        fill: #efea40;
      }

      .cls-19 {
        fill: #77c9e6;
      }

      .cls-20 {
        fill: #c6c9d7;
      }

      .cls-21 {
        fill: #071319;
      }

      .cls-22 {
        fill: #09122b;
      }

      .cls-23 {
        fill: #e3884f;
      }

      .cls-24 {
        fill: #fcfbf5;
      }

      .cls-25 {
        fill: #f09919;
      }

      .cls-26 {
        fill: #f4a462;
      }

      .cls-27 {
        fill: #231815;
      }

      .cls-28 {
        fill: #312111;
      }

      .cls-29 {
        fill: #f6f8f9;
      }

      .cls-30 {
        fill: #e84520;
      }

      .cls-31 {
        fill: #f6d758;
      }

      .cls-32 {
        fill: #e97f42;
      }

      .cls-33 {
        fill: #342514;
      }

      .cls-34 {
        fill: #3e59a7;
      }

      .cls-35 {
        fill: #07101b;
      }

      .cls-36 {
        fill: #f6e7f1;
      }

      .cls-37 {
        fill: #666565;
      }

      .cls-38 {
        fill: #cb2d7a;
      }

      .cls-39 {
        fill: #ebe9f4;
      }

      .cls-40 {
        fill: #050102;
      }

      .cls-41 {
        fill: #edbf3f;
      }

      .cls-42 {
        fill: #349cd8;
      }

      .cls-43 {
        fill: #1a160d;
      }

      .cls-44 {
        fill: #e3dace;
      }

      .cls-45 {
        fill: #f9ece9;
      }

      .cls-46 {
        fill: #1e110e;
      }

      .cls-47 {
        fill: #f4f9f9;
      }

      .cls-48 {
        fill: #fbfadb;
      }

      .cls-49 {
        fill: #e14e22;
      }
    </style>
  </defs>
  <g id="Layer_1" data-name="Layer 1">
    <g>
      <g>
        <path class="cls-40" d="M9.1,3.26c-.18-.03-.42.07-.52-.17-.1-.22.07-.38.17-.54.69-1.01,2.02-1.43,3.29-1.05,1.16.35,1.91,1.36,1.93,2.59,0,.14,0,.29.03.45.34-1.05,1.01-1.76,2.11-1.88,1.97-.23,3.26,1.28,2.94,2.99-.47,2.54-.92,5.09-1.38,7.63-.03.19-.08.39-.18.56-.58,1.04-1.34,1.93-2.3,2.64-.57.42-.92.36-1.32-.22-.24-.34-.41-.72-.63-1.1-.26.4-.51.81-.79,1.19-.2.28-.42.55-.67.78-.47.43-.86.41-1.33-.02-.45-.42-.78-.94-1.15-1.49-.17.29-.31.55-.47.79-.28.41-.68.52-1.08.24-1.32-.94-2.55-1.95-2.91-3.68-.51-2.38-1.1-4.75-1.62-7.13-.31-1.44.46-2.59,1.92-2.95,1.37-.34,2.57.34,3,1.7.02.05.05.09.15.26,0-.33,0-.54,0-.75.01-.18.09-.31.3-.32.22-.01.34.1.37.31.02.14,0,.29,0,.43,0,2.63,0,5.25,0,7.88,0,.17-.13.39.13.5.37-.2.76-.14,1.14-.07.21.04.33.19.36.41-.04.49-.41.47-.76.49-.56.03-.62.11-.34.6.29.5.53,1.03.91,1.47.66.95.81.94,1.44-.04.34-.51.67-1.03.95-1.57.18-.33.08-.46-.29-.45-.38.01-.76.02-1.14,0-.35-.02-.6-.16-.55-.57.1-.29.33-.35.59-.36.34-.02.67-.02,1.01,0,.67-.04.71-.07.71-.72,0-2.53,0-5.07,0-7.6,0-.76-.2-1.43-.86-1.9-1.21-.66-2.1-.46-3.04.7-.05.04-.1.05-.15.02Z"/>
        <path class="cls-31" d="M10.53,13.3c-.02-.29-.18-.4-.47-.4-.32,0-.65,0-.97-.02,0-3.21,0-6.42,0-9.63.01-.03.04-.05.07-.06.27.25.1.6.22.89.03.12.03.25.02.37-.02.34.23.25.41.26.69.01,1.37,0,2.06,0,.25,0,.51-.03.72.15.24.74.09,1.5.1,2.25-.13.31-.13.63,0,.95.06,1.4.02,2.8.02,4.2,0,.23,0,.47-.24.62-.37,0-.74.02-1.11.01-.27,0-.45.08-.48.36-.11.08-.22.16-.35.03Z"/>
        <path class="cls-18" d="M15.28.85c-.24.26-.1.47.13.68.11.1.01.32-.06.33-.42.03-.82.18-1.23.25-.11.02-.21-.17-.16-.3.1-.26.13-.46-.14-.64-.11-.08-.09-.23,0-.34.09-.12.22-.25.36-.15.25.18.38.04.58-.11.23-.18.44-.05.53.27Z"/>
        <path class="cls-4" d="M20.94,3.52c-.19.23-.07.42.14.61.1.09.08.23-.01.34-.1.12-.22.21-.37.11-.21-.14-.35-.09-.5.1-.12.14-.29.13-.44.02-.13-.1-.16-.25-.06-.38.13-.18.11-.31-.08-.44-.16-.11-.15-.29-.05-.44.09-.13.24-.19.38-.09.22.15.35.08.48-.12.08-.12.22-.11.34-.06.13.05.18.17.17.35Z"/>
        <path class="cls-9" d="M7.09,2.28c-.25-.04-.43-.19-.35-.36.12-.27.2-.46-.05-.7-.09-.08-.04-.24.06-.34.12-.12.25-.15.38-.03.17.16.3.13.45-.04.12-.14.28-.15.43-.03.13.11.16.27.06.39-.2.23-.07.35.08.53.16.2.05.45-.17.44-.33-.02-.65-.22-.88.14Z"/>
        <path class="cls-19" d="M3.32.69c.54.02.96.35.89.82-.04.29-.16.7-.57.73-.61.05-1.15-.38-1.05-.88.06-.34.26-.71.73-.67Z"/>
        <path class="cls-6" d="M18.53.9c0,.23-.66.83-.9.82-.25-.01-.82-.65-.81-.9.01-.26.63-.82.9-.81.25,0,.82.64.81.9Z"/>
        <path class="cls-37" d="M2.78,7.82c.27.04.44.2.43.5-.02.3-.21.46-.49.45-.29-.01-.46-.21-.45-.5.02-.29.2-.44.51-.45Z"/>
        <path class="cls-12" d="M19.93,6.4c-.3-.03-.48-.21-.48-.49,0-.28.19-.47.49-.46.29,0,.47.17.46.48,0,.3-.19.44-.47.47Z"/>
        <path class="cls-1" d="M.64,6.52C.19,6.47-.01,6.23,0,5.9c.01-.33.26-.57.61-.54.3.02.54.22.53.57-.01.36-.26.52-.5.59Z"/>
        <path class="cls-17" d="M20.86,8.06c-.01.33-.18.54-.53.56-.35.02-.56-.19-.57-.52-.02-.33.19-.56.53-.57.33-.01.54.17.57.53Z"/>
        <path class="cls-34" d="M14.63,13.02c0-.21-.03-.41-.29-.44-.35-.04-.39-.27-.38-.57.02-.9.02-1.8.02-2.7.19-1.4.48-2.78.71-4.17.03-.04.08-.09.13-.07.46.17.63-.04.62-.47.02-.05.05-.09.09-.12.44-.16.72-.57,1.19-.69.17-.04.1-.29.2-.42.33.04.64.15.86.42.27.39.34.81.23,1.28-.23.98-.29,2-.57,2.97-.24.22-.05.43.01.64-.33.79-.33,1.66-.54,2.47-.15.59-.07,1.23-.46,1.75-.34.04-.67-.08-.99-.16-.33-.08-.5.03-.64.29-.08.05-.15.05-.22-.02Z"/>
        <path class="cls-26" d="M8.21,10.25c.01.63,0,1.25.05,1.87.03.4-.13.55-.49.58-.31.03-.57.14-.52.53-.06.07-.13.07-.2.02-.11-.25-.28-.33-.55-.26-.25.07-.52.1-.77.15-.37-.81-.46-1.69-.67-2.54-.31-1.27-.59-2.56-.89-3.83-.03-.12-.06-.25-.03-.37.59-.48,1.33-.5,2.01-.67.3-.07.63-.19.95-.03.37.58.43,1.26.56,1.92-.08.27.02.5.19.7.2.63.21,1.29.35,1.93Z"/>
        <path class="cls-25" d="M12.58,7.29c0-.8-.02-1.61-.03-2.41-.06-.07-.12-.15-.12-.24-.03-.77-.04-1.54-.2-2.29.75.37,1.05,1.03,1.06,1.81.02,2.76,0,5.52.01,8.28,0,.74-.5.39-.82.45.12-.2.08-.42.08-.64,0-1.45.01-2.89.02-4.34.15-.21.16-.41,0-.62Z"/>
        <path class="cls-36" d="M10.53,13.3c.12-.01.23-.02.35-.03.07.29.29.32.54.31.57-.01,1.14,0,1.77,0-.34.85-.74,1.61-1.28,2.28-.53.09-1.06.07-1.58.02-.54-.67-.93-1.42-1.3-2.3.37,0,.68,0,.99,0,.23,0,.43-.03.52-.28Z"/>
        <path class="cls-8" d="M12.23,2.35c.54.79.26,1.68.32,2.53-.99,0-1.98,0-2.97,0-.32,0-.52-.07-.3-.43.07-.02-.02.01.05,0,.19-.05.51-.02.41-.33-.1-.3-.31.01-.48,0-.15-.29-.02-.61-.09-.91.64-1.15,1.93-1.5,3.06-.85Z"/>
        <path class="cls-42" d="M17.36,8.12c.18-1.11.33-2.23.56-3.33.08-.37-.11-.66-.12-.99.55.47.7,1.05.57,1.75-.43,2.32-.85,4.64-1.24,6.97-.08.45-.23.6-.65.4.22-1.28.44-2.56.66-3.84.03-.21.13-.36.3-.48-.01-.16-.09-.31-.07-.47Z"/>
        <path class="cls-5" d="M7.11,5.75c-1.01.03-1.95.36-2.91.64-.13-.02-.17-.11-.18-.22,0-.04,0-.1,0-.1.67-.21.52-.91.78-1.36.11-.18.15-.41.33-.54.29-.19.21-.41.08-.64.43-.08.85-.15,1.23.16.61.56.75,1.27.65,2.06Z"/>
        <path class="cls-48" d="M14.63,13.02c.07,0,.14.02.22.02.09.33.37.36.64.4.42.08.85.15,1.31.23-.41.66-.88,1.2-1.39,1.71-.47.01-.93.03-1.36-.21-.48-.59-.33-1.21-.09-1.84.05-.13.08-.17.22-.12.2.06.34-.03.46-.19Z"/>
        <path class="cls-39" d="M7.04,13.25c.07,0,.13-.01.2-.02.16.17.33.25.57.16.27-.1.51-.11.55.31.03.26.16.52.3.74.17.28.18.53-.04.78-.38.24-.81.29-1.24.31-.62-.44-1.07-1.04-1.53-1.62.39-.32,1.04-.02,1.18-.66Z"/>
        <path class="cls-30" d="M7.11,5.75c-.15-.71-.23-1.44-.65-2.06.52.05.82.44.93.86.5,1.86,1.07,3.72.82,5.69-.26-.64-.36-1.31-.47-1.99,0-.2.02-.41-.17-.55-.15-.65-.3-1.3-.46-1.95Z"/>
        <path class="cls-2" d="M5.23,3.53c.45.2.48.36.13.66-.42.36-.64.81-.63,1.38,0,.29-.09.53-.44.45-.2-.05-.21.02-.21.17-.03.05-.06.05-.1,0-.06-.25-.12-.51-.18-.76.22-.12.4-.27.37-.56-.06-.46.16-.79.5-1.06.17-.13.35-.22.56-.27Z"/>
        <path class="cls-29" d="M16.94,3.37c.17.33.1.56-.29.61-.26.03-.44.15-.57.35-.15.23-.33.32-.59.23-.33-.2-.2-.45-.05-.68.17-.28.45-.44.76-.52.25-.06.49-.08.74.02Z"/>
        <path class="cls-44" d="M3.98,6.18s.06,0,.1,0c.04.07.08.14.12.21.37,1.67.74,3.34,1.12,5.01.13.58.27,1.16.4,1.74-.16.09-.19-.06-.21-.14-.51-2.27-1.02-4.54-1.54-6.82Z"/>
        <path class="cls-41" d="M10.33,15.87c.53-.18,1.05-.16,1.58-.02-.8,1.18-.82,1.07-1.58.02Z"/>
        <path class="cls-20" d="M14.84,5.09c-.31,1.08-.4,2.2-.64,3.29-.07.31-.14.62-.21.93-.05-1.13.31-2.2.48-3.29.09-.56.09-1.14.37-1.66.12.09.14.23.17.37,0,.15-.04.28-.17.36Z"/>
        <path class="cls-11" d="M14.05,15.18c.47-.05.92.07,1.36.21-.02.03-.05.05-.07.08-.77.74-.87.72-1.29-.28Z"/>
        <path class="cls-32" d="M7.39,15.53c.38-.25.8-.31,1.24-.31-.36,1.02-.46,1.05-1.24.31Z"/>
        <path class="cls-3" d="M14.94,4.76c-.14-.1-.05-.27-.1-.4.25-.61.68-.97,1.36-1.01-.25.16-.5.33-.67.58-.15.21-.2.4-.04.62,0,0,0,0,0,0-.15.15-.35.2-.56.21Z"/>
        <path class="cls-23" d="M4.67,3.8c-.24.38-.52.75-.34,1.23.09.25-.2.24-.25.41-.09.34-.16-.25-.27-.02-.01-.7.22-1.27.87-1.62Z"/>
        <path class="cls-33" d="M10.7,8.25c-.24-.07-.37-.27-.32-.49.06-.28.33-.12.5-.15.14-.02.29-.03.43,0,.19.03.5-.14.54.17.03.25-.17.47-.43.56-.26.1-.52.15-.73-.1.09-.09.21-.1.33-.1-.12,0-.24,0-.33.11Z"/>
        <path class="cls-24" d="M9.26,4.11c.08-.26.25-.42.52-.3.23.1.2.31.11.51-.15.31-.36.31-.6.12,0-.11-.02-.22-.02-.33Z"/>
        <path class="cls-28" d="M12.58,7.29c.19.03.34.11.33.34-.01.2-.15.26-.32.28-.29-.21-.31-.41,0-.62Z"/>
        <path class="cls-43" d="M9.6,7.88c-.15-.02-.28-.09-.29-.25-.02-.17.1-.27.25-.29.16-.02.27.06.29.24.01.17-.08.26-.25.3Z"/>
        <path class="cls-47" d="M3.42,1.83c-.21-.02-.32-.13-.34-.34-.02-.22.09-.36.29-.37.23-.02.36.14.37.36,0,.21-.11.32-.32.35Z"/>
        <path class="cls-15" d="M18.02.86c0,.2-.11.34-.32.34-.23,0-.38-.12-.37-.36,0-.21.14-.33.35-.33.22,0,.32.13.34.35Z"/>
        <path class="cls-14" d="M.9,5.95c-.06.17-.15.31-.34.29-.17-.02-.3-.12-.28-.32.02-.2.13-.28.32-.28.2,0,.27.14.3.31Z"/>
        <path class="cls-45" d="M20.3,8.4c-.21-.03-.34-.15-.32-.36.01-.18.14-.3.33-.3.21,0,.33.13.32.35-.01.19-.13.28-.32.3Z"/>
        <path class="cls-21" d="M15.51,8.63c-.11-.17-.3-.33-.09-.55.07-.07,1.15.17,1.16.25.03.27-.16.37-.37.44-.2-.21-.43-.22-.69-.15Z"/>
        <path class="cls-29" d="M14.94,4.76c.11-.27.35-.21.56-.21.14.27.1.52-.14.7-.22.16-.39.05-.52-.15.03-.11.07-.22.1-.34Z"/>
        <path class="cls-16" d="M15.51,8.63c.39-.29.6-.25.69.15-.25.04-.48,0-.69-.15Z"/>
        <path class="cls-22" d="M14.66,7.68c.14.02.26.09.24.23-.01.13-.11.23-.26.22-.12,0-.2-.1-.21-.21-.02-.15.1-.21.22-.24Z"/>
        <path class="cls-35" d="M17.36,8.12c.23.12.29.28.07.47-.13-.03-.3.03-.32-.19-.01-.18.08-.26.25-.28Z"/>
        <path class="cls-46" d="M6.13,8.93c-.22-.05-.39-.2-.37-.4.01-.19.25-.15.4-.19.12-.03.25-.09.37-.09.17,0,.36-.23.48,0,.11.21.01.42-.2.55-.26-.14-.47,0-.68.13Z"/>
        <path class="cls-38" d="M6.13,8.93c0-.29.22-.31.43-.35.18-.04.26.05.25.22-.21.15-.41.31-.68.13Z"/>
        <path class="cls-7" d="M7.56,7.71c.49.05.44.27.17.55-.34-.1-.38-.28-.17-.55Z"/>
        <path class="cls-10" d="M5.29,8.56c0,.15-.08.24-.23.24-.15,0-.23-.07-.24-.22,0-.15.07-.23.22-.24.15,0,.23.07.24.22Z"/>
        <path class="cls-13" d="M11.34,2.45c-.02.17-.12.28-.27.31-.38.07-.58.32-.73.65-.09.2-.24.33-.47.23-.2-.09-.19-.29-.14-.47.11-.47.7-.99,1.14-1.03.24-.02.43.04.46.31Z"/>
        <path class="cls-49" d="M10.7,8.25c.18-.39.47-.21.81-.16-.28.28-.56.13-.82.15,0,0,0,0,0,0Z"/>
      </g>
      <g>
        <path class="cls-27" d="M7.58,20.96v-1.93h.38l.79,1.29v-1.29h.36v1.93h-.39l-.78-1.26v1.26h-.36Z"/>
        <path class="cls-27" d="M9.44,20.01c0-.2.03-.36.09-.5.04-.1.1-.19.18-.26.08-.08.16-.14.25-.17.12-.05.26-.08.42-.08.28,0,.51.09.68.26.17.18.26.42.26.74s-.08.55-.25.73c-.17.18-.4.26-.68.26s-.52-.09-.68-.26c-.17-.18-.25-.42-.25-.72ZM9.85,20c0,.22.05.38.15.5.1.11.23.17.38.17s.28-.06.38-.17c.1-.11.15-.28.15-.5s-.05-.39-.15-.5c-.1-.11-.23-.16-.39-.16s-.29.06-.39.17c-.1.11-.15.28-.15.5Z"/>
        <path class="cls-27" d="M12.05,20.96v-1.6h-.57v-.33h1.53v.33h-.57v1.6h-.39Z"/>
        <path class="cls-27" d="M13.27,20.96v-1.93h1.43v.33h-1.04v.43h.97v.33h-.97v.53h1.08v.33h-1.47Z"/>
      </g>
    </g>
  </g>
</svg>