<?xml version="1.0" encoding="UTF-8"?>
<svg id="_图层_2" data-name="图层 2" xmlns="http://www.w3.org/2000/svg" viewBox="0 0 53.96 12.92">
  <defs>
    <style>
      .cls-1 {
        fill: #036eb8;
      }

      .cls-2 {
        fill: #fff;
      }
    </style>
  </defs>
  <g id="Layer_1" data-name="Layer 1">
    <g>
      <path class="cls-1" d="M47.5,12.92H6.46c-3.57,0-6.46-2.89-6.46-6.46h0C0,2.89,2.89,0,6.46,0h41.03c3.57,0,6.46,2.89,6.46,6.46h0c0,3.57-2.89,6.46-6.46,6.46Z"/>
      <g>
        <path class="cls-2" d="M20.12,6.53h-1.58v3.01h-.54v-3.01h-2c-.1,1.11-.46,2.22-1.77,3.04-.1-.12-.29-.31-.42-.39,1.18-.73,1.55-1.68,1.65-2.64h-1.67v-.51h1.69c0-.11,0-.2,0-.31v-1.71h-1.43v-.51h5.85v.51h-1.36v2.02h1.58v.51ZM17.99,6.01v-2.02h-1.98v2.02h1.98Z"/>
        <path class="cls-2" d="M23.27,4.52c-.09,1.29-.28,2.3-.61,3.09.31.27.58.55.76.78l-.33.43c-.16-.22-.39-.48-.66-.73-.34.64-.78,1.11-1.32,1.43-.07-.12-.21-.32-.31-.42.51-.28.93-.73,1.25-1.36-.35-.3-.73-.59-1.08-.83.16-.51.33-1.2.49-1.93h-.65v-.49h.74c.08-.5.16-.99.21-1.42l.5.03c-.06.43-.13.91-.23,1.4h.92s.31.04.31.04ZM21.96,4.97c-.13.62-.28,1.23-.41,1.74.24.17.49.36.73.56.24-.63.4-1.4.48-2.29h-.8ZM26.18,4.06c.48.62.98,1.44,1.2,1.99l-.46.23c-.06-.14-.14-.32-.23-.5-2.62.2-2.94.23-3.14.31-.02-.11-.11-.36-.18-.51.14-.03.29-.2.46-.46.19-.25.77-1.2,1.13-2.11l.54.16c-.38.81-.84,1.63-1.31,2.28l2.26-.14c-.21-.37-.46-.74-.69-1.06l.41-.2ZM23.8,6.66h3.13v2.86h-.51v-.3h-2.12v.31h-.49v-2.88ZM24.29,7.13v1.62h2.12v-1.62h-2.12Z"/>
        <path class="cls-2" d="M30.17,3.21c-.19.51-.45,1.03-.73,1.53v4.78h-.53v-3.96c-.22.31-.46.6-.71.85-.05-.12-.21-.41-.31-.53.71-.68,1.36-1.75,1.76-2.83l.51.16ZM32.25,4.72v1.02h2.03v.49h-2.03v1.08h2.13v.5h-2.13v1.73h-.53v-4.81h-.49c-.31.57-.66,1.08-1.01,1.48-.08-.09-.29-.27-.41-.36.64-.66,1.22-1.69,1.57-2.73l.51.14c-.11.33-.25.65-.39.96h2.96v.51h-2.2Z"/>
        <path class="cls-2" d="M41.42,8.64v.52h-6.23v-.52h1.98V3.11h.53v5.52h1.2V3.12h.53v5.52h1.99ZM36.31,7.3c-.17-.63-.6-1.7-.97-2.5l.49-.15c.38.79.81,1.83,1,2.45l-.53.2ZM41.28,4.9c-.34.81-.82,1.79-1.23,2.45l-.43-.24c.39-.64.9-1.67,1.18-2.45l.48.24Z"/>
      </g>
    </g>
  </g>
</svg>