<?xml version="1.0" encoding="UTF-8"?>
<svg id="_图层_2" data-name="图层 2" xmlns="http://www.w3.org/2000/svg" viewBox="0 0 34.03 25.56">
  <defs>
    <style>
      .cls-1 {
        fill: #e57f23;
      }

      .cls-2, .cls-3, .cls-4, .cls-5, .cls-6, .cls-7, .cls-8, .cls-9, .cls-10, .cls-11, .cls-12 {
        fill: none;
      }

      .cls-2, .cls-3, .cls-4, .cls-5, .cls-6, .cls-8, .cls-9, .cls-11, .cls-12 {
        stroke-miterlimit: 10;
      }

      .cls-2, .cls-6, .cls-7, .cls-11 {
        stroke-width: .68px;
      }

      .cls-2, .cls-7, .cls-10 {
        stroke: #231815;
      }

      .cls-13 {
        fill: #e57d22;
      }

      .cls-3 {
        stroke: #29a2d0;
        stroke-width: .14px;
      }

      .cls-3, .cls-4, .cls-5, .cls-7, .cls-8, .cls-9, .cls-10, .cls-12 {
        stroke-linecap: round;
      }

      .cls-14 {
        fill: #eeb033;
      }

      .cls-15 {
        fill: #eacc2d;
      }

      .cls-4, .cls-9 {
        stroke: #e99214;
      }

      .cls-4, .cls-12 {
        stroke-width: .27px;
      }

      .cls-16 {
        fill: #48aad9;
      }

      .cls-5, .cls-6 {
        stroke: #dd5519;
      }

      .cls-5, .cls-8, .cls-9 {
        stroke-width: .54px;
      }

      .cls-17 {
        fill: #231815;
      }

      .cls-7, .cls-10 {
        stroke-linejoin: round;
      }

      .cls-8 {
        stroke: #eeb033;
      }

      .cls-10 {
        stroke-width: .41px;
      }

      .cls-11 {
        stroke: #339cd1;
      }

      .cls-12 {
        stroke: #4fae7a;
      }
    </style>
  </defs>
  <g id="Layer_1" data-name="Layer 1">
    <g>
      <g>
        <line class="cls-10" x1="30.24" y1="25.24" x2="33.82" y2="25.24"/>
        <line class="cls-10" x1="6.61" y1="25.36" x2="28.98" y2="25.36"/>
        <line class="cls-10" x1="4.75" y1="25.24" x2="5.67" y2="25.24"/>
        <line class="cls-10" x1=".2" y1="25.24" x2="3.85" y2="25.24"/>
      </g>
      <path class="cls-1" d="M30.38,11.6c0,.1-.08.18-.18.18s-.18-.08-.18-.18.08-.18.18-.18.18.08.18.18Z"/>
      <g>
        <line class="cls-4" x1="12.84" y1=".14" x2="12.84" y2=".33"/>
        <line class="cls-4" x1="13.21" y1=".29" x2="13.06" y2=".41"/>
        <line class="cls-4" x1="13.31" y1=".6" x2="13.12" y2=".64"/>
        <line class="cls-4" x1="13.14" y1=".96" x2="13.02" y2=".81"/>
        <line class="cls-4" x1="12.48" y1=".27" x2="12.62" y2=".4"/>
        <line class="cls-4" x1="12.38" y1=".58" x2="12.56" y2=".62"/>
        <line class="cls-4" x1="12.54" y1=".94" x2="12.66" y2=".8"/>
        <line class="cls-4" x1="12.82" y1="1.06" x2="12.82" y2=".87"/>
      </g>
      <g>
        <line class="cls-12" x1="29.76" y1="6.89" x2="30.04" y2="6.87"/>
        <line class="cls-12" x1="30.02" y1="7.29" x2="30.14" y2="7.04"/>
        <line class="cls-12" x1="30.49" y1="7.26" x2="30.34" y2="7.03"/>
        <line class="cls-12" x1="30.7" y1="6.84" x2="30.43" y2="6.86"/>
        <line class="cls-12" x1="30.44" y1="6.44" x2="30.32" y2="6.69"/>
        <line class="cls-12" x1="29.97" y1="6.47" x2="30.13" y2="6.7"/>
      </g>
      <path class="cls-3" d="M4.1,5.98c-.08.17-.26.29-.46.29-.28,0-.51-.23-.51-.52s.23-.52.51-.52.51.22.51.5"/>
      <path class="cls-16" d="M4.42,11.41c0,.22-.18.4-.4.4s-.4-.18-.4-.4.18-.4.4-.4.4.18.4.4Z"/>
      <path class="cls-6" d="M33.42,9.84c0,.44-.35.79-.79.79s-.79-.35-.79-.79.35-.79.79-.79.79.35.79.79Z"/>
      <path class="cls-11" d="M23.85,1.91c0,.43-.35.78-.78.78s-.78-.35-.78-.78.35-.78.78-.78.78.35.78.78Z"/>
      <g>
        <line class="cls-5" x1="5.43" y1="7.95" x2="6.18" y2="7.95"/>
        <line class="cls-5" x1="5.79" y1="7.54" x2="5.79" y2="8.29"/>
      </g>
      <g>
        <line class="cls-9" x1="27.5" y1="4.35" x2="28.81" y2="4.35"/>
        <line class="cls-9" x1="28.14" y1="3.63" x2="28.14" y2="4.94"/>
      </g>
      <g>
        <line class="cls-8" x1="7.72" y1=".67" x2="7.72" y2="1.12"/>
        <line class="cls-8" x1="7.72" y1="3.61" x2="7.72" y2="4.06"/>
        <line class="cls-8" x1="8.96" y1="1.19" x2="8.66" y2="1.51"/>
        <line class="cls-8" x1="6.92" y1="3.3" x2="6.61" y2="3.62"/>
        <line class="cls-8" x1="9.49" y1="2.46" x2="9.05" y2="2.46"/>
        <line class="cls-8" x1="6.55" y1="2.46" x2="6.1" y2="2.46"/>
        <line class="cls-8" x1="8.97" y1="3.6" x2="8.65" y2="3.29"/>
        <line class="cls-8" x1="6.85" y1="1.55" x2="6.53" y2="1.24"/>
        <path class="cls-14" d="M8.06,2.4c0,.17-.14.31-.31.31s-.31-.14-.31-.31.14-.31.31-.31.31.14.31.31Z"/>
      </g>
      <circle class="cls-15" cx="17.62" cy="21.01" r="2.21"/>
      <line class="cls-6" x1="15.68" y1="21.79" x2="19.43" y2="21.79"/>
      <circle class="cls-2" cx="17.54" cy="20.93" r="2.21"/>
      <path class="cls-15" d="M9.6,11.6v3.23s.13.97-1.7,3.54c0,0-2.06,2.81,1.67,2.85h18.75s2.85.19.87-2.75c0,0-1.75-2.03-1.75-3.22l.02-4.18s.42-6.64-9.19-8.38l-.29-.71s-.99-1.92-2.13-.37l-.2,1.34.02.42c-2.29.8-5.67,2.88-6.07,8.22Z"/>
      <path class="cls-1" d="M18.49,3.17s8.95,1.53,6.55,12.38c0,0-.24,1.29.71,2.05,0,0,2.31,1.78-.25,3.61l1.36-.04,1.34-.27.64-.84-.07-.77-1.38-1.92-.87-1.68.13-3.83-.47-2.92-.71-1.68-1.78-2.12-2.96-1.65-2.25-.32Z"/>
      <path class="cls-7" d="M24.28,5.73c-1.22-1.27-3.09-2.36-5.94-2.71v-.75c0-.29-.13-.57-.37-.75-.39-.3-1.03-.58-1.69.04-.18.17-.28.41-.28.66v.83s-2.37.12-4.57,1.65"/>
      <path class="cls-7" d="M25.66,7.68c-.17-.34-.37-.68-.61-1.02"/>
      <path class="cls-7" d="M10.15,5.81c-1.19,1.26-2.15,3.11-2.35,5.79v3.23s.08,1-1.7,3.54c0,0-2.06,2.81,1.67,2.85h18.75s3.7.19,1.71-2.75c0,0-1.71-2.04-1.65-3.22v-4.18s-.02-1.08-.52-2.46"/>
      <circle class="cls-17" cx="10.72" cy="5.21" r=".33"/>
      <circle class="cls-17" cx="14.02" cy="14.61" r=".82"/>
      <circle class="cls-17" cx="21.25" cy="14.61" r=".82"/>
      <path class="cls-17" d="M19.23,15.14c.19,0,.34.18.3.37-.16.67-.73,1.45-1.8,1.45-.99,0-1.61-.78-1.79-1.44-.05-.19.1-.38.3-.38h2.99Z"/>
      <ellipse class="cls-13" cx="17.75" cy="16.4" rx=".58" ry=".33"/>
    </g>
  </g>
</svg>