<?xml version="1.0" encoding="UTF-8"?>
<svg id="_图层_2" data-name="图层 2" xmlns="http://www.w3.org/2000/svg" viewBox="0 0 30.75 34.7">
  <defs>
    <style>
      .cls-1 {
        fill: #eeea41;
      }

      .cls-2 {
        fill: #050202;
      }

      .cls-3 {
        fill: #1e3743;
      }

      .cls-4 {
        fill: #f7fafa;
      }

      .cls-5 {
        fill: #161716;
      }

      .cls-6 {
        fill: #34a1d3;
      }

      .cls-7 {
        fill: #080707;
      }

      .cls-8 {
        fill: #f2f8f7;
      }

      .cls-9 {
        fill: #e6392c;
      }

      .cls-10 {
        fill: #e73226;
      }

      .cls-11 {
        fill: #eb6362;
      }

      .cls-12 {
        fill: #f7ddd9;
      }

      .cls-13 {
        fill: #76cae7;
      }

      .cls-14 {
        fill: #f4f9fa;
      }

      .cls-15 {
        fill: #f3ad1e;
      }

      .cls-16 {
        fill: #676666;
      }

      .cls-17 {
        fill: #dc4921;
      }

      .cls-18 {
        fill: #e73124;
      }

      .cls-19 {
        fill: #0b0c0c;
      }

      .cls-20 {
        fill: #060406;
      }

      .cls-21 {
        fill: #70c7e6;
      }

      .cls-22 {
        fill: #faf4be;
      }

      .cls-23 {
        fill: #060303;
      }

      .cls-24 {
        fill: #7ecbe6;
      }

      .cls-25 {
        fill: #1e3841;
      }

      .cls-26 {
        fill: #80cbd5;
      }

      .cls-27 {
        fill: #f8e8e5;
      }

      .cls-28 {
        fill: #fbfcfb;
      }

      .cls-29 {
        fill: #616161;
      }

      .cls-30 {
        fill: #170b0d;
      }

      .cls-31 {
        fill: #080808;
      }

      .cls-32 {
        fill: #05060a;
      }
    </style>
  </defs>
  <g id="Layer_1" data-name="Layer 1">
    <g>
      <path class="cls-13" d="M11.18,21.83c0-3.62-.03-7.24,0-10.86,0-1.05.35-2.06.8-3.01.08-.17.24-.32.07-.52-.06-.29.12-.47.31-.63,1.15-.95,4.19-1.48,5.49-.53,1.96,1.6,2.65,3.71,2.58,6.19-.07,2.71,0,5.43-.02,8.14,0,.48.17,1.1-.41,1.32-.65.24-1.37.22-2.03-.01-.3-.1-.34-.43-.3-.71.15-1.08.04-2.16.11-3.23.06-.27.39-.22.53-.38-.12-.28-.5-.09-.57-.39-.09-.55-.09-1.11-.13-1.66-.07-.8-.49-1.15-1.33-1.16-.92,0-1.44.39-1.53,1.17-.07.54.13,1.12-.21,1.62-.21.19-.79.34-.05.61.15.06.19.24.23.4.1.97.05,1.94.04,2.9,0,.63-.3,1.01-.97.95-.87-.07-1.77.25-2.6-.23Z"/>
      <path class="cls-6" d="M11.18,21.83c.82,0,1.65-.03,2.47.02.62.03.9-.12.86-.81-.06-1.07-.02-2.14-.03-3.22-.18-.18-.25-.38-.17-.63.35-.47.14-1.02.17-1.53.05-1.04.57-1.5,1.76-1.5,1.06,0,1.58.46,1.57,1.47,0,.58.18,1.15.04,1.72.13.14.29.28.08.48.01,1.12.16,2.25-.09,3.37-.08.39.02.6.5.63,1.81.13,1.81.15,1.81-1.68,0-2.71-.02-5.42,0-8.13.02-2.07-.58-3.85-2.15-5.26-.14-.13-.25-.29-.38-.44.37-.28.7-.06.99.11,1.55.91,2.64,2.15,2.93,3.99.05.34-.02,1,.43.91.49-.09.23-.69.17-1.08-.22-1.29-.78-2.4-1.75-3.31-.24-.22-.52-.43-.53-.8,1.13.14,1.76.97,2.38,1.77.71.91,1.07,1.99,1.07,3.16,0,3.32.01,6.64,0,9.96,0,.98-.35,1.35-1.3,1.43.28-1.75.2-3.52.2-5.29,0-.35.04-.71-.19-1.07-.37.27-.29.62-.29.93-.02,1.19.01,2.38-.01,3.57-.03,1.2-.41,1.6-1.61,1.62-2.69.03-5.38.02-8.06,0-.32,0-.68.03-.91-.29-.01-.05,0-.09.02-.13Z"/>
      <path class="cls-2" d="M11.16,21.96c3.13,0,6.27.02,9.4.02.69,0,.91-.4.9-1.02,0-1.47,0-2.94,0-4.41,0-.37-.11-.87.48-.88.53,0,.55.43.55.84,0,1.53-.01,3.05,0,4.58,0,.53-.17.97-.46,1.39-.49.43-1.06.54-1.69.53-1.91-.02-1.91,0-1.91,1.93,0,1.89.03,3.78,0,5.66-.03,1.65-.94,2.45-2.55,2.3-1.21-.11-1.9-.85-1.91-2.08-.01-2.39-.02-4.78,0-7.16,0-.56-.16-.71-.7-.68-.75.04-1.5.03-2.25,0-1.04-.03-1.71-.69-1.72-1.73-.01-3.19,0-6.39,0-9.58,0-.39.04-.79.52-.78.46,0,.52.4.52.79,0,3.08,0,6.16,0,9.24,0,.55.01,1.1.82,1.01Z"/>
      <path class="cls-23" d="M14.41,33.67c2.47,0,4.94,0,7.41,0,.37,0,.86-.1.89.47.03.64-.49.55-.9.55-4.91,0-9.82,0-14.73,0-.38,0-.87.09-.89-.47-.02-.61.48-.55.9-.55,2.44,0,4.88,0,7.32,0Z"/>
      <path class="cls-20" d="M19.88,6.16c1.35,1.11,2.27,2.48,2.53,4.24.04.25.05.49.07.74.02.36-.16.62-.5.64-.37.02-.5-.24-.53-.6-.1-1.3-.51-2.49-1.44-3.45-.66-.68-1.4-1.24-2.37-1.41-2.03-.46-3.99-.54-5.6,1.11-.29.3-.59.69-1.02.26-.4-.4,0-.71.25-.98,1.57-1.71,3.61-1.83,5.72-1.65,1.05.09,2,.53,2.9,1.08Z"/>
      <path class="cls-31" d="M28.58,34.7c-.44,0-.89,0-1.33,0-.37,0-.71-.08-.72-.5,0-.47.36-.54.76-.54.91.01,1.83.01,2.74,0,.38,0,.7.09.72.5.02.42-.29.54-.68.54-.5-.01-1,0-1.5,0Z"/>
      <path class="cls-1" d="M22.36,2.73c-.35-.37-.78-.29-1.23-.24-.23.02-.43-.39-.29-.46.68-.34-.39-1.43.61-1.46.35-.01.74.34,1.17.13.02,0,.06,0,.08.02.18.1.38.38.26.44-.67.35.32,1.3-.61,1.57Z"/>
      <path class="cls-21" d="M29.09,7.31c.35.45.81.23,1.26.24.2,0,.39.34.27.42-.63.38.33,1.36-.53,1.48-.37.05-.81-.36-1.31-.16-.15.06-.37-.35-.26-.41.66-.36-.29-1.26.58-1.57Z"/>
      <path class="cls-11" d="M7.63,2.34c-.33,0-.55-.16-.5-.25.37-.65-.88-.96-.39-1.43.31-.3.91-.4,1.37-.64.14-.08.4.17.34.25-.49.67.96.87.38,1.42-.33.32-1.05.09-1.2.65Z"/>
      <path class="cls-7" d="M3.37,33.67c.33,0,.66,0,1,0,.34,0,.54.19.55.49.01.31-.17.52-.51.53-.72,0-1.44,0-2.16,0-.33,0-.55-.17-.55-.49,0-.36.24-.53.6-.53.36,0,.72,0,1.08,0Z"/>
      <path class="cls-24" d="M3.59,2.86c0,.75-.38,1.06-1.04,1.07-.64,0-1-.46-.95-1.2.05-.68.31-1,1.11-.96.87.05.74.61.89,1.09Z"/>
      <path class="cls-10" d="M30.63,3.27c-.01.58-.63,1.24-1.13,1.19-.61-.07-1.05-.41-1.15-1.02-.07-.44.68-1.23,1.07-1.22.44.01,1.21.69,1.2,1.05Z"/>
      <path class="cls-19" d="M25.16,33.67c.17,0,.33,0,.5,0,.38-.01.67.11.66.55,0,.41-.31.48-.64.48-.39,0-.78,0-1.16,0-.37,0-.69-.11-.67-.54.02-.36.29-.5.64-.49.22,0,.44,0,.66,0Z"/>
      <path class="cls-5" d="M10.45,8.38c.34.09.56.24.54.58-.02.57-.64,1.43-.98,1.36-.31-.06-.52-.28-.43-.59.15-.54.23-1.16.87-1.34Z"/>
      <path class="cls-18" d="M6.5,6.99c-.22.53-.78.58-1.06.65-.55.14-.54-.68-.62-.95-.14-.51.68-.51.97-.6.52-.15.07.84.71.89Z"/>
      <path class="cls-26" d="M1.62,9.83c-.1.48-.38.81-.85.76-.47-.05-.82-.34-.77-.89.05-.5.41-.71.86-.69.5.02.66.42.75.82Z"/>
      <path class="cls-16" d="M26.53,10.64c-.39-.06-.67-.27-.66-.68,0-.36.24-.61.62-.62.43,0,.67.24.67.66,0,.39-.26.58-.63.64Z"/>
      <path class="cls-29" d="M5.24,11.93c-.04.37-.21.62-.61.63-.39.01-.63-.17-.65-.57-.02-.43.2-.67.63-.68.4,0,.57.26.63.62Z"/>
      <path class="cls-9" d="M30.74,13.51c-.07.54-.37.81-.83.78-.47-.03-.75-.36-.71-.84.04-.44.32-.69.78-.68.5,0,.72.32.76.74Z"/>
      <path class="cls-28" d="M12,10.48c.16-.62.42-1.26.79-1.85.13-.2.33-.32.57-.23.28.11.37.37.28.62-.22.63-.48,1.24-.74,1.85-.11.27-.33.38-.61.28-.29-.1-.31-.36-.29-.67Z"/>
      <path class="cls-14" d="M14.27,7.65c-.06.3-.23.49-.54.5-.28,0-.48-.19-.51-.44-.03-.29.11-.53.46-.54.32,0,.48.19.58.48Z"/>
      <path class="cls-3" d="M17.94,17.84c-.03-.16-.06-.32-.08-.48.23-.16.46-.31.71-.03.12.14.12.3.02.44-.18.25-.41.21-.64.06Z"/>
      <path class="cls-25" d="M14.32,17.19c.15.18.25.38.17.63-.32.2-.66.24-.74-.2-.07-.36.22-.5.57-.43Z"/>
      <path class="cls-32" d="M21.46,13.79c0-.14,0-.27,0-.41,0-.33-.04-.71.44-.73.47-.02.6.28.59.7,0,.27-.01.55,0,.82.02.41-.09.74-.55.73-.44,0-.5-.34-.48-.7,0-.14,0-.27,0-.41Z"/>
      <path class="cls-30" d="M15.66,18.54c-.24-.18-.56-.38-.47-.71.11-.4.52-.14.79-.2.16-.03.34-.03.49,0,.24.05.62-.19.68.22.05.32-.15.57-.51.63-.35-.29-.66-.06-.99.06Z"/>
      <path class="cls-17" d="M15.66,18.54c.29-.54.66-.56.99-.06-.34-.13-.64.44-.99.06Z"/>
      <path class="cls-22" d="M17.32,24.46c.01,2.13.03,4.26.03,6.39,0,.79-.49,1.03-1.21,1.02-.73-.01-1.16-.31-1.16-1.08,0-2.1.02-4.21.02-6.31.77-.35,1.54-.33,2.31-.01Z"/>
      <path class="cls-15" d="M17.32,24.46c-.77,0-1.54,0-2.31.01q-.09-1.48.98-1.48,1.42,0,1.33,1.47Z"/>
      <path class="cls-4" d="M2.61,2.36c.3.06.41.25.39.53-.03.29-.19.46-.49.41-.25-.04-.36-.23-.35-.47.01-.28.15-.45.45-.46Z"/>
      <path class="cls-27" d="M29.97,3.28c-.01.33-.17.51-.45.55-.29.04-.48-.14-.53-.41-.05-.34.15-.52.47-.55.31-.03.41.22.5.42Z"/>
      <path class="cls-8" d="M1.16,9.83c0,.24-.14.34-.36.33-.25,0-.44-.13-.38-.4.04-.21.19-.41.46-.36.21.04.31.2.29.42Z"/>
      <path class="cls-12" d="M30.41,13.49c-.04.27-.17.46-.42.47-.29.02-.47-.18-.46-.46,0-.25.2-.4.45-.4.25,0,.38.18.44.39Z"/>
    </g>
  </g>
</svg>