<?xml version="1.0" encoding="UTF-8"?>
<svg id="_图层_2" data-name="图层 2" xmlns="http://www.w3.org/2000/svg" viewBox="0 0 48.05 33.87">
  <defs>
    <style>
      .cls-1 {
        fill: #e57f23;
      }

      .cls-2 {
        fill: #3da537;
      }

      .cls-3 {
        stroke: #d1d622;
      }

      .cls-3, .cls-4, .cls-5, .cls-6, .cls-7, .cls-8, .cls-9, .cls-10 {
        fill: none;
      }

      .cls-3, .cls-4, .cls-5, .cls-8 {
        stroke-width: .54px;
      }

      .cls-3, .cls-4, .cls-5, .cls-8, .cls-9, .cls-10 {
        stroke-miterlimit: 10;
      }

      .cls-4 {
        stroke: #e99214;
      }

      .cls-4, .cls-6, .cls-7, .cls-8, .cls-9 {
        stroke-linecap: round;
      }

      .cls-5 {
        stroke: #eeb033;
      }

      .cls-11 {
        opacity: .84;
      }

      .cls-11, .cls-12 {
        fill: #231815;
      }

      .cls-6, .cls-7 {
        stroke-linejoin: round;
      }

      .cls-6, .cls-7, .cls-9, .cls-10 {
        stroke: #231815;
      }

      .cls-6, .cls-9 {
        stroke-width: .27px;
      }

      .cls-7, .cls-10 {
        stroke-width: .81px;
      }

      .cls-8 {
        stroke: #fff;
      }

      .cls-13 {
        fill: #55a9d8;
      }

      .cls-14 {
        fill: #abc736;
      }

      .cls-15 {
        fill: #77b434;
      }

      .cls-16 {
        fill: #3d82bd;
      }

      .cls-17 {
        fill: #e57e22;
      }
    </style>
  </defs>
  <g id="Layer_1" data-name="Layer 1">
    <g>
      <line class="cls-7" x1="42.61" y1="33.47" x2="47.65" y2="33.47"/>
      <line class="cls-7" x1="9.41" y1="33.47" x2="40.85" y2="33.47"/>
      <line class="cls-7" x1="6.79" y1="33.47" x2="8.09" y2="33.47"/>
      <line class="cls-7" x1=".41" y1="33.47" x2="5.53" y2="33.47"/>
      <path class="cls-13" d="M32.43,33.45h-13.78c-.28,0-.52-.21-.55-.5l-1.05-10.55c-.03-.32.22-.6.55-.6h15.87c.33,0,.58.28.55.6l-1.05,10.55c-.03.28-.26.5-.55.5Z"/>
      <path class="cls-16" d="M31.13,21.81c.72,3.53-1.12,11.54-1.12,11.54l1.65-.02,1.19-11.52h-1.72Z"/>
      <polyline class="cls-7" points="32.25 27.18 31.63 33.45 16.85 33.45 16.65 31.42"/>
      <path class="cls-7" d="M16.48,29.76l-.75-7.55c-.02-.22.15-.41.37-.41h16.26c.22,0,.4.19.37.41l-.21,2.11"/>
      <path class="cls-12" d="M32.84,25.76c0,.26-.21.46-.46.46s-.46-.21-.46-.46.21-.46.46-.46.46.21.46.46Z"/>
      <line class="cls-8" x1="18.21" y1="23.31" x2="18.35" y2="24.78"/>
      <line class="cls-8" x1="18.49" y1="25.84" x2="18.53" y2="26.34"/>
      <path class="cls-12" d="M23.19,27.68c0,.48-.39.86-.86.86s-.86-.39-.86-.86.39-.86.86-.86.86.39.86.86Z"/>
      <path class="cls-12" d="M27.39,27.68c0,.48-.39.86-.86.86s-.86-.39-.86-.86.39-.86.86-.86.86.39.86.86Z"/>
      <circle class="cls-17" cx="21" cy="29.4" r=".77"/>
      <circle class="cls-17" cx="27.69" cy="29.4" r=".77"/>
      <path class="cls-6" d="M23.32,28.79s1.05,1.62,2.18,0"/>
      <rect class="cls-14" x="27.94" y="6.2" width="6.68" height="10.6" rx="1.97" ry="1.97" transform="translate(17.29 -18.75) rotate(45)"/>
      <path class="cls-2" d="M35.62,8.4c1.3,2.53-5.68,6.13-5.68,6.13l-.02,1.95,2.19-.96,4.38-5.2-.87-1.92Z"/>
      <rect class="cls-10" x="27.99" y="6.17" width="6.68" height="10.6" rx="1.97" ry="1.97" transform="translate(17.29 -18.79) rotate(45)"/>
      <rect class="cls-15" x="16.28" y="13.82" width="3.69" height="5.77" rx="1.09" ry="1.09" transform="translate(-5.68 23.13) rotate(-57.77)"/>
      <path class="cls-2" d="M15.81,15.08c3.56-.1,2.43,3.63,2.43,3.63l1.8-4.02-3.15-.63-1.08,1.01Z"/>
      <rect class="cls-10" x="16.3" y="13.85" width="3.69" height="5.77" rx="1.09" ry="1.09" transform="translate(-5.69 23.16) rotate(-57.77)"/>
      <path class="cls-14" d="M21.92,5.23h4.79c1.9,0,3.44,1.54,3.44,3.44v10.33c0,1.5-1.22,2.72-2.72,2.72h-6.23c-1.5,0-2.72-1.22-2.72-2.72v-10.33c0-1.9,1.54-3.44,3.44-3.44Z"/>
      <path class="cls-2" d="M23.92,5.29c4.5.24,4.31,5.49,4.31,5.49l-.1,6.45s.28,2.26-3.66,4.24l4.06.12,1.7-2.9-.19-10.2-1.78-2.81-4.34-.38Z"/>
      <path class="cls-10" d="M21.8,5.26h4.79c1.9,0,3.44,1.54,3.44,3.44v10.33c0,1.5-1.22,2.72-2.72,2.72h-6.23c-1.5,0-2.72-1.22-2.72-2.72v-10.33c0-1.9,1.54-3.44,3.44-3.44Z"/>
      <path class="cls-11" d="M18.42,5.24c0,.12-.09.21-.21.21s-.21-.09-.21-.21.09-.21.21-.21.21.09.21.21Z"/>
      <path class="cls-11" d="M27.84,13.94c0,.12-.09.21-.21.21s-.21-.09-.21-.21.09-.21.21-.21.21.09.21.21Z"/>
      <path class="cls-11" d="M28.1,9.64c0,.12-.09.21-.21.21s-.21-.09-.21-.21.09-.21.21-.21.21.09.21.21Z"/>
      <path class="cls-11" d="M24.95,10.21c0,.12-.09.21-.21.21s-.21-.09-.21-.21.09-.21.21-.21.21.09.21.21Z"/>
      <path class="cls-11" d="M17.12,15.73c0,.12-.09.21-.21.21s-.21-.09-.21-.21.09-.21.21-.21.21.09.21.21Z"/>
      <path class="cls-11" d="M17.28,16.66c0,.12-.09.21-.21.21s-.21-.09-.21-.21.09-.21.21-.21.21.09.21.21Z"/>
      <path class="cls-11" d="M20.43,3.51c0,.12-.09.21-.21.21s-.21-.09-.21-.21.09-.21.21-.21.21.09.21.21Z"/>
      <path class="cls-11" d="M23.57,19.52c0,.12-.09.21-.21.21s-.21-.09-.21-.21.09-.21.21-.21.21.09.21.21Z"/>
      <path class="cls-11" d="M26.92,17.02c0,.12-.09.21-.21.21s-.21-.09-.21-.21.09-.21.21-.21.21.09.21.21Z"/>
      <path class="cls-11" d="M22.71,16.66c0,.12-.09.21-.21.21s-.21-.09-.21-.21.09-.21.21-.21.21.09.21.21Z"/>
      <path class="cls-11" d="M24.53,13.48c0,.12-.09.21-.21.21s-.21-.09-.21-.21.09-.21.21-.21.21.09.21.21Z"/>
      <path class="cls-11" d="M21.49,13.49c0,.12-.09.21-.21.21s-.21-.09-.21-.21.09-.21.21-.21.21.09.21.21Z"/>
      <path class="cls-11" d="M21,10.86c0,.12-.09.21-.21.21s-.21-.09-.21-.21.09-.21.21-.21.21.09.21.21Z"/>
      <path class="cls-11" d="M24.02,7.71c0,.12-.09.21-.21.21s-.21-.09-.21-.21.09-.21.21-.21.21.09.21.21Z"/>
      <path class="cls-11" d="M31.85,10.28c0,.12-.09.21-.21.21s-.21-.09-.21-.21.09-.21.21-.21.21.09.21.21Z"/>
      <path class="cls-11" d="M34.61,10.63c0,.12-.09.21-.21.21s-.21-.09-.21-.21.09-.21.21-.21.21.09.21.21Z"/>
      <path class="cls-11" d="M32.68,12.59c0,.12-.09.21-.21.21s-.21-.09-.21-.21.09-.21.21-.21.21.09.21.21Z"/>
      <path class="cls-11" d="M19.74.88c0,.12-.09.21-.21.21s-.21-.09-.21-.21.09-.21.21-.21.21.09.21.21Z"/>
      <path class="cls-11" d="M17.31,2.64c0,.12-.09.21-.21.21s-.21-.09-.21-.21.09-.21.21-.21.21.09.21.21Z"/>
      <line class="cls-9" x1="15.39" y1="14.92" x2="14.9" y2="14.27"/>
      <line class="cls-9" x1="15.47" y1="14.81" x2="15.52" y2="14"/>
      <line class="cls-9" x1="14.51" y1="14.81" x2="15.3" y2="15.02"/>
      <line class="cls-9" x1="34.81" y1="6.91" x2="35.31" y2="6.26"/>
      <line class="cls-9" x1="34.93" y1="6.95" x2="35.73" y2="6.79"/>
      <line class="cls-9" x1="34.69" y1="6.02" x2="34.69" y2="6.84"/>
      <circle class="cls-1" cx="10.38" cy="3.67" r=".2"/>
      <path class="cls-3" d="M12.96,7.95c0,.21-.17.39-.39.39s-.39-.17-.39-.39.17-.39.39-.39.39.17.39.39Z"/>
      <path class="cls-5" d="M37.91,14.88c0,.21-.17.39-.39.39s-.39-.17-.39-.39.17-.39.39-.39.39.17.39.39Z"/>
      <g>
        <line class="cls-4" x1="32.41" y1=".66" x2="33.19" y2=".66"/>
        <line class="cls-4" x1="32.8" y1="1.06" x2="32.8" y2=".27"/>
      </g>
      <g>
        <line class="cls-4" x1="28.98" y1="1.13" x2="28.98" y2="1.5"/>
        <line class="cls-4" x1="29.7" y1="1.43" x2="29.41" y2="1.67"/>
        <line class="cls-4" x1="29.9" y1="2.05" x2="29.53" y2="2.12"/>
        <line class="cls-4" x1="29.58" y1="2.76" x2="29.34" y2="2.47"/>
        <line class="cls-4" x1="28.26" y1="1.4" x2="28.55" y2="1.64"/>
        <line class="cls-4" x1="28.06" y1="2.02" x2="28.43" y2="2.09"/>
        <line class="cls-4" x1="28.38" y1="2.73" x2="28.62" y2="2.44"/>
        <line class="cls-4" x1="28.93" y1="2.96" x2="28.93" y2="2.58"/>
      </g>
    </g>
  </g>
</svg>