<?xml version="1.0" encoding="UTF-8"?>
<svg id="_图层_2" data-name="图层 2" xmlns="http://www.w3.org/2000/svg" viewBox="0 0 43.51 35.03">
  <defs>
    <style>
      .cls-1 {
        fill: #f9eae8;
      }

      .cls-2 {
        fill: #050101;
      }

      .cls-3 {
        fill: #080707;
      }

      .cls-4 {
        fill: #626262;
      }

      .cls-5 {
        fill: #151716;
      }

      .cls-6 {
        fill: #f3c71e;
      }

      .cls-7 {
        fill: #e72c1f;
      }

      .cls-8 {
        fill: #121313;
      }

      .cls-9 {
        fill: #fdfdfb;
      }

      .cls-10 {
        fill: #f6faf8;
      }

      .cls-11 {
        fill: #de4c22;
      }

      .cls-12 {
        fill: #6fc7e6;
      }

      .cls-13 {
        fill: #7dcbe7;
      }

      .cls-14 {
        fill: #656464;
      }

      .cls-15 {
        fill: #191a1a;
      }

      .cls-16 {
        fill: #f9ece8;
      }

      .cls-17 {
        fill: #2b150d;
      }

      .cls-18 {
        fill: #fafcfb;
      }

      .cls-19 {
        fill: #eb6262;
      }

      .cls-20 {
        fill: #efea41;
      }

      .cls-21 {
        fill: #2d2211;
      }

      .cls-22 {
        fill: #e62d22;
      }

      .cls-23 {
        fill: #78c9d5;
      }

      .cls-24 {
        fill: #282010;
      }

      .cls-25 {
        fill: #e58121;
      }

      .cls-26 {
        fill: #0c0d0d;
      }

      .cls-27 {
        fill: #0e0f0f;
      }

      .cls-28 {
        fill: #e63627;
      }
    </style>
  </defs>
  <g id="Layer_1" data-name="Layer 1">
    <g>
      <path class="cls-6" d="M16.59,26.72c-.46,0-.93-.02-1.39-.02-.97-.21-1.99,0-2.95-.31-.37-.28-.43-.7-.52-1.11-.88-3.89-.27-7.55,1.86-10.91.98-1.54,2.29-2.8,3.93-3.66.37-.19.74-.39,1.07-.64,2.64-1,5.2-.77,7.71.44,5.42,3.06,7.16,9.18,5.99,14.87-.08.4-.13.85-.57,1.07-.51.19-1.03.14-1.55.14-3.24,0-6.49,0-9.73,0-1.29,0-2.57,0-3.85.14Z"/>
      <path class="cls-2" d="M16.59,26.72c.38-.46.89-.44,1.42-.45,4.62,0,9.25-.03,13.87-.04.45-.34.61-.83.78-1.33,1.53-4.7.09-9.26-3.97-12.63-.75-.62-1.53-1.21-2.46-1.55-2.45-1.17-4.97-1.22-7.54-.48-1.97.84-3.72,2-5.14,3.62-2.85,3.26-3.61,6.96-2.3,11.09.17.55.49,1,.99,1.3.65.01,1.31.04,1.96.03.41,0,.75.09,1,.42.06.68-.27.91-.93.91-3.14-.02-6.29-.02-9.43,0-.45,0-.92-.04-.94-.57-.03-.57.42-.74.93-.74,1.71,0,3.42,0,5.2,0-.82-2.31-1.12-4.58-.8-6.96.89-6.64,7.64-11.78,14.26-10.77,7.01,1.06,11.6,6.53,11.35,13.51-.04,1.23-.32,2.42-.7,3.58-.17.53-.11.69.45.65.27-.02.56.01.82.09.3.08.46.35.43.65-.03.28-.2.52-.54.54-.17.01-.35.02-.52.02-5.7,0-11.39,0-17.09,0-.63,0-1.13-.08-1.08-.88Z"/>
      <path class="cls-8" d="M19.22,28.83c2.69,0,5.37,0,8.06,0,.28,0,.56-.01.83.03.38.06.65.29.62.71-.03.35-.28.55-.63.59-.24.02-.49.02-.73.02-5.55,0-11.09,0-16.64,0-.17,0-.35,0-.52,0-.4-.02-.7-.22-.72-.61-.03-.46.3-.69.73-.71.45-.03.91-.02,1.36-.02,2.55,0,5.09,0,7.64,0Z"/>
      <path class="cls-3" d="M23.1,31.42c2.27,0,4.53,0,6.8,0,.47,0,1.1-.11,1.12.59.02.74-.59.72-1.13.72-4.53,0-9.07,0-13.6,0-.1,0-.21,0-.31,0-.45-.02-.86-.14-.87-.68,0-.59.44-.63.88-.63,2.37,0,4.74,0,7.11,0Z"/>
      <path class="cls-5" d="M21.45,35.03c-1.01,0-2.02,0-3.04,0-.52,0-.95-.16-.93-.73.02-.52.47-.62.93-.62,2.02,0,4.05,0,6.07,0,.43,0,.9.04.92.61.03.61-.42.72-.92.72-1.01,0-2.02,0-3.04,0h0Z"/>
      <path class="cls-20" d="M31.62,3.97c-.45-.68-1.07-.41-1.7-.4-.47,0-.73-.46-.34-.9.31-.34.53-.6.17-1.04-.22-.27-.06-.53.16-.73.24-.22.54-.21.76,0,.33.3.6.55,1.05.15.22-.2.47-.02.64.15.22.22.32.58.1.75-.5.39-.38.72-.18,1.21.18.45-.23.65-.67.81Z"/>
      <path class="cls-12" d="M41.21,10.34c.52.6,1.24.43,1.93.47.26.02.37.54.27.57-1.13.41.54,1.78-.73,2.08-.14.03-.38-.03-.48-.14-.3-.32-.56-.45-.97-.14-.23.17-.53.12-.73-.16-.18-.26-.25-.54.02-.74.44-.33.34-.65.12-1.07-.26-.49.15-.66.57-.86Z"/>
      <path class="cls-15" d="M33,30.18c-.56,0-1.12,0-1.67,0-.44,0-.77-.2-.78-.66,0-.4.28-.66.67-.67,1.19-.03,2.37-.03,3.56,0,.37,0,.69.23.68.66-.01.46-.33.66-.77.67-.56,0-1.12,0-1.67,0Z"/>
      <path class="cls-19" d="M10.14.7c.33.2.53.08.66-.3.12-.34.4-.47.75-.37.37.11.51.38.39.72-.14.4-.1.67.35.78.03,0,.06.03.09.05.3.23.38.68.15.81-.68.38-1.43.69-2.18.89-.25.07-.53-.35-.36-.7.2-.44.02-.62-.35-.79-.32-.15-.47-.43-.31-.77.15-.33.44-.43.82-.32Z"/>
      <path class="cls-13" d="M5.17,3.92c-.04.85-.84,1.68-1.55,1.62-.76-.07-1.63-.81-1.63-1.39,0-.59.98-1.72,1.48-1.71.71.01,1.73.9,1.7,1.48Z"/>
      <path class="cls-22" d="M43.39,4.62c.04.47-.99,1.73-1.45,1.76-.65.05-1.73-.76-1.82-1.38-.07-.47.99-1.82,1.45-1.84.55-.02,1.77.96,1.82,1.45Z"/>
      <path class="cls-27" d="M38.9,27.59c-.35,0-.7,0-1.04,0-.38,0-.7-.13-.73-.57-.03-.48.3-.7.71-.72.66-.04,1.32-.03,1.98,0,.43.02.74.23.72.71-.02.51-.39.59-.81.59-.28,0-.56,0-.83,0Z"/>
      <path class="cls-26" d="M11.55,31.42c.24,0,.48,0,.73,0,.47,0,.96.03.93.67-.02.52-.43.65-.89.65-.52,0-1.04,0-1.55,0-.45,0-.85-.13-.88-.66-.03-.57.39-.65.84-.66.28,0,.55,0,.83,0Z"/>
      <path class="cls-7" d="M9.2,10c-.45.68-1.22.84-1.63.9-.72.1-.69-1.01-.79-1.42-.16-.67.99-.67,1.41-.77.76-.18.06,1.19,1.01,1.29Z"/>
      <path class="cls-14" d="M7.37,17.02c-.06.55-.39.85-.96.85-.59,0-.9-.41-.89-.94.01-.54.38-.91.95-.88.55.03.87.37.89.97Z"/>
      <path class="cls-23" d="M0,13.89c.02-.66.35-1.07,1.03-1.05.66.02,1.12.33,1.1,1.1-.02.69-.43,1.08-1.03,1.08C.44,15.03-.02,14.64,0,13.89Z"/>
      <path class="cls-4" d="M37.58,15.12c-.56-.07-.92-.35-.92-.93,0-.59.36-.91.92-.9.52,0,.83.32.86.86.03.6-.31.88-.86.98Z"/>
      <path class="cls-28" d="M42.49,20.28c-.68-.05-1.09-.42-1.09-1.06,0-.64.39-1.05,1.05-1.06.66,0,1.05.39,1.06,1.04,0,.66-.4,1.01-1.02,1.07Z"/>
      <path class="cls-9" d="M12.23,26.24c-.71.25-.89-.25-1.09-.76-2.44-6.29,1.02-13.28,7.55-15.25-.97.78-2.17,1.21-3.06,2.11-3.72,3.76-4.65,8.24-3.54,13.28.05.2.1.41.14.61Z"/>
      <path class="cls-25" d="M26.23,10.71c2.02.52,3.51,1.84,4.74,3.41,2.67,3.42,3.25,7.23,1.78,11.32-.14.39-.18.97-.87.78.23-1.44.49-2.87.46-4.34-.09-4.72-1.86-8.5-5.98-11.02-.06-.03-.09-.1-.13-.16Z"/>
      <path class="cls-17" d="M21.01,21.53c-.38-.22-.74-.53-.62-.96.13-.48.64-.19.98-.25.2-.04.42-.05.62,0,.42.11,1.15-.33,1.22.3.07.58-.46,1.04-1.14,1.1-.24-.71-.68-.31-1.07-.18Z"/>
      <path class="cls-11" d="M21.01,21.53c.18-.75.8-.62,1.21-.45.57.23-.06.42-.14.64-.43.34-.74.03-1.07-.18Z"/>
      <path class="cls-24" d="M19.39,20.2c-.02.3-.15.55-.47.57-.35.02-.59-.2-.6-.55,0-.3.2-.49.53-.5.33-.02.49.17.54.48Z"/>
      <path class="cls-21" d="M25.28,20.21c-.02.29-.16.53-.47.56-.37.04-.59-.21-.61-.54-.01-.29.19-.5.52-.51.33-.01.5.17.55.49Z"/>
      <path class="cls-18" d="M4.22,3.97c-.03.51-.26.71-.68.69-.37-.02-.57-.22-.58-.59-.01-.42.19-.65.62-.66.43,0,.62.24.64.56Z"/>
      <path class="cls-16" d="M41.71,4.07c.42.05.72.26.72.71,0,.38-.21.67-.62.69-.46.02-.72-.25-.73-.69-.02-.4.23-.63.63-.71Z"/>
      <path class="cls-10" d="M1.1,13.32c.3.13.59.29.57.66-.02.38-.28.54-.64.52-.36-.02-.6-.22-.56-.59.04-.35.29-.52.63-.58Z"/>
      <path class="cls-1" d="M42.48,19.86c-.39-.05-.68-.26-.67-.65,0-.38.28-.65.67-.64.34,0,.58.23.61.59.03.41-.22.63-.61.7Z"/>
    </g>
  </g>
</svg>