<?xml version="1.0" encoding="UTF-8"?>
<svg id="_图层_2" data-name="图层 2" xmlns="http://www.w3.org/2000/svg" viewBox="0 0 30.75 34.7">
  <defs>
    <style>
      .cls-1 {
        fill: #6fa659;
      }

      .cls-2 {
        fill: #eeea41;
      }

      .cls-3 {
        fill: #f7fafa;
      }

      .cls-4 {
        fill: #040000;
      }

      .cls-5 {
        fill: #080707;
      }

      .cls-6 {
        fill: #0e0305;
      }

      .cls-7 {
        fill: #4a8b38;
      }

      .cls-8 {
        fill: #f2f8f7;
      }

      .cls-9 {
        fill: #e6392c;
      }

      .cls-10 {
        fill: #e73226;
      }

      .cls-11 {
        fill: #eb6362;
      }

      .cls-12 {
        fill: #f7ddd9;
      }

      .cls-13 {
        fill: #ec8f1c;
      }

      .cls-14 {
        fill: #eea016;
      }

      .cls-15 {
        fill: #676666;
      }

      .cls-16 {
        fill: #efc41d;
      }

      .cls-17 {
        fill: #e73124;
      }

      .cls-18 {
        fill: #0b0c0c;
      }

      .cls-19 {
        fill: #70c7e6;
      }

      .cls-20 {
        fill: #070302;
      }

      .cls-21 {
        fill: #6fa65b;
      }

      .cls-22 {
        fill: #f0a215;
      }

      .cls-23 {
        fill: #060303;
      }

      .cls-24 {
        fill: #7ecbe6;
      }

      .cls-25 {
        fill: #5a953c;
      }

      .cls-26 {
        fill: #80cbd5;
      }

      .cls-27 {
        fill: #f8e8e5;
      }

      .cls-28 {
        fill: #ee9a1a;
      }

      .cls-29 {
        fill: #616161;
      }

      .cls-30 {
        fill: #060201;
      }

      .cls-31 {
        fill: #080808;
      }

      .cls-32 {
        fill: #d9d3c3;
      }
    </style>
  </defs>
  <g id="Layer_1" data-name="Layer 1">
    <g>
      <g>
        <path class="cls-23" d="M14.41,33.67c2.47,0,4.94,0,7.41,0,.37,0,.86-.1.89.47.03.64-.49.55-.9.55-4.91,0-9.82,0-14.73,0-.38,0-.87.09-.89-.47-.02-.61.48-.55.9-.55,2.44,0,4.88,0,7.32,0Z"/>
        <path class="cls-31" d="M28.58,34.7c-.44,0-.89,0-1.33,0-.37,0-.71-.08-.72-.5,0-.47.36-.54.76-.54.91.01,1.83.01,2.74,0,.38,0,.7.09.72.5.02.42-.29.54-.68.54-.5-.01-1,0-1.5,0Z"/>
        <path class="cls-2" d="M22.36,2.73c-.35-.37-.78-.29-1.23-.24-.23.02-.43-.39-.29-.46.68-.34-.39-1.43.61-1.46.35-.01.74.34,1.17.13.02,0,.06,0,.08.02.18.1.38.38.26.44-.67.35.32,1.3-.61,1.57Z"/>
        <path class="cls-19" d="M29.09,7.31c.35.45.81.23,1.26.24.2,0,.39.34.27.42-.63.38.33,1.36-.53,1.48-.37.05-.81-.36-1.31-.16-.15.06-.37-.35-.26-.41.66-.36-.29-1.26.58-1.57Z"/>
        <path class="cls-11" d="M7.63,2.34c-.33,0-.55-.16-.5-.25.37-.65-.88-.96-.39-1.43.31-.3.91-.4,1.37-.64.14-.08.4.17.34.25-.49.67.96.87.38,1.42-.33.32-1.05.09-1.2.65Z"/>
        <path class="cls-5" d="M3.37,33.67c.33,0,.66,0,1,0,.34,0,.54.19.55.49.01.31-.17.52-.51.53-.72,0-1.44,0-2.16,0-.33,0-.55-.17-.55-.49,0-.36.24-.53.6-.53.36,0,.72,0,1.08,0Z"/>
        <path class="cls-24" d="M3.59,2.86c0,.75-.38,1.06-1.04,1.07-.64,0-1-.46-.95-1.2.05-.68.31-1,1.11-.96.87.05.74.61.89,1.09Z"/>
        <path class="cls-10" d="M30.63,3.27c-.01.58-.63,1.24-1.13,1.19-.61-.07-1.05-.41-1.15-1.02-.07-.44.68-1.23,1.07-1.22.44.01,1.21.69,1.2,1.05Z"/>
        <path class="cls-18" d="M25.16,33.67c.17,0,.33,0,.5,0,.38-.01.67.11.66.55,0,.41-.31.48-.64.48-.39,0-.78,0-1.16,0-.37,0-.69-.11-.67-.54.02-.36.29-.5.64-.49.22,0,.44,0,.66,0Z"/>
        <path class="cls-17" d="M6.5,6.99c-.22.53-.78.58-1.06.65-.55.14-.54-.68-.62-.95-.14-.51.68-.51.97-.6.52-.15.07.84.71.89Z"/>
        <path class="cls-26" d="M1.62,9.83c-.1.48-.38.81-.85.76-.47-.05-.82-.34-.77-.89.05-.5.41-.71.86-.69.5.02.66.42.75.82Z"/>
        <path class="cls-15" d="M26.53,10.64c-.39-.06-.67-.27-.66-.68,0-.36.24-.61.62-.62.43,0,.67.24.67.66,0,.39-.26.58-.63.64Z"/>
        <path class="cls-29" d="M5.24,11.93c-.04.37-.21.62-.61.63-.39.01-.63-.17-.65-.57-.02-.43.2-.67.63-.68.4,0,.57.26.63.62Z"/>
        <path class="cls-9" d="M30.74,13.51c-.07.54-.37.81-.83.78-.47-.03-.75-.36-.71-.84.04-.44.32-.69.78-.68.5,0,.72.32.76.74Z"/>
        <path class="cls-3" d="M2.61,2.36c.3.06.41.25.39.53-.03.29-.19.46-.49.41-.25-.04-.36-.23-.35-.47.01-.28.15-.45.45-.46Z"/>
        <path class="cls-27" d="M29.97,3.28c-.01.33-.17.51-.45.55-.29.04-.48-.14-.53-.41-.05-.34.15-.52.47-.55.31-.03.41.22.5.42Z"/>
        <path class="cls-8" d="M1.16,9.83c0,.24-.14.34-.36.33-.25,0-.44-.13-.38-.4.04-.21.19-.41.46-.36.21.04.31.2.29.42Z"/>
        <path class="cls-12" d="M30.41,13.49c-.04.27-.17.46-.42.47-.29.02-.47-.18-.46-.46,0-.25.2-.4.45-.4.25,0,.38.18.44.39Z"/>
      </g>
      <g>
        <path class="cls-16" d="M12.87,31.16c-.08-.11-.22-.12-.33-.17-1.18-.55-2.1-1.4-2.74-2.53-.49-.87-.76-1.81-.78-2.81-.04-2.66-.02-5.32-.01-7.98,0-1.21.25-2.38.79-3.47.24-.47.5-.93.83-1.35.07-.15.19-.25.29-.37.06-.07.12-.15.17-.23.12-.15.29-.25.44-.37,1.1-.86,2.34-1.4,3.71-1.65.67-.13,1.34-.17,2.02-.13,1.65.1,3.16.61,4.51,1.57.35.25.68.5.98.81.05.05.11.1.14.17.31.51.67.98.93,1.53.38.78.62,1.6.72,2.46.04.3.06.61.06.91,0,2.66,0,5.32,0,7.98,0,1.44-.49,2.73-1.41,3.84-.58.71-1.31,1.23-2.13,1.65-.25.13-.49.16-.75.16-2.36,0-4.72,0-7.08,0-.08,0-.16,0-.24.01-.04,0-.09.01-.12-.03Z"/>
        <path class="cls-25" d="M13.56,10.06c-.02-.08-.1-.12-.15-.17-.65-.58-1.17-1.27-1.52-2.07-.37-.86-.48-1.75-.37-2.68.07-.56.2-1.1.43-1.62.02-.04.03-.1.09-.11.23.05.46.07.69.13.55.13,1.05.37,1.56.6.41.19.74.47,1.08.76.05.04.1.1.14.15.05.08.12.11.21.11.01.13.09.23.16.33.36.5.64,1.05.83,1.63.03.09.08.16.13.23.03.35.13.7.17,1.05.04.28.02.57.03.86,0,.12.04.17.15.18.07,0,.15,0,.22,0,.06,0,.12,0,.14.07-.13.08-.28.05-.42.04-.49-.05-.98,0-1.47.05-.68.07-1.34.23-1.98.46-.04.01-.08.05-.12,0Z"/>
        <path class="cls-21" d="M17.55,9.51c-.15-.07-.31-.01-.46-.05-.1-.02-.1-.06-.1-.14.01-.47,0-.94-.11-1.41-.05-.19-.1-.39-.07-.59-.04-.04-.02-.09,0-.14.31-.87.74-1.66,1.41-2.31.04-.04.08-.08.12-.11.08-.06.15-.13.16-.23.06.04.1.06.17,0,.73-.56,1.54-.91,2.45-1.07.53-.09.43-.14.61.37.41,1.12.48,2.26.16,3.41-.23.8-.65,1.49-1.2,2.12-.19.22-.39.42-.61.6-.05.04-.08.08-.02.14-.03.04-.06.02-.09,0-.43-.2-.9-.29-1.36-.4-.06-.01-.11-.03-.17-.05-.1-.04-.21-.05-.32-.05-.02,0-.03,0-.05,0-.15-.04-.3-.05-.46-.05-.03,0-.05-.01-.06-.04Z"/>
        <path class="cls-4" d="M12.87,31.16s.07,0,.11,0c.04,0,.09,0,.13,0,2.5,0,5,.02,7.5,0,1.18-.01,2.25-.38,3.15-1.18.85-.76,1.35-1.7,1.53-2.82.03-.19.05-.39.05-.59,0-1.34,0-2.69,0-4.03,0-.09,0-.18.02-.26.05-.15.17-.24.31-.23.28.05.35.14.35.43,0,1.34.02,2.69,0,4.03-.04,1.95-.9,3.46-2.53,4.51-.83.54-1.77.8-2.76.8-2.63,0-5.25.03-7.88,0-2.19-.03-3.79-1.1-4.78-3.04-.36-.7-.52-1.47-.52-2.26,0-2.61,0-5.21,0-7.82,0-.58.06-1.15.17-1.72.04-.19.19-.31.35-.29.19.03.3.18.27.39-.05.32-.11.64-.13.97-.03.36-.03.73-.03,1.1,0,2.42,0,4.85,0,7.27,0,1.73.75,3.1,2.2,4.05.75.49,1.59.74,2.49.72Z"/>
        <path class="cls-28" d="M25.67,22.03c-.22.08-.3.18-.3.43,0,1.32,0,2.64,0,3.95,0,1.67-.71,2.99-2.07,3.94-.75.53-1.6.8-2.53.8-2.56,0-5.11,0-7.67,0-.04,0-.09.01-.13-.01.05,0,.1-.01.15-.01,2.38,0,4.76,0,7.14,0,.34,0,.63-.08.92-.23.63-.34,1.22-.74,1.71-1.27.36-.38.66-.79.91-1.25.32-.57.53-1.17.65-1.81.06-.33.1-.67.1-1.01,0-2.68,0-5.36,0-8.04,0-.81-.14-1.6-.39-2.37-.24-.73-.59-1.41-1.03-2.04-.11-.16-.2-.32-.29-.48.07,0,.11.05.15.09.56.54,1,1.17,1.38,1.84.37.67.64,1.37.82,2.1.11.46.19.92.22,1.39.01.2.03.39.02.59,0,.16.05.28.2.34.03.01.05.03.06.06,0,.12-.08.24.06.33,0,.01-.01.03-.03.03-.26.06-.3.25-.29.48,0,.34.01.67,0,1.01,0,.26,0,.5.25.66,0,.15,0,.31,0,.46Z"/>
        <path class="cls-4" d="M25.68,19.06c-.24-.07-.31-.17-.31-.42-.01-2-.68-3.77-1.91-5.33-.19-.24-.39-.47-.63-.66-.41-.46-.9-.83-1.42-1.17-.96-.62-2-1.02-3.12-1.22-1.08-.19-2.16-.18-3.24.04-1.48.3-2.78.96-3.92,1.93-.01.01-.03.03-.04.04-.43.45-.89.86-1.25,1.37-.16.18-.27.39-.4.58-.15.2-.42.19-.54-.02-.08-.14-.03-.26.04-.39.41-.65.9-1.25,1.46-1.78.9-.86,1.92-1.51,3.08-1.95.03-.01.05-.02.08-.04.88-.33,1.79-.51,2.74-.56.42-.02.84.02,1.26.01.02,0,.04,0,.06,0,.16.02.32.02.48.05,0,0,.02,0,.03,0,.11.02.22.03.33.06.55.12,1.1.24,1.62.47.93.35,1.77.84,2.54,1.46,1.18.96,2.07,2.14,2.68,3.53.5,1.15.74,2.36.75,3.61,0,.22-.09.32-.34.37Z"/>
        <path class="cls-7" d="M18.5,4.53c.01.06.04.11-.04.18-.69.58-1.16,1.3-1.48,2.14-.06.15-.14.3-.17.47-.08,0-.1-.06-.11-.12-.19-.63-.49-1.21-.88-1.74-.07-.09-.18-.17-.11-.31-.02-.08.05-.13.09-.18.3-.33.62-.63.97-.91.06-.05.14-.02.19-.07.21-.17.44-.29.67-.42.09-.05.14,0,.19.06.26.27.49.57.68.9Z"/>
        <path class="cls-1" d="M16.96,3.99c-.16.1-.3.22-.44.34-.29.25-.57.51-.8.82-.09.09-.15.03-.2-.04-.29-.36-.65-.65-1.05-.87-.66-.36-1.35-.65-2.1-.78-.11-.02-.23.02-.32-.07.29-.01.57.07.85.14.48.12.94.31,1.38.56.09.05.12.02.15-.06.11-.27.24-.54.39-.79.06-.1.13-.14.25-.1.62.17,1.19.44,1.71.8.06.04.12.06.19.04Z"/>
        <path class="cls-20" d="M25.66,21.57c-.22-.07-.3-.23-.3-.45,0-.45,0-.9,0-1.34,0-.25.12-.37.36-.38.21.06.28.15.29.37,0,.46,0,.91,0,1.37,0,.3-.07.39-.36.44Z"/>
        <path class="cls-4" d="M7.97,15.95c.03-.15.1-.32.16-.49.09-.24.19-.49.31-.72.09-.18.26-.23.42-.15.16.08.23.25.15.42-.16.36-.3.72-.44,1.09-.05.14-.21.21-.35.18-.14-.03-.25-.17-.25-.34Z"/>
        <path class="cls-32" d="M9.84,13.65c.18-.3.42-.55.65-.81.19-.2.37-.41.6-.56-.13.21-.3.39-.48.57-.05-.08-.07,0-.09.02-.22.21-.4.46-.59.69-.03.03-.05.08-.1.09Z"/>
        <path class="cls-30" d="M16.78,23.22c.35,0,.71,0,1.06,0,.27,0,.37.12.28.39-.19.57-.57.92-1.17,1.01-.68.1-1.37-.37-1.54-1.03-.06-.25.02-.37.28-.37.36,0,.72,0,1.08,0Z"/>
        <path class="cls-6" d="M20.28,22.06c0,.37-.3.65-.66.65-.35,0-.64-.3-.64-.66,0-.36.31-.66.67-.65.35,0,.64.31.64.66Z"/>
        <path class="cls-6" d="M13.93,21.41c.37,0,.66.29.65.66,0,.35-.3.64-.66.64-.36,0-.64-.29-.64-.65,0-.36.28-.64.65-.64Z"/>
        <path class="cls-22" d="M20.41,23.61c.35,0,.66.33.63.66-.03.39-.27.62-.66.64-.35.01-.64-.31-.63-.68,0-.35.27-.62.66-.62Z"/>
        <path class="cls-14" d="M13.17,23.61c.36,0,.65.29.64.63-.01.43-.27.67-.65.67-.39,0-.62-.26-.64-.65-.02-.34.31-.65.65-.64Z"/>
        <path class="cls-25" d="M18.08,9.57c-.16,0-.32-.02-.48-.05.16-.01.32,0,.48.05Z"/>
        <path class="cls-25" d="M18.44,9.62c-.11,0-.22-.02-.33-.06.11,0,.22,0,.33.06Z"/>
        <path class="cls-13" d="M16.77,24.38c-.22-.02-.44-.03-.63-.15-.18-.12-.19-.26,0-.38.26-.15.54-.17.83-.14.16.02.32.05.46.14.17.12.17.26,0,.37-.2.13-.43.13-.65.15Z"/>
      </g>
    </g>
  </g>
</svg>