<?xml version="1.0" encoding="UTF-8"?>
<svg id="_图层_2" data-name="图层 2" xmlns="http://www.w3.org/2000/svg" viewBox="0 0 30.15 21.77">
  <defs>
    <style>
      .cls-1 {
        fill: #e57f23;
      }

      .cls-2 {
        fill: #e07d1d;
      }

      .cls-3, .cls-4, .cls-5, .cls-6, .cls-7, .cls-8, .cls-9, .cls-10, .cls-11, .cls-12 {
        fill: none;
      }

      .cls-3, .cls-4, .cls-5, .cls-6, .cls-7, .cls-9, .cls-11, .cls-12 {
        stroke-linecap: round;
      }

      .cls-3, .cls-4, .cls-7 {
        stroke: #231815;
      }

      .cls-3, .cls-5, .cls-7, .cls-8, .cls-9, .cls-10, .cls-11, .cls-12 {
        stroke-miterlimit: 10;
      }

      .cls-3, .cls-6, .cls-8, .cls-12 {
        stroke-width: .16px;
      }

      .cls-4, .cls-6 {
        stroke-linejoin: round;
      }

      .cls-4, .cls-7 {
        stroke-width: .49px;
      }

      .cls-13 {
        fill: #dc441e;
      }

      .cls-5 {
        stroke: #e99214;
      }

      .cls-5, .cls-9, .cls-10, .cls-11 {
        stroke-width: .33px;
      }

      .cls-14 {
        fill: #e99214;
      }

      .cls-15 {
        fill: #231815;
      }

      .cls-6 {
        stroke: #0f63a1;
      }

      .cls-16 {
        fill: #a7cbd9;
      }

      .cls-17 {
        fill: #e7cb2b;
      }

      .cls-8 {
        stroke: #3db0b3;
      }

      .cls-9 {
        stroke: #4fae7a;
      }

      .cls-10 {
        stroke: #d1d622;
      }

      .cls-18 {
        fill: #4aa3d4;
      }

      .cls-11 {
        stroke: #0c68ab;
      }

      .cls-19 {
        fill: #eef6fc;
      }

      .cls-20 {
        fill: #cc8216;
      }

      .cls-12 {
        stroke: #29a2d0;
      }
    </style>
  </defs>
  <g id="Layer_1" data-name="Layer 1">
    <g>
      <g>
        <line class="cls-4" x1="24.65" y1="21.52" x2="27.56" y2="21.52"/>
        <line class="cls-4" x1="5.45" y1="21.52" x2="23.63" y2="21.52"/>
        <line class="cls-4" x1="3.94" y1="21.52" x2="4.69" y2="21.52"/>
        <line class="cls-4" x1=".24" y1="21.52" x2="3.21" y2="21.52"/>
      </g>
      <g>
        <line class="cls-6" x1="29.79" y1="12.88" x2="29.79" y2="12.98"/>
        <line class="cls-6" x1="29.9" y1="13.19" x2="29.9" y2="13.29"/>
        <line class="cls-6" x1="29.63" y1="13.13" x2="29.73" y2="13.13"/>
        <line class="cls-6" x1="29.96" y1="13.03" x2="30.06" y2="13.03"/>
      </g>
      <g>
        <line class="cls-6" x1="7.26" y1=".08" x2="7.26" y2=".18"/>
        <line class="cls-6" x1="7.37" y1=".39" x2="7.37" y2=".49"/>
        <line class="cls-6" x1="7.1" y1=".34" x2="7.2" y2=".34"/>
        <line class="cls-6" x1="7.43" y1=".23" x2="7.53" y2=".23"/>
      </g>
      <path class="cls-1" d="M4.54,4.81c0,.12-.1.22-.22.22s-.22-.1-.22-.22.1-.22.22-.22.22.1.22.22Z"/>
      <path class="cls-10" d="M29.03,11.56c0,.13-.11.23-.23.23s-.23-.11-.23-.23.11-.23.23-.23.23.11.23.23Z"/>
      <g>
        <line class="cls-11" x1="3.63" y1="1.74" x2="4.1" y2="1.74"/>
        <line class="cls-11" x1="3.86" y1="1.98" x2="3.86" y2="1.5"/>
      </g>
      <g>
        <line class="cls-11" x1="27.1" y1="17.45" x2="27.58" y2="17.45"/>
        <line class="cls-11" x1="27.34" y1="17.69" x2="27.34" y2="17.21"/>
      </g>
      <g>
        <line class="cls-5" x1="24.91" y1="16.21" x2="24.91" y2="16.44"/>
        <line class="cls-5" x1="25.35" y1="16.4" x2="25.18" y2="16.54"/>
        <line class="cls-5" x1="25.47" y1="16.77" x2="25.25" y2="16.81"/>
        <line class="cls-5" x1="25.28" y1="17.2" x2="25.13" y2="17.03"/>
        <line class="cls-5" x1="24.48" y1="16.38" x2="24.65" y2="16.52"/>
        <line class="cls-5" x1="24.36" y1="16.75" x2="24.58" y2="16.79"/>
        <line class="cls-5" x1="24.55" y1="17.18" x2="24.7" y2="17.01"/>
        <line class="cls-5" x1="24.89" y1="17.32" x2="24.89" y2="17.09"/>
      </g>
      <g>
        <line class="cls-9" x1="10.28" y1="1.34" x2="10.61" y2="1.32"/>
        <line class="cls-9" x1="10.59" y1="1.82" x2="10.74" y2="1.51"/>
        <line class="cls-9" x1="11.16" y1="1.78" x2="10.97" y2="1.5"/>
        <line class="cls-9" x1="11.41" y1="1.27" x2="11.08" y2="1.3"/>
        <line class="cls-9" x1="11.1" y1=".79" x2="10.95" y2="1.1"/>
        <line class="cls-9" x1="10.53" y1=".83" x2="10.72" y2="1.11"/>
      </g>
      <path class="cls-8" d="M8.32,2.99c0,.1-.09.19-.19.19s-.19-.08-.19-.19.08-.19.19-.19.19.08.19.19Z"/>
      <path class="cls-12" d="M27.88,14.69c-.1.21-.31.35-.56.35-.34,0-.62-.28-.62-.62s.28-.62.62-.62.61.27.62.6"/>
      <path class="cls-13" d="M5.91,2.37c0,.18-.14.32-.32.32s-.32-.14-.32-.32.14-.32.32-.32.32.14.32.32Z"/>
      <circle class="cls-17" cx="19.56" cy="8.02" r="7.44"/>
      <path class="cls-15" d="M18.26,7.36c0,.21-.17.39-.39.39s-.39-.17-.39-.39.17-.39.39-.39.39.17.39.39Z"/>
      <path class="cls-15" d="M21.27,7.32c0,.21-.17.39-.39.39s-.39-.17-.39-.39.17-.39.39-.39.39.17.39.39Z"/>
      <path class="cls-2" d="M18.78.53s10.76,5.2,2.68,13.57l.46.35,2.82-2.47.89-3.97-.03-2.05-2.57-3.63-4.25-1.82Z"/>
      <path class="cls-7" d="M14.78,1.42c1.02-.53,2.19-.83,3.42-.83,4.11,0,7.44,3.33,7.44,7.44s-3.33,7.44-7.44,7.44-7.44-3.33-7.44-7.44c0-1.85.68-3.54,1.79-4.84"/>
      <path class="cls-7" d="M13.16,2.61c.24-.28.8-.7.87-.74"/>
      <path class="cls-19" d="M5.23,20.28s-4.38-.05-4.28-4.61c0,0,.09-2.39,2.55-3.25,0,0-.22-5.48,5.47-6.01,0,0,2.96-.28,5.26,2.6,0,0,4.66-1.46,5.04,3.52,0,0,3.03,1.14,2.38,4.17,0,0-.38,3.2-4.01,3.52l-12.41.05Z"/>
      <path class="cls-3" d="M18.62,7.97s.82,1.1,1.63-.03"/>
      <path class="cls-20" d="M17.4,8.31c0,.1-.08.19-.19.19s-.19-.08-.19-.19.08-.19.19-.19.19.08.19.19Z"/>
      <circle class="cls-20" cx="21.65" cy="8.31" r=".19"/>
      <path class="cls-18" d="M15.05,9.17s3.62.05,3.1,3.74c0,0,5.23,1.96.42,6.88l1.35-.22,1.76-2.25.03-2.74-2.22-2.09-.65-1.87-1.33-1.57-1.54-.22-.92.33Z"/>
      <path class="cls-7" d="M7.56,6.66c.44-.13.93-.23,1.47-.28,0,0,2.96-.28,5.26,2.6,0,0,4.66-1.46,5.04,3.52,0,0,2.47.93,2.48,3.33"/>
      <path class="cls-7" d="M5.83,7.48c.38-.34.78-.48,1.01-.56"/>
      <path class="cls-7" d="M1.08,15.18c.16-.74.7-2.16,2.48-2.78,0,0-.11-2.64,1.73-4.43"/>
      <path class="cls-7" d="M20.49,19.02c-.6.58-1.48,1.06-2.79,1.18l-12.41.05s-3.74-.04-4.23-3.65"/>
      <path class="cls-7" d="M21.72,16.62c-.06.23-.33,1.23-.79,1.87"/>
      <path class="cls-15" d="M9.78,14.37c0,.21-.17.39-.39.39s-.39-.17-.39-.39.17-.39.39-.39.39.17.39.39Z"/>
      <circle class="cls-15" cx="12.94" cy="14.37" r=".39"/>
      <path class="cls-15" d="M12.01,14.8c.12,0,.22.12.19.24-.11.34-.45.66-1,.66s-.89-.32-1-.66c-.04-.12.06-.24.19-.24h1.62Z"/>
      <path class="cls-14" d="M11.53,15.49c0,.11-.14.13-.31.13s-.31-.02-.31-.13.14-.19.31-.19.31.09.31.19Z"/>
      <path class="cls-16" d="M9,15.57c0,.16-.13.3-.3.3s-.3-.13-.3-.3.13-.3.3-.3.3.13.3.3Z"/>
      <path class="cls-16" d="M13.99,15.57c0,.16-.13.3-.3.3s-.3-.13-.3-.3.13-.3.3-.3.3.13.3.3Z"/>
    </g>
  </g>
</svg>