<?xml version="1.0" encoding="UTF-8"?>
<svg id="_图层_2" data-name="图层 2" xmlns="http://www.w3.org/2000/svg" viewBox="0 0 36.17 27.18">
  <defs>
    <style>
      .cls-1 {
        fill: #e57f23;
      }

      .cls-2 {
        stroke: #e99214;
      }

      .cls-2, .cls-3, .cls-4, .cls-5, .cls-6, .cls-7, .cls-8, .cls-9, .cls-10, .cls-11, .cls-12, .cls-13 {
        fill: none;
      }

      .cls-2, .cls-3, .cls-4, .cls-14, .cls-6, .cls-8, .cls-9, .cls-10, .cls-11, .cls-12, .cls-13 {
        stroke-miterlimit: 10;
      }

      .cls-2, .cls-3, .cls-4, .cls-12, .cls-13 {
        stroke-width: .41px;
      }

      .cls-2, .cls-4, .cls-5, .cls-7, .cls-8, .cls-11, .cls-13 {
        stroke-linecap: round;
      }

      .cls-15 {
        fill: #fff;
      }

      .cls-16 {
        fill: #129a92;
      }

      .cls-17 {
        fill: #e57f21;
      }

      .cls-3 {
        stroke: #d1d622;
      }

      .cls-4 {
        stroke: #0c68ab;
      }

      .cls-18 {
        fill: #55a9d8;
      }

      .cls-5 {
        stroke: #0f63a1;
      }

      .cls-5, .cls-6, .cls-10 {
        stroke-width: .2px;
      }

      .cls-5, .cls-7 {
        stroke-linejoin: round;
      }

      .cls-14 {
        fill: #3a240f;
      }

      .cls-14, .cls-7, .cls-8, .cls-9, .cls-11 {
        stroke-width: .61px;
      }

      .cls-14, .cls-7, .cls-9, .cls-11 {
        stroke: #231815;
      }

      .cls-6 {
        stroke: #3db0b3;
      }

      .cls-8, .cls-10 {
        stroke: #fff;
      }

      .cls-19 {
        fill: #3d82bd;
      }

      .cls-20 {
        fill: #e8ca2d;
      }

      .cls-12 {
        stroke: #1e95d4;
      }

      .cls-13 {
        stroke: #4fae7a;
      }
    </style>
  </defs>
  <g id="Layer_1" data-name="Layer 1">
    <g>
      <g>
        <line class="cls-7" x1="32.07" y1="26.88" x2="35.86" y2="26.88"/>
        <line class="cls-7" x1="7.08" y1="26.88" x2="30.74" y2="26.88"/>
        <line class="cls-7" x1="5.11" y1="26.88" x2="6.09" y2="26.88"/>
        <line class="cls-7" x1=".3" y1="26.88" x2="4.16" y2="26.88"/>
      </g>
      <g>
        <line class="cls-5" x1="6.61" y1="13.4" x2="6.61" y2="13.52"/>
        <line class="cls-5" x1="6.75" y1="13.78" x2="6.75" y2="13.9"/>
        <line class="cls-5" x1="6.41" y1="13.71" x2="6.53" y2="13.71"/>
        <line class="cls-5" x1="6.82" y1="13.59" x2="6.95" y2="13.59"/>
      </g>
      <circle class="cls-1" cx="9.98" cy="16.1" r=".27"/>
      <path class="cls-1" d="M28.4,16.53c0,.15-.12.27-.27.27s-.27-.12-.27-.27.12-.27.27-.27.27.12.27.27Z"/>
      <circle class="cls-16" cx="26.86" cy="17.67" r=".22"/>
      <path class="cls-16" d="M12.23,18.57c0,.12-.1.22-.22.22s-.22-.1-.22-.22.1-.22.22-.22.22.1.22.22Z"/>
      <path class="cls-3" d="M30.55,18.05c0,.16-.13.29-.29.29s-.29-.13-.29-.29.13-.29.29-.29.29.13.29.29Z"/>
      <path class="cls-12" d="M22.97,13.16c0,.15-.12.27-.27.27s-.27-.12-.27-.27.12-.27.27-.27.27.12.27.27Z"/>
      <g>
        <line class="cls-4" x1="6.61" y1="19.14" x2="7.2" y2="19.14"/>
        <line class="cls-4" x1="6.91" y1="19.43" x2="6.91" y2="18.84"/>
      </g>
      <g>
        <line class="cls-2" x1="26.32" y1="14.36" x2="26.91" y2="14.36"/>
        <line class="cls-2" x1="26.61" y1="14.66" x2="26.61" y2="14.07"/>
      </g>
      <g>
        <line class="cls-2" x1="23.82" y1="16.21" x2="23.82" y2="16.5"/>
        <line class="cls-2" x1="24.37" y1="16.44" x2="24.15" y2="16.62"/>
        <line class="cls-2" x1="24.52" y1="16.91" x2="24.24" y2="16.96"/>
        <line class="cls-2" x1="24.28" y1="17.44" x2="24.1" y2="17.23"/>
        <line class="cls-2" x1="23.28" y1="16.42" x2="23.5" y2="16.6"/>
        <line class="cls-2" x1="23.13" y1="16.88" x2="23.41" y2="16.94"/>
        <line class="cls-2" x1="23.37" y1="17.42" x2="23.56" y2="17.2"/>
        <line class="cls-2" x1="23.79" y1="17.59" x2="23.79" y2="17.31"/>
      </g>
      <g>
        <line class="cls-13" x1="2.96" y1="16.77" x2="3.37" y2="16.74"/>
        <line class="cls-13" x1="3.35" y1="17.37" x2="3.53" y2="16.99"/>
        <line class="cls-13" x1="4.06" y1="17.33" x2="3.82" y2="16.98"/>
        <line class="cls-13" x1="4.37" y1="16.69" x2="3.96" y2="16.72"/>
        <line class="cls-13" x1="3.98" y1="16.09" x2="3.8" y2="16.47"/>
        <line class="cls-13" x1="3.27" y1="16.13" x2="3.51" y2="16.48"/>
      </g>
      <path class="cls-6" d="M11.45,12.69c0,.13-.11.24-.24.24s-.24-.11-.24-.24.11-.24.24-.24.24.11.24.24Z"/>
      <path class="cls-18" d="M17.34.25s-4.18,1.75-2.7,10.24c0,0-1.89,2.29-1.44,5.53l1.62-1.2,4.44.12,2,1.42s.67-3.5-1.35-5.78c0,0,1.75-8.4-2.56-10.32Z"/>
      <path class="cls-19" d="M16.6.74s2.75,2.54,1.48,9.95c0,0,1.44,1.77,1.44,4.4l.9.87.09-1.73-1.42-3.83.44-4.66-1.14-3.54-1.42-1.66-.36.2Z"/>
      <line class="cls-10" x1="14.5" y1="10.54" x2="20.18" y2="10.6"/>
      <path class="cls-7" d="M16.52.3s-4.07,1.75-2.62,10.24c0,0-1.79,2.36-1.36,5.6l1.84-1.36h4.16l1.88,1.18s.57-3.06-1.4-5.34c0,0,1.71-8.4-2.49-10.32Z"/>
      <polygon class="cls-14" points="14.82 14.84 14.9 16.07 18.11 16.09 18.11 14.84 14.82 14.84"/>
      <path class="cls-20" d="M15.75,16.73l-.05,2.1s-.37,3.24-1.67,4.5l.46.36c.05.11.14.18.25.21l4.67,2.4.94-3.77c.07-.12.06-.26-.02-.37-.38-.51-1.5-1.94-1.54-3.46l-.03-2.32h-2.99v.37Z"/>
      <polygon class="cls-17" points="17.63 16.3 17.55 20.74 16.91 24.85 18.88 25.81 19.78 22.47 18.27 19.83 18.19 16.32 17.63 16.3"/>
      <path class="cls-9" d="M14.92,16.46l-.02,2.1s-.23,2.59-1.4,3.91c-.09.1-.12.25-.06.37l.26.57c.05.11.14.18.25.21l4.67,2.4.97-3.37c.07-.12.06-.26-.02-.37-.38-.51-1.43-2.06-1.47-3.58l.02-2.6h-3.2l.02.37Z"/>
      <polygon class="cls-15" points="31.24 26.56 3.66 26.46 3.91 25.89 5.52 25.41 6.13 25.12 6.42 22.9 8.6 20.99 11.38 20.91 13.88 23.11 14.67 23.62 17 24.41 18.7 24.91 19.68 22.75 21.21 21.93 22.76 21.73 24.12 20.18 26.23 19.4 27.64 19.97 29.02 21.64 29.19 23.57 30.78 24.68 31.13 25.85 31.24 26.56"/>
      <path class="cls-11" d="M5.29,25.56c-.92-.4-1.47.52-1.47.52"/>
      <path class="cls-11" d="M6.08,25.03s-.13-3.81,3.9-4.27c0,0,2.24-.36,4.29,2.95,0,0,1.3-.31,2.6.54"/>
      <path class="cls-11" d="M18.69,24.85s.82-3.6,4.08-2.97c0,0,.94-2.3,3.62-2.37,0,0,3.33.21,2.72,4.15,0,0,2.14.13,2.09,2.53"/>
      <path class="cls-8" d="M15.42,3.61c-.32.97-.59,2.51-.51,4.36"/>
      <path class="cls-8" d="M15.85,2.5s-.04.08-.11.24"/>
    </g>
  </g>
</svg>