<?xml version="1.0" encoding="UTF-8"?>
<svg id="_图层_2" data-name="图层 2" xmlns="http://www.w3.org/2000/svg" viewBox="0 0 41.3 32.53">
  <defs>
    <style>
      .cls-1 {
        fill: #e57f23;
      }

      .cls-2 {
        fill: #129a92;
      }

      .cls-3 {
        stroke: #3db0b3;
      }

      .cls-3, .cls-4, .cls-5, .cls-6, .cls-7, .cls-8, .cls-9, .cls-10, .cls-11, .cls-12 {
        fill: none;
      }

      .cls-3, .cls-4, .cls-6, .cls-7, .cls-8, .cls-9, .cls-11, .cls-12 {
        stroke-miterlimit: 10;
      }

      .cls-3, .cls-5 {
        stroke-width: .24px;
      }

      .cls-4 {
        stroke: #eeb033;
      }

      .cls-4, .cls-7, .cls-8, .cls-9, .cls-11, .cls-12 {
        stroke-width: .49px;
      }

      .cls-5 {
        stroke: #0f63a1;
      }

      .cls-5, .cls-8, .cls-10, .cls-11, .cls-12 {
        stroke-linecap: round;
      }

      .cls-5, .cls-10 {
        stroke-linejoin: round;
      }

      .cls-13 {
        fill: #e57f21;
      }

      .cls-6, .cls-10 {
        stroke: #231815;
        stroke-width: .73px;
      }

      .cls-14 {
        fill: #231815;
      }

      .cls-7 {
        stroke: #d1d622;
      }

      .cls-15 {
        fill: #55a9d8;
      }

      .cls-8 {
        stroke: #0c68ab;
      }

      .cls-16 {
        fill: #3c81bc;
      }

      .cls-9 {
        stroke: #1e95d4;
      }

      .cls-17 {
        fill: #cf771a;
      }

      .cls-11 {
        stroke: #4fae7a;
      }

      .cls-12 {
        stroke: #e99214;
      }

      .cls-18 {
        fill: #e8ca2d;
      }
    </style>
  </defs>
  <g id="Layer_1" data-name="Layer 1">
    <g>
      <g>
        <line class="cls-10" x1="36.61" y1="32.17" x2="40.93" y2="32.17"/>
        <line class="cls-10" x1="8.1" y1="32.17" x2="35.09" y2="32.17"/>
        <line class="cls-10" x1="5.85" y1="32.17" x2="6.96" y2="32.17"/>
        <line class="cls-10" x1=".36" y1="32.17" x2="4.76" y2="32.17"/>
      </g>
      <g>
        <line class="cls-5" x1="6.08" y1="5.15" x2="6.08" y2="5.3"/>
        <line class="cls-5" x1="6.24" y1="5.6" x2="6.24" y2="5.75"/>
        <line class="cls-5" x1="5.84" y1="5.52" x2="5.99" y2="5.52"/>
        <line class="cls-5" x1="6.34" y1="5.37" x2="6.48" y2="5.37"/>
      </g>
      <path class="cls-1" d="M10.12,26.99c0,.18-.14.32-.32.32s-.32-.14-.32-.32.14-.32.32-.32.32.14.32.32Z"/>
      <circle class="cls-1" cx="40.35" cy="13.29" r=".32"/>
      <circle class="cls-2" cx=".45" cy="18.15" r=".26"/>
      <path class="cls-7" d="M32.93,24.76c0,.19-.16.35-.35.35s-.35-.16-.35-.35.16-.35.35-.35.35.16.35.35Z"/>
      <path class="cls-7" d="M11.21,4.39c0,.19-.16.35-.35.35s-.35-.16-.35-.35.16-.35.35-.35.35.16.35.35Z"/>
      <path class="cls-4" d="M2.46,24.3c0,.19-.16.35-.35.35s-.35-.16-.35-.35.16-.35.35-.35.35.16.35.35Z"/>
      <path class="cls-9" d="M36.43,11.33c0,.18-.14.32-.32.32s-.32-.14-.32-.32.14-.32.32-.32.32.14.32.32Z"/>
      <g>
        <line class="cls-8" x1="38.01" y1="19.36" x2="38.72" y2="19.36"/>
        <line class="cls-8" x1="38.36" y1="19.72" x2="38.36" y2="19.01"/>
      </g>
      <g>
        <line class="cls-12" x1="3.54" y1="12.54" x2="4.25" y2="12.54"/>
        <line class="cls-12" x1="3.9" y1="12.89" x2="3.9" y2="12.18"/>
      </g>
      <g>
        <line class="cls-12" x1="20.89" y1="1.98" x2="20.89" y2="2.32"/>
        <line class="cls-12" x1="21.54" y1="2.25" x2="21.28" y2="2.47"/>
        <line class="cls-12" x1="21.72" y1="2.81" x2="21.39" y2="2.87"/>
        <line class="cls-12" x1="21.43" y1="3.45" x2="21.22" y2="3.19"/>
        <line class="cls-12" x1="20.24" y1="2.22" x2="20.5" y2="2.44"/>
        <line class="cls-12" x1="20.06" y1="2.78" x2="20.4" y2="2.84"/>
        <line class="cls-12" x1="20.35" y1="3.42" x2="20.57" y2="3.16"/>
        <line class="cls-12" x1="20.85" y1="3.63" x2="20.85" y2="3.29"/>
      </g>
      <g>
        <line class="cls-11" x1="36.6" y1="6.1" x2="37.1" y2="6.06"/>
        <line class="cls-11" x1="37.07" y1="6.81" x2="37.28" y2="6.36"/>
        <line class="cls-11" x1="37.91" y1="6.76" x2="37.63" y2="6.34"/>
        <line class="cls-11" x1="38.28" y1="6" x2="37.79" y2="6.03"/>
        <line class="cls-11" x1="37.82" y1="5.28" x2="37.6" y2="5.74"/>
        <line class="cls-11" x1="36.98" y1="5.34" x2="37.26" y2="5.75"/>
      </g>
      <path class="cls-3" d="M.73,11.65c0,.16-.13.28-.28.28s-.28-.13-.28-.28.13-.28.28-.28.28.13.28.28Z"/>
      <circle class="cls-18" cx="20.88" cy="17.21" r="10.64"/>
      <path class="cls-13" d="M20.19,6.75s12.4,3.33,5.08,19.29l3.03-3.17,1.51-3.76-.15-4.3-1.86-4.1-3.51-2.98-4.1-.99Z"/>
      <circle class="cls-6" cx="19.25" cy="17.14" r="10.64" transform="translate(-4.31 6.69) rotate(-17.77)"/>
      <path class="cls-6" d="M27.28,10.3c4.03.5,6.77,2.04,7.21,4.29.74,3.77-5.53,8.17-14,9.82-8.47,1.65-15.93-.07-16.66-3.84-.46-2.34,1.66-4.89,5.43-6.9"/>
      <circle class="cls-13" cx="12.87" cy="19.42" r="2.18"/>
      <path class="cls-13" d="M19.87,22.38c0,.56-.45,1.01-1.01,1.01s-1.01-.45-1.01-1.01.45-1.01,1.01-1.01,1.01.45,1.01,1.01Z"/>
      <circle class="cls-13" cx="27.08" cy="18.82" r="1.42"/>
      <path class="cls-14" d="M15.58,14.36c0,.51-.42.93-.93.93s-.93-.42-.93-.93.42-.93.93-.93.93.42.93.93Z"/>
      <path class="cls-14" d="M25.35,11.56c0,.51-.42.93-.93.93s-.93-.42-.93-.93.42-.93.93-.93.93.42.93.93Z"/>
      <path class="cls-14" d="M23.22,13.35c.15-.05.32.11.32.31,0,.94-.91,2.26-2.35,2.74-1.44.48-2.95-.04-3.52-.79-.12-.16-.08-.38.07-.44l5.49-1.82Z"/>
      <path class="cls-17" d="M21.99,15.65c.1.23-.21.35-.58.52-.37.16-.67.31-.77.07-.1-.23.12-.56.49-.72s.76-.1.86.13Z"/>
      <circle class="cls-15" cx="29.35" cy="3.09" r="3.09" transform="translate(1.05 11.47) rotate(-22.5)"/>
      <path class="cls-16" d="M28.41.75s3.59,1.28,2.56,4.69c0,0,3.37-4.4-2.56-4.69Z"/>
      <circle class="cls-6" cx="28.8" cy="3.65" r="3.09" transform="translate(20.59 31.49) rotate(-80.78)"/>
    </g>
  </g>
</svg>