<?xml version="1.0" encoding="UTF-8"?>
<svg id="_图层_2" data-name="图层 2" xmlns="http://www.w3.org/2000/svg" viewBox="0 0 36.57 24.43">
  <defs>
    <style>
      .cls-1 {
        fill: #e57f23;
      }

      .cls-2 {
        fill: #975624;
      }

      .cls-2, .cls-3, .cls-4, .cls-5, .cls-6, .cls-7, .cls-8, .cls-9, .cls-10, .cls-11, .cls-12, .cls-13, .cls-14, .cls-15, .cls-16, .cls-17, .cls-18 {
        stroke-miterlimit: 10;
      }

      .cls-2, .cls-3, .cls-7, .cls-8, .cls-19, .cls-13, .cls-16, .cls-17, .cls-18 {
        stroke: #231815;
      }

      .cls-2, .cls-4, .cls-7, .cls-12, .cls-15, .cls-16 {
        stroke-width: .2px;
      }

      .cls-3 {
        fill: #fff;
      }

      .cls-3, .cls-5, .cls-6, .cls-8, .cls-9, .cls-10, .cls-11, .cls-14, .cls-17 {
        stroke-width: .41px;
      }

      .cls-4, .cls-5, .cls-6, .cls-7, .cls-8, .cls-9, .cls-10, .cls-11, .cls-12, .cls-19, .cls-13, .cls-14, .cls-15 {
        fill: none;
      }

      .cls-4, .cls-5, .cls-6, .cls-7, .cls-9, .cls-19, .cls-14 {
        stroke-linecap: round;
      }

      .cls-4, .cls-12 {
        stroke: #29a2d0;
      }

      .cls-20 {
        fill: #129a92;
      }

      .cls-5 {
        stroke: #cbe4f1;
      }

      .cls-6 {
        stroke: #4fae7a;
      }

      .cls-9 {
        stroke: #e99214;
      }

      .cls-10 {
        stroke: #d1d622;
      }

      .cls-11 {
        stroke: #1e95d4;
      }

      .cls-19 {
        stroke-linejoin: round;
      }

      .cls-19, .cls-13, .cls-18 {
        stroke-width: .61px;
      }

      .cls-21 {
        fill: #55a9d8;
      }

      .cls-14 {
        stroke: #0c68ab;
      }

      .cls-15 {
        stroke: #3db0b3;
      }

      .cls-16 {
        fill: #925524;
      }

      .cls-17 {
        fill: #e8ca2d;
      }

      .cls-22 {
        fill: #3d82bd;
      }

      .cls-18 {
        fill: #a94723;
      }
    </style>
  </defs>
  <g id="Layer_1" data-name="Layer 1">
    <g>
      <g>
        <line class="cls-19" x1="32.22" y1="24.13" x2="36.03" y2="24.13"/>
        <line class="cls-19" x1="7.12" y1="24.13" x2="30.88" y2="24.13"/>
        <line class="cls-19" x1="5.13" y1="24.13" x2="6.12" y2="24.13"/>
        <line class="cls-19" x1=".31" y1="24.13" x2="4.18" y2="24.13"/>
      </g>
      <circle class="cls-1" cx="30.3" cy="20.81" r=".27"/>
      <path class="cls-1" d="M5.53,19.86c0,.15-.12.27-.27.27s-.27-.12-.27-.27.12-.27.27-.27.27.12.27.27Z"/>
      <path class="cls-20" d="M5.17,13.98c0,.12-.1.22-.22.22s-.22-.1-.22-.22.1-.22.22-.22.22.1.22.22Z"/>
      <path class="cls-10" d="M4.68,16.02c0,.16-.13.29-.29.29s-.29-.13-.29-.29.13-.29.29-.29.29.13.29.29Z"/>
      <circle class="cls-10" cx="35.57" cy="18.33" r=".29"/>
      <circle class="cls-11" cx="32.27" cy="18.46" r=".27"/>
      <g>
        <line class="cls-14" x1="31.28" y1="13.74" x2="31.88" y2="13.74"/>
        <line class="cls-14" x1="31.58" y1="14.04" x2="31.58" y2="13.45"/>
      </g>
      <g>
        <line class="cls-9" x1="35.67" y1="12.91" x2="35.67" y2="13.2"/>
        <line class="cls-9" x1="36.22" y1="13.14" x2="36" y2="13.32"/>
        <line class="cls-9" x1="36.37" y1="13.61" x2="36.09" y2="13.66"/>
        <line class="cls-9" x1="36.12" y1="14.15" x2="35.94" y2="13.93"/>
        <line class="cls-9" x1="35.12" y1="13.12" x2="35.34" y2="13.3"/>
        <line class="cls-9" x1="34.97" y1="13.59" x2="35.25" y2="13.64"/>
        <line class="cls-9" x1="35.21" y1="14.13" x2="35.4" y2="13.91"/>
        <line class="cls-9" x1="35.63" y1="14.3" x2="35.63" y2="14.01"/>
      </g>
      <g>
        <line class="cls-6" x1="3.69" y1="11.64" x2="4.1" y2="11.61"/>
        <line class="cls-6" x1="4.08" y1="12.23" x2="4.26" y2="11.86"/>
        <line class="cls-6" x1="4.79" y1="12.19" x2="4.55" y2="11.84"/>
        <line class="cls-6" x1="5.1" y1="11.55" x2="4.69" y2="11.58"/>
        <line class="cls-6" x1="4.71" y1="10.95" x2="4.53" y2="11.33"/>
        <line class="cls-6" x1="4" y1="10.99" x2="4.24" y2="11.34"/>
      </g>
      <path class="cls-15" d="M7.15,16.62c0,.13-.11.24-.24.24s-.24-.11-.24-.24.11-.24.24-.24.24.11.24.24Z"/>
      <path class="cls-21" d="M11.15,6.19l9.33,6.41-10.5,7.9c-.25.19-.39.48-.39.79v.47c0,.53.53.26,1.06.26l17.21.44,2.31-12.21S32.01.84,20.81.35c0,0-7.12-1.32-9.87,5.07-.12.28-.03.6.22.77Z"/>
      <path class="cls-22" d="M19.61.7s8.83,1.46,7.93,9.84l-2.34,11.36h1.45l2.15-11.33.06-3.8-2.25-3.59-4.27-2.41-2.73-.07Z"/>
      <path class="cls-13" d="M9.8,6.64l8.73,5.97-9.32,7.08c-.25.19-.39.48-.39.79v.47c0,.53.43.96.96.96h16.87l2.23-11.66S30.55,1.25,18.85.35c0,0-6.51-.88-9.27,5.51-.12.28-.03.6.22.77Z"/>
      <path class="cls-13" d="M18.34,12.67l-8.41-5.93s-3.45,4.15-.61,12.82l9.03-6.89Z"/>
      <line class="cls-7" x1="15.33" y1="8.39" x2="16.15" y2="8.96"/>
      <line class="cls-7" x1="11.45" y1="5.69" x2="14.7" y2="7.95"/>
      <circle class="cls-18" cx="18.88" cy="12.58" r="3.34"/>
      <circle class="cls-17" cx="18.88" cy="12.58" r="1.9"/>
      <path class="cls-3" d="M26.44,7.33c0,.51-.42.93-.93.93s-.93-.42-.93-.93.42-.93.93-.93.93.42.93.93Z"/>
      <line class="cls-8" x1="24.84" y1="8.15" x2="22.19" y2="10.82"/>
      <line class="cls-7" x1="14.72" y1="17.55" x2="10.47" y2="20.7"/>
      <line class="cls-7" x1="16.38" y1="16.32" x2="15.49" y2="16.98"/>
      <path class="cls-5" d="M9.75,10.53c-.31,1.4-.56,3.56.11,5.74"/>
      <path class="cls-5" d="M10.22,8.97s-.08.19-.18.52"/>
      <circle class="cls-2" cx="23.21" cy="20.26" r=".5"/>
      <circle class="cls-16" cx="25.05" cy="20.26" r=".5"/>
      <path class="cls-4" d="M32.02,16.45c-.12.26-.39.44-.7.44-.43,0-.77-.35-.77-.77s.35-.77.77-.77.76.33.77.75"/>
      <g>
        <line class="cls-12" x1="2.65" y1="17.53" x2="2.65" y2="18.11"/>
        <line class="cls-12" x1="2.16" y1="17.73" x2="2.57" y2="18.14"/>
        <line class="cls-12" x1="1.96" y1="18.22" x2="2.54" y2="18.22"/>
        <line class="cls-12" x1="2.16" y1="18.72" x2="2.57" y2="18.3"/>
        <line class="cls-12" x1="2.65" y1="18.92" x2="2.65" y2="18.34"/>
        <line class="cls-12" x1="3.15" y1="18.72" x2="2.74" y2="18.3"/>
        <line class="cls-12" x1="3.35" y1="18.22" x2="2.77" y2="18.22"/>
        <line class="cls-12" x1="3.15" y1="17.73" x2="2.74" y2="18.14"/>
      </g>
    </g>
  </g>
</svg>