<?xml version="1.0" encoding="UTF-8"?>
<svg id="_图层_2" data-name="图层 2" xmlns="http://www.w3.org/2000/svg" viewBox="0 0 30.53 29.61">
  <defs>
    <style>
      .cls-1, .cls-2 {
        fill: #1e95d4;
      }

      .cls-3 {
        fill: #cf5b28;
      }

      .cls-2, .cls-4, .cls-5, .cls-6, .cls-7, .cls-8 {
        stroke-linejoin: round;
      }

      .cls-2, .cls-4, .cls-5, .cls-6, .cls-7, .cls-8, .cls-9 {
        stroke-linecap: round;
      }

      .cls-2, .cls-4, .cls-6, .cls-7, .cls-9 {
        stroke-width: .51px;
      }

      .cls-2, .cls-6, .cls-7, .cls-9 {
        stroke: #231815;
      }

      .cls-10, .cls-4, .cls-5, .cls-7, .cls-9 {
        fill: none;
      }

      .cls-10, .cls-5 {
        stroke-width: .34px;
      }

      .cls-10, .cls-8 {
        stroke: #eeb033;
      }

      .cls-10, .cls-9 {
        stroke-miterlimit: 10;
      }

      .cls-4 {
        stroke: #fff;
      }

      .cls-11 {
        fill: #d99136;
      }

      .cls-12 {
        fill: #e99214;
      }

      .cls-5 {
        stroke: #0c68ab;
      }

      .cls-6, .cls-8 {
        fill: #fff;
      }

      .cls-13 {
        fill: #231815;
      }

      .cls-14 {
        fill: #55a9d8;
      }

      .cls-15 {
        fill: #e68522;
      }

      .cls-16 {
        fill: #339cd1;
      }

      .cls-17 {
        fill: #e1c635;
      }

      .cls-18 {
        fill: #3d82bd;
      }

      .cls-19 {
        fill: #dc7c26;
      }

      .cls-8 {
        stroke-width: .17px;
      }

      .cls-20 {
        fill: #0c68ab;
      }
    </style>
  </defs>
  <g id="Layer_1" data-name="Layer 1">
    <g>
      <path class="cls-14" d="M19.39,29.35h-6.93c-1.32,0-2.25-1.08-2.39-2.39l-1.4-12.58c0-.44.36-.8.8-.8h12.92c.44,0,.8.36.8.8l-1.4,12.58c-.13,1.26-1.07,2.39-2.39,2.39Z"/>
      <path class="cls-18" d="M21.17,13.6h.44c.44,0,.8.36.8.8l-1.4,12.58c-.11,1.02-.92,1.58-1.45,2.17-.11.12-2.1.06-2.2-.01,0,0,2.67.34,2.99-3.14l1.27-12.4"/>
      <path class="cls-9" d="M21.71,21.16l-.74,5.8c-.15,1.33-1.07,2.39-2.39,2.39h-6.93c-1.32,0-2.25-1.08-2.39-2.39l-.69-5.26"/>
      <line class="cls-9" x1="21.87" y1="19.48" x2="21.78" y2="20.36"/>
      <path class="cls-9" d="M8.45,20.42l-.59-6.04c0-.44.36-.8.8-.8h12.92c.44,0,.8.36.8.8l-.43,4.33"/>
      <path class="cls-13" d="M8.72,21.08c0,.12-.09.21-.21.21s-.21-.09-.21-.21.09-.21.21-.21.21.09.21.21Z"/>
      <line class="cls-7" x1="27.07" y1="29.35" x2="30.27" y2="29.35"/>
      <line class="cls-7" x1="5.98" y1="29.35" x2="25.95" y2="29.35"/>
      <line class="cls-7" x1="4.31" y1="29.35" x2="5.14" y2="29.35"/>
      <line class="cls-7" x1=".26" y1="29.35" x2="3.51" y2="29.35"/>
      <line class="cls-4" x1="9.15" y1="14.25" x2="9.47" y2="16.85"/>
      <line class="cls-4" x1="9.54" y1="17.48" x2="9.65" y2="18.35"/>
      <circle class="cls-13" cx="12.42" cy="23.31" r=".37"/>
      <path class="cls-13" d="M18.29,23.31c0,.2-.16.37-.37.37s-.37-.16-.37-.37.16-.37.37-.37.37.16.37.37Z"/>
      <path class="cls-13" d="M16.83,23.97c.1,0,.17.11.13.2-.19.41-.92.71-1.79.71s-1.6-.3-1.79-.71c-.04-.09.03-.2.13-.2h3.32Z"/>
      <path class="cls-15" d="M15.64,24.71c0,.16-.22.08-.45.08s-.4.08-.4-.08.19-.29.43-.29.43.13.43.29Z"/>
      <line class="cls-7" x1="9.68" y1="9.15" x2="11.21" y2="13.43"/>
      <line class="cls-7" x1="12.26" y1="11.33" x2="12.25" y2="13.42"/>
      <line class="cls-7" x1="15.21" y1="8.84" x2="15.16" y2="13.45"/>
      <line class="cls-7" x1="17.14" y1="11.89" x2="17.16" y2="13.42"/>
      <line class="cls-7" x1="20.52" y1="10.21" x2="19.29" y2="13.42"/>
      <ellipse class="cls-6" cx="17.02" cy="10.15" rx="1.61" ry="1.53"/>
      <path class="cls-19" d="M6.11,6.29l1.39,2.43s0,0,0,0c.03.05.71,1.02,2.11.36.41-.2,1.12-.99.89-1.8l-.73-2.45c-.02-.07-.11-.09-.16-.04l-.72.78s-.08.04-.12.01l-1.01-.71c-.05-.04-.12-.01-.14.05l-.32,1.16s-.05.07-.09.07h-1.01c-.07,0-.11.08-.08.14Z"/>
      <path class="cls-3" d="M9.46,5.29l.55,2.04s.16.85-.02,1.14c-.18.3.42-.04.42-.04l.1-1.07-.71-2.42-.33.36Z"/>
      <path class="cls-7" d="M6.12,6.3l1.39,2.43s0,0,0,0c.03.05.71,1.02,2.11.36.41-.2,1.12-.99.89-1.8l-.73-2.45c-.02-.07-.11-.09-.16-.04l-.72.78s-.08.04-.12.01l-1.01-.71c-.05-.04-.12-.01-.14.05l-.32,1.16s-.05.07-.09.07h-1.01c-.07,0-.11.08-.08.14Z"/>
      <ellipse class="cls-1" cx="12.16" cy="9.66" rx="1.7" ry="1.61"/>
      <path class="cls-20" d="M13.69,9.67c0,.89-.94,1.48-.94,1.48-.42-.04.64-.58.69-1.47.05-.91-1.37-1.64-.37-1.23,0,0,.62.33.62,1.22Z"/>
      <ellipse class="cls-7" cx="12.16" cy="9.66" rx="1.7" ry="1.61"/>
      <circle class="cls-2" cx="18.72" cy="7.78" r="1.09"/>
      <path class="cls-12" d="M24.35,6.75c.06,0,.1.06.07.11l-1.95,3.02s-.5.86-1.99.19c0,0-1.26-.58-.96-1.45l.87-3.37c.02-.06.09-.07.13-.02l.77,1.14s.08.04.11.01l1.11-1.06s.11-.02.12.04l.26,1.54s.04.06.08.06l1.39-.21Z"/>
      <path class="cls-3" d="M23.73,7.01l-1.64,2.48s-.48.7-1.44.5l.8.35.84-.19,1.29-1.96.76-1.29-.63.11Z"/>
      <path class="cls-7" d="M24.34,6.75c.06,0,.1.06.07.11l-1.95,3.02s-.5.86-1.99.19c0,0-1.26-.58-.96-1.45l.87-3.37c.02-.06.09-.07.13-.02l.77,1.14s.08.04.11.01l1.11-1.06s.11-.02.12.04l.26,1.54s.04.06.08.06l1.39-.21Z"/>
      <path class="cls-17" d="M12.48,2.87c-.05-.03-.12,0-.12.06l.09,3.41s-.05,2.52,2.64,2.4c0,0,2.67-.17,2.81-2.42l.02-3.66-1.61,1.2-1.25-1.88-.99,1.95-1.59-1.06Z"/>
      <path class="cls-11" d="M17.45,3.18s0,2.29-.03,3.06c-.05,1.3-1.37,1.99-1.9,2.25-.53.25,1.53-.37,1.53-.37l.78-1.14.16-1.74-.08-2.43-.45.38Z"/>
      <path class="cls-7" d="M12.47,2.86c-.05-.03-.12,0-.12.06l.09,3.41s-.05,2.52,2.64,2.4c0,0,2.67-.17,2.81-2.42l.02-3.66-1.61,1.2-1.25-1.88-.99,1.95-1.59-1.06Z"/>
      <path class="cls-6" d="M10.51,11.55s-1.17-2.36-2.57-.33c0,0,.42,1.74,2.57.33Z"/>
      <g>
        <path class="cls-8" d="M13.3.49s-.07-.44-.4-.18c0,0-.02.3.4.18Z"/>
        <path class="cls-8" d="M13.27.59s-.39-.22-.4.2c0,0,.23.2.4-.2Z"/>
        <path class="cls-8" d="M13.35.51s.43-.14.12-.43c0,0-.3.03-.12.43Z"/>
        <path class="cls-8" d="M13.38.57s.29.35.44-.05c0,0-.14-.27-.44.05Z"/>
        <path class="cls-8" d="M13.37.58s-.35.28.04.44c0,0,.27-.13-.04-.44Z"/>
      </g>
      <path class="cls-10" d="M4.52,11.25c.15.26.06.6-.2.76-.26.15-.6.06-.76-.2-.15-.26-.06-.6.2-.76.26-.15.6-.06.76.2Z"/>
      <path class="cls-10" d="M27.98,10.15c.13.22.05.5-.17.62-.22.13-.5.05-.62-.17-.13-.22-.05-.5.17-.62.22-.13.5-.05.62.17Z"/>
      <circle class="cls-20" cx="26.43" cy="7.39" r=".55"/>
      <circle class="cls-20" cx="2.44" cy="7.64" r=".55"/>
      <g>
        <line class="cls-5" x1="2.11" y1="4.89" x2="3.07" y2="4.89"/>
        <line class="cls-5" x1="2.59" y1="4.41" x2="2.59" y2="5.37"/>
      </g>
      <g>
        <line class="cls-5" x1="21.24" y1="2.56" x2="22.2" y2="2.56"/>
        <line class="cls-5" x1="21.72" y1="2.08" x2="21.72" y2="3.04"/>
      </g>
      <path class="cls-12" d="M5.79,2.72c0,.24-.19.43-.43.43s-.43-.19-.43-.43.19-.43.43-.43.43.19.43.43Z"/>
      <path class="cls-12" d="M19.55,3.11c-.09.12-.26.13-.38.04s-.13-.26-.04-.38c.09-.12.26-.13.38-.04.12.09.13.26.04.38Z"/>
      <circle class="cls-12" cx="25.57" cy="12.5" r=".43"/>
      <path class="cls-16" d="M9.26.77c0,.1-.08.19-.19.19s-.19-.08-.19-.19.08-.19.19-.19.19.08.19.19Z"/>
    </g>
  </g>
</svg>