<?xml version="1.0" encoding="UTF-8"?>
<svg id="_图层_2" data-name="图层 2" xmlns="http://www.w3.org/2000/svg" viewBox="0 0 36.39 31.85">
  <defs>
    <style>
      .cls-1, .cls-2 {
        fill: #d8bc26;
      }

      .cls-3 {
        fill: #d27537;
      }

      .cls-3, .cls-4, .cls-5, .cls-6, .cls-2 {
        stroke-width: .61px;
      }

      .cls-3, .cls-5, .cls-7, .cls-8, .cls-2 {
        stroke-miterlimit: 10;
      }

      .cls-3, .cls-5, .cls-6, .cls-2 {
        stroke: #231815;
      }

      .cls-4 {
        stroke: #fff;
      }

      .cls-4, .cls-9, .cls-10, .cls-5, .cls-11, .cls-6 {
        stroke-linecap: round;
      }

      .cls-4, .cls-9, .cls-10, .cls-5, .cls-7, .cls-8, .cls-6 {
        fill: none;
      }

      .cls-4, .cls-9, .cls-10, .cls-11, .cls-6 {
        stroke-linejoin: round;
      }

      .cls-9 {
        stroke: #0f63a1;
      }

      .cls-9, .cls-11, .cls-8 {
        stroke-width: .2px;
      }

      .cls-10 {
        stroke: #0c68ab;
      }

      .cls-10, .cls-7 {
        stroke-width: .41px;
      }

      .cls-12 {
        fill: #c7d339;
      }

      .cls-13 {
        fill: #53aa36;
      }

      .cls-11 {
        fill: #fff;
      }

      .cls-11, .cls-8 {
        stroke: #eeb033;
      }

      .cls-7 {
        stroke: #3c7bb1;
      }

      .cls-14 {
        fill: #231815;
      }

      .cls-15 {
        fill: #55a9d8;
      }

      .cls-16 {
        fill: #e68522;
      }

      .cls-17 {
        fill: #abc736;
      }

      .cls-18 {
        fill: #339cd1;
      }

      .cls-19 {
        fill: #3d82bd;
      }

      .cls-20 {
        fill: #df5a20;
      }

      .cls-21 {
        fill: #cdd96e;
      }
    </style>
  </defs>
  <g id="Layer_1" data-name="Layer 1">
    <g>
      <g>
        <path class="cls-11" d="M9.4,10.09s-.09-.53-.48-.22c0,0-.02.36.48.22Z"/>
        <path class="cls-11" d="M9.37,10.21s-.47-.26-.47.24c0,0,.27.24.47-.24Z"/>
        <path class="cls-11" d="M9.47,10.13s.51-.16.15-.51c0,0-.36.03-.15.51Z"/>
        <path class="cls-11" d="M9.5,10.2s.35.41.53-.06c0,0-.17-.32-.53.06Z"/>
        <path class="cls-11" d="M9.49,10.2s-.42.34.05.53c0,0,.33-.16-.05-.53Z"/>
      </g>
      <path class="cls-8" d="M29.81,13.06c.11.19.05.44-.15.55-.19.11-.44.05-.55-.15-.11-.19-.05-.44.15-.55.19-.11.44-.05.55.15Z"/>
      <path class="cls-7" d="M21.44.34c.07.13.03.29-.1.37-.13.07-.29.03-.37-.1-.07-.13-.03-.29.1-.37s.29-.03.37.1Z"/>
      <g>
        <line class="cls-10" x1="11.33" y1="4.56" x2="12.33" y2="4.56"/>
        <line class="cls-10" x1="11.83" y1="4.06" x2="11.83" y2="5.06"/>
      </g>
      <path class="cls-18" d="M26.37,3.8c0,.12-.1.22-.22.22s-.22-.1-.22-.22.1-.22.22-.22.22.1.22.22Z"/>
      <path class="cls-15" d="M26.2,31.38h-13.71c-.33,0-.51-.23-.6-.6l-1.58-8.81c0-.33.27-.6.6-.6h16.88c.33,0,.6.27.6.6l-1.58,8.81c-.05.31-.27.6-.6.6Z"/>
      <path class="cls-19" d="M26.09,21.42c0-.1.83-.02.83-.02.27,0,.47.23.44.5l-1.24,8.76c-.07.49-.49.85-.99.85h-.67s1.6-3.97,1.63-10.09Z"/>
      <path class="cls-5" d="M26.57,27.35l-.62,3.43c-.05.31-.27.6-.6.6h-13.71c-.33,0-.52-.27-.6-.6l-.29-1.64"/>
      <line class="cls-6" x1="32.27" y1="31.54" x2="36.08" y2="31.54"/>
      <line class="cls-6" x1="7.13" y1="31.54" x2="30.93" y2="31.54"/>
      <line class="cls-6" x1="5.14" y1="31.54" x2="6.13" y2="31.54"/>
      <line class="cls-6" x1=".31" y1="31.54" x2="4.19" y2="31.54"/>
      <line class="cls-5" x1="26.9" y1="25.52" x2="26.75" y2="26.36"/>
      <path class="cls-5" d="M10.37,27.15l-.91-5.18c0-.33.27-.6.6-.6h16.88c.33,0,.6.27.6.6l-.46,2.58"/>
      <path class="cls-14" d="M10.86,28.16c0,.21-.17.39-.39.39s-.39-.17-.39-.39.17-.39.39-.39.39.17.39.39Z"/>
      <line class="cls-4" x1="11.05" y1="22.42" x2="11.44" y2="24.42"/>
      <line class="cls-4" x1="11.66" y1="25.42" x2="11.78" y2="25.97"/>
      <path class="cls-14" d="M15.52,25.83c0,.25-.2.45-.45.45s-.45-.2-.45-.45.2-.45.45-.45.45.2.45.45Z"/>
      <path class="cls-14" d="M23.04,25.83c0,.25-.2.45-.45.45s-.45-.2-.45-.45.2-.45.45-.45.45.2.45.45Z"/>
      <path class="cls-14" d="M20.8,26.3c.07,0,.13.07.11.14-.14.46-.74,1.2-2.05,1.2-1.45,0-1.91-.74-2.05-1.2-.02-.07.03-.14.11-.14h3.9Z"/>
      <path class="cls-16" d="M19.48,27.33c0,.21-.29.23-.63.23s-.62-.02-.62-.23.28-.37.63-.37.63.17.63.37Z"/>
      <path class="cls-21" d="M25.76,21.36h-8.57v-11.41c0-2.44,1.98-4.42,4.42-4.42h0c2.29,0,4.15,1.86,4.15,4.15v11.68Z"/>
      <path class="cls-12" d="M25.76,21.36h-.97s-.04-11.45-.04-11.45c0-3.2-3.3-4.15-3.63-4.23,0,0,0,0,0,0l2.98.49c1.32,1.37,1.59,2.79,1.59,2.79l.06,12.41Z"/>
      <path class="cls-6" d="M25.65,8.59c.12.39.18.8.18,1.23v11.55h-8.57v-11.55c0-2.37,1.92-4.28,4.28-4.28h0c1.34,0,2.54.62,3.33,1.58"/>
      <line class="cls-5" x1="19.2" y1="7.51" x2="19.2" y2="11.61"/>
      <line class="cls-5" x1="21.23" y1="6.96" x2="21.23" y2="20.26"/>
      <line class="cls-5" x1="23.28" y1="9.02" x2="23.28" y2="20.21"/>
      <path class="cls-17" d="M19.57,21.35h-8.3v-5.58c0-2.32,1.88-4.19,4.19-4.19h0c2.27,0,4.1,1.84,4.1,4.1v5.67Z"/>
      <path class="cls-13" d="M15.4,11.81s3.16,1.13,3.16,3.74c0,1.51,0,5.55,0,5.55h1s-.02-5.87-.02-5.87c0,0-.21-2.64-3.13-3.72-.19-.07-1.01.29-1.01.29Z"/>
      <path class="cls-5" d="M13.22,12.16c.63-.39,1.38-.62,2.18-.62h0c2.29,0,4.15,1.86,4.15,4.15v5.63h-8.3v-5.63c0-1.04.38-1.99,1.02-2.72"/>
      <line class="cls-5" x1="13.26" y1="15.21" x2="13.26" y2="18.91"/>
      <line class="cls-5" x1="17.02" y1="14.28" x2="17.02" y2="20.04"/>
      <line class="cls-5" x1="15.16" y1="13.39" x2="15.16" y2="20.18"/>
      <path class="cls-3" d="M23.57,2.97l-1.27.67c-.12.05-.2.17-.2.31v.69c-.02.34.32.59.64.48l.66-.22c.13-.04.22-.17.21-.31l.18-1.47c0-.11-.12-.19-.22-.14Z"/>
      <path class="cls-3" d="M19.51,2.97l1.21.77c.12.06.18.19.17.32l-.05.69c-.02.34-.38.56-.69.42l-.64-.28c-.13-.06-.2-.19-.19-.33l-.06-1.48c.01-.11.14-.18.24-.12Z"/>
      <path class="cls-2" d="M21.5,2.84l-.75,1.32c-.08.12-.08.27,0,.39l.38.62c.19.31.63.33.85.05l.46-.57c.09-.11.1-.28.01-.4l-.68-1.41c-.07-.1-.21-.1-.28,0Z"/>
      <circle class="cls-20" cx="16.22" cy="4.93" r=".17"/>
      <circle class="cls-1" cx="28.31" cy="10.24" r=".17"/>
      <g>
        <line class="cls-9" x1="28.88" y1="7.6" x2="28.88" y2="7.72"/>
        <line class="cls-9" x1="29.02" y1="7.98" x2="29.02" y2="8.11"/>
        <line class="cls-9" x1="28.68" y1="7.92" x2="28.8" y2="7.92"/>
        <line class="cls-9" x1="29.09" y1="7.79" x2="29.22" y2="7.79"/>
      </g>
    </g>
  </g>
</svg>