<?xml version="1.0" encoding="UTF-8"?>
<svg id="_图层_2" data-name="图层 2" xmlns="http://www.w3.org/2000/svg" viewBox="0 0 38.57 29.41">
  <defs>
    <style>
      .cls-1 {
        fill: #100f08;
      }

      .cls-2 {
        fill: #ef8d1b;
      }

      .cls-3 {
        fill: #f4d730;
      }

      .cls-4 {
        fill: #f6dc55;
      }

      .cls-5 {
        fill: #f2ab19;
      }

      .cls-6 {
        fill: #260808;
      }

      .cls-7 {
        fill: #25090a;
      }

      .cls-8 {
        fill: #f9fcfd;
      }

      .cls-9 {
        fill: #ef9022;
      }

      .cls-10 {
        fill: #0e0d07;
      }

      .cls-11 {
        fill: #f4d630;
      }

      .cls-12 {
        fill: #f9fcfe;
      }

      .cls-13 {
        fill: #f0942a;
      }

      .cls-14 {
        fill: #f3d72d;
      }

      .cls-15 {
        fill: #fffefa;
      }

      .cls-16 {
        fill: #f4d735;
      }

      .cls-17 {
        fill: #230506;
      }

      .cls-18 {
        fill: #2e1717;
      }

      .cls-19 {
        fill: #f3d421;
      }

      .cls-20 {
        fill: #379cd7;
      }

      .cls-21 {
        fill: #f5db52;
      }

      .cls-22 {
        fill: #ef8f19;
      }

      .cls-23 {
        fill: #290e0f;
      }

      .cls-24 {
        fill: #399cd6;
      }

      .cls-25 {
        fill: #f19a37;
      }

      .cls-26 {
        fill: #3199d6;
      }

      .cls-27 {
        fill: #f4d72e;
      }

      .cls-28 {
        fill: #383114;
      }

      .cls-29 {
        fill: #f3d52b;
      }

      .cls-30 {
        fill: #f4d631;
      }

      .cls-31 {
        fill: #260707;
      }

      .cls-32 {
        fill: #f6df61;
      }

      .cls-33 {
        fill: #ef8d19;
      }

      .cls-34 {
        fill: #260809;
      }

      .cls-35 {
        fill: #fffefb;
      }
    </style>
  </defs>
  <g id="Layer_1" data-name="Layer 1">
    <g>
      <path class="cls-19" d="M11.06,24.4c0-3.96.02-7.91,0-11.87-.01-3.85,1.58-6.76,4.99-8.63.11-.06.19-.15.29-.23-.03.08,0-.04-.06.02-.03.03-.05,0,0-.06.12-.16.31-.2.5-.23,2.71-.47,5.19.06,7.4,1.71.2.15.38.33.49.56,1.2,1.81,1.57,3.82,1.54,5.98-.06,3.79-.02,7.58-.02,11.36,0,.5,0,1.01-.26,1.46-.66.54-1.83.35-2.45-.4-.15-.18-.25-.38-.35-.59-.07-.14-.11-.35-.33-.32-.23.04-.24.26-.26.45-.02.23,0,.46-.01.69-.02,1.06-.61,1.69-1.64,1.74-1.17.06-1.96-.56-2.07-1.62-.03-.27,0-.54-.03-.81-.02-.17.02-.44-.24-.43-.22,0-.25.25-.27.44-.03.23-.02.46-.02.69-.02.97-.51,1.57-1.39,1.72-1.04.17-1.9-.3-2.21-1.2-.12-.34-.12-.7-.13-1.05,0-.2.07-.48-.17-.54-.21-.05-.26.23-.35.38-.52.94-1.37,1.35-2.41,1.14-.21-.04-.47-.06-.53-.35Z"/>
      <path class="cls-31" d="M11.06,24.4c1.29.56,2.4.13,2.88-1.14.08-.21.18-.4.43-.38.29.02.36.24.37.49,0,.33,0,.67,0,1,.04.97.7,1.52,1.78,1.5.98-.02,1.59-.59,1.61-1.53,0-.36,0-.71.02-1.07.02-.26.16-.44.45-.42.28.02.39.2.39.47,0,.33,0,.67,0,1,.03.97.69,1.55,1.75,1.54,1.03,0,1.64-.58,1.66-1.55,0-.31,0-.63,0-.94,0-.26.07-.47.35-.52.31-.05.42.14.51.41.38,1.12,1.32,1.57,2.49,1.22.84-.5,1.14-1.2,1.09-2.19-.07-1.43.16-2.86.12-4.3,0-.34-.02-.75.52-.74.34.07.41.29.41.6-.01,1.69.02,3.39-.03,5.08-.07,2.29-2.58,2.94-4.15,2.1-.16-.09-.31-.2-.47-.3-.77,2.06-2.78,2.56-4.45,1.12-.22-.19-.27-.1-.43.04-1.54,1.4-3.67.88-4.41-1.13-.66.5-1.4.66-2.21.61-1.4-.08-2.43-1.12-2.43-2.52,0-3.75,0-7.49,0-11.24,0-.33-.02-.7.42-.69.4.02.35.39.35.68,0,3.7,0,7.41,0,11.11,0,.76.26,1.34,1,1.65Z"/>
      <path class="cls-17" d="M24.49,5.63c-1.93-1.77-4.24-2.38-6.8-2.19-.45.03-.9.15-1.35.22-2.83.78-4.92,2.4-5.9,5.25-.1.28-.2.55-.55.43-.35-.12-.28-.42-.19-.69.73-2.25,2.21-3.84,4.27-4.93,4.39-2.32,10.05-.94,12.62,3.08.82,1.28,1.24,2.69,1.27,4.2.03,1.57.01,3.14.03,4.71,0,.34-.01.63-.4.75-.35.1-.44-.14-.49-.39-.05-.22-.04-.46-.03-.69.08-1.69-.09-3.38-.15-5.06-.04-1.24-.56-2.34-1.29-3.34-.33-.45-.69-.89-1.02-1.34Z"/>
      <path class="cls-6" d="M18.27,29.41c-3.91,0-7.83,0-11.74,0-.17,0-.34,0-.5-.01-.2-.02-.28-.17-.29-.35-.01-.19.08-.34.26-.38.18-.04.37-.03.56-.03,7.83,0,15.66,0,23.48,0,.17,0,.34-.01.5.02.2.04.34.18.33.39-.01.21-.14.34-.36.36-.17,0-.33,0-.5,0-3.91,0-7.83,0-11.74,0Z"/>
      <path class="cls-5" d="M24.49,5.63c1.5,1.26,2.38,2.86,2.51,4.81.11,1.75.07,3.51.1,5.27,0,.32-.03.65.38.75,0,.27,0,.54,0,.82-.39.08-.38.38-.38.68-.01,1.65-.03,3.3-.06,4.95-.01.87-.43,1.38-1.29,1.59.19-.42.26-.87.26-1.34,0-4.12-.02-8.23,0-12.35,0-1.73-.43-3.33-1.34-4.8-.08-.12-.18-.23-.17-.39Z"/>
      <path class="cls-29" d="M5.4,10.8c.01.52-.41.98-.93.99-.51,0-.96-.43-.96-.95,0-.51.39-.92.9-.94.54-.02.98.38.99.9Z"/>
      <path class="cls-34" d="M35.11,28.64c.33,0,.67,0,1,0,.27,0,.44.13.44.41,0,.26-.18.36-.42.36-.69,0-1.38,0-2.07,0-.27,0-.45-.11-.44-.4.01-.25.17-.37.42-.37.36,0,.71,0,1.07,0Z"/>
      <path class="cls-30" d="M33.3,6.08c-.21-.03-.27-.18-.25-.36.04-.37-.08-.55-.48-.5-.17.02-.36-.02-.37-.24,0-.23.19-.25.36-.23.39.05.53-.11.49-.49-.02-.17,0-.36.22-.38.28-.02.29.2.27.39-.05.4.12.52.5.48.16-.02.36-.03.36.22,0,.18-.15.27-.3.25-.5-.07-.62.18-.57.61.02.14-.09.22-.23.25Z"/>
      <path class="cls-26" d="M30.46,1.06c-.06.23-.22.29-.39.28-.36-.03-.49.12-.45.47.02.17-.02.36-.24.37-.23.01-.27-.18-.25-.35.05-.39-.11-.53-.49-.49-.17.02-.36-.03-.36-.25,0-.25.2-.25.36-.22.45.06.53-.18.5-.55-.01-.15.01-.31.21-.32.18,0,.28.13.26.28-.05.46.13.66.6.59.14-.02.22.08.26.19Z"/>
      <path class="cls-20" d="M37.7,8.04c.47-.02.84.33.87.81.03.47-.38.92-.84.91-.46,0-.82-.38-.83-.85,0-.48.33-.85.8-.87Z"/>
      <path class="cls-24" d="M.84,3.89c.47,0,.9.42.86.88-.04.5-.36.79-.85.83C.41,5.65-.01,5.18,0,4.72c.01-.45.4-.83.84-.83Z"/>
      <path class="cls-23" d="M3.7,29.41c-.12,0-.25,0-.37,0-.25,0-.41-.12-.42-.35-.01-.27.16-.41.43-.42.29,0,.58,0,.87,0,.24,0,.4.16.39.39,0,.23-.15.38-.4.38-.17,0-.33,0-.5,0Z"/>
      <path class="cls-7" d="M32.32,29.39c-.15,0-.3.04-.43,0-.34-.12-.38-.36-.17-.63.14-.18,1.09-.2,1.25-.02.22.26.19.51-.14.64-.15.06-.33,0-.5,0,0,0,0,0,0,0Z"/>
      <path class="cls-18" d="M9.37,10.09c0-.16.1-.36.37-.36.31,0,.42.21.42.49,0,.28-.1.49-.41.49-.34,0-.38-.25-.38-.62Z"/>
      <path class="cls-13" d="M34.82,2.16c-.02.3-.15.47-.42.47-.26,0-.43-.16-.43-.42,0-.25.15-.43.42-.44.28,0,.39.17.43.39Z"/>
      <path class="cls-9" d="M35.29,13.13c-.03.26-.17.42-.43.42-.26,0-.43-.16-.43-.42,0-.26.16-.43.42-.43.27,0,.4.17.44.42Z"/>
      <path class="cls-2" d="M9.23.89c-.33-.03-.34.61-.66.33-.08-.07-.66-.18-.3-.43.17-.12.21-.57.47-.37.15.11.25.33.49.46Z"/>
      <path class="cls-25" d="M4.73,6.16c.2,0,.3.12.31.31,0,.16-.08.28-.25.3-.19.03-.32-.08-.34-.26-.02-.18.09-.3.28-.34Z"/>
      <path class="cls-21" d="M4.56,1.32c.09,0,.19.04.18.13-.04.22-.2.35-.4.41-.07.02-.19-.02-.17-.12.04-.22.21-.33.39-.42Z"/>
      <path class="cls-32" d="M3.65,1.7c0,.1-.05.2-.14.17-.21-.06-.36-.21-.41-.42-.02-.08.06-.18.15-.16.21.05.34.21.41.41Z"/>
      <path class="cls-4" d="M4.73,2.79c-.02.14-.1.2-.18.16-.19-.09-.35-.21-.39-.43-.02-.1.09-.15.16-.12.2.08.31.24.4.39Z"/>
      <path class="cls-11" d="M3.08,2.77c.11-.16.21-.34.43-.37.1-.01.14.09.1.17-.08.16-.2.31-.39.36-.08.02-.14-.05-.14-.16Z"/>
      <path class="cls-14" d="M3.94,3.22c-.26-.22-.16-.45-.14-.82.34.33.21.58.14.82Z"/>
      <path class="cls-3" d="M5.13,2.12c-.36.2-.59.19-.87.05.25-.27.49-.19.87-.05Z"/>
      <path class="cls-16" d="M3.9.89c.21.37.16.59.09.91-.33-.32-.22-.55-.09-.91Z"/>
      <path class="cls-27" d="M2.72,2.13c.28-.21.51-.18.74-.08.02,0,.03.13.01.14-.22.11-.45.12-.75-.06Z"/>
      <path class="cls-35" d="M12.35,10.01c.09-.65.25-1.27.61-1.83.16-.26.38-.43.67-.24.25.17.13.41,0,.61-.33.48-.46,1.03-.54,1.59-.04.25-.19.39-.43.35-.24-.04-.33-.23-.31-.47Z"/>
      <path class="cls-10" d="M16.55,13.55c.39.06.65.27.64.69,0,.45-.27.7-.71.69-.4-.01-.66-.26-.66-.68,0-.44.27-.67.72-.69Z"/>
      <path class="cls-1" d="M21.12,14.2c-.02.45-.24.72-.68.72-.41,0-.67-.25-.68-.65-.01-.43.22-.71.68-.71.41,0,.64.23.69.64Z"/>
      <path class="cls-28" d="M19.17,15c.23.46.03.7-.21.89-.26.2-.58.24-.87.05-.3-.19-.49-.44-.33-.86.29.19.26.69.72.67.44-.01.46-.41.69-.74Z"/>
      <path class="cls-35" d="M13.96,7.89c-.22-.03-.39-.12-.39-.34,0-.32.16-.57.48-.65.24-.06.42.07.41.34-.01.32-.22.52-.49.65Z"/>
      <path class="cls-22" d="M16.18,15.45c0,.28-.19.39-.39.43-.29.06-.42-.14-.45-.39-.03-.24.09-.4.35-.42.27-.02.42.15.49.38Z"/>
      <path class="cls-33" d="M21.25,15.83c-.25,0-.4-.11-.4-.37,0-.25.13-.39.39-.38.22,0,.35.12.37.34.02.25-.1.39-.35.42Z"/>
      <path class="cls-15" d="M4.9,10.86c-.03.24-.17.42-.44.42-.29,0-.46-.18-.45-.48.01-.28.2-.41.46-.4.27,0,.41.16.42.46Z"/>
      <path class="cls-12" d="M38.3,8.9c-.08.3-.22.54-.59.52-.32-.01-.51-.2-.52-.51-.01-.34.21-.57.53-.57.32,0,.53.21.57.56Z"/>
      <path class="cls-8" d="M1.39,4.72c-.03.34-.19.55-.54.56-.36,0-.55-.22-.55-.54,0-.3.2-.52.51-.53.34-.02.54.17.58.52Z"/>
    </g>
  </g>
</svg>