<?xml version="1.0" encoding="UTF-8"?>
<svg id="_图层_2" data-name="图层 2" xmlns="http://www.w3.org/2000/svg" viewBox="0 0 19.81 19.81">
  <defs>
    <style>
      .cls-1 {
        fill: #b6b5b2;
      }

      .cls-2, .cls-3 {
        fill: #fff;
      }

      .cls-4 {
        fill: #f0f1f1;
      }

      .cls-3 {
        opacity: .5;
      }

      .cls-5 {
        fill: #88430f;
      }

      .cls-6 {
        fill: #8fc31f;
      }

      .cls-7 {
        fill: #70b42c;
      }
    </style>
  </defs>
  <g id="Layer_1" data-name="Layer 1">
    <g>
      <circle class="cls-6" cx="9.91" cy="9.91" r="9.91"/>
      <path class="cls-4" d="M9.89,0c-2.27,0-4.35.77-6.02,2.05l-.03,11.72c0,.68.56,1.24,1.24,1.24h9.95c.68,0,1.24-.56,1.24-1.24V2.3C14.54.87,12.33,0,9.92,0c-.01,0-.02,0-.03,0Z"/>
      <path class="cls-2" d="M12.72,10.76c0,1.5-1.21,2.71-2.71,2.71s-2.71-1.21-2.71-2.71,1.21-2.71,2.71-2.71,2.71,1.21,2.71,2.71Z"/>
      <path class="cls-2" d="M12.72,10.76c0,1.5-1.21,2.71-2.71,2.71s-2.71-1.21-2.71-2.71,1.21-2.71,2.71-2.71,2.71,1.21,2.71,2.71Z"/>
      <path class="cls-1" d="M9.98,13.62c-1.58,0-2.86-1.28-2.86-2.86s1.28-2.86,2.86-2.86,2.86,1.28,2.86,2.86-1.28,2.86-2.86,2.86ZM9.98,8.2c-1.41,0-2.55,1.15-2.55,2.55s1.15,2.55,2.55,2.55,2.55-1.15,2.55-2.55-1.15-2.55-2.55-2.55Z"/>
      <path class="cls-7" d="M9.77,12.08c-.08,0-.16-.03-.22-.09l-1.1-1.06c-.12-.12-.12-.31,0-.43.12-.12.32-.12.45,0l.87.84,3.16-3.05c.12-.12.32-.12.45,0,.12.12.12.31,0,.43l-3.38,3.27c-.06.06-.14.09-.22.09Z"/>
      <path class="cls-1" d="M14.55,2.63h-3.09c-.09,0-.16-.07-.16-.15s.07-.15.16-.15h3.09c.09,0,.16.07.16.15s-.07.15-.16.15Z"/>
      <path class="cls-1" d="M10.22,2.63h-4.49c-.09,0-.15-.07-.15-.15s.07-.15.15-.15h4.49c.09,0,.15.07.15.15s-.07.15-.15.15Z"/>
      <path class="cls-1" d="M12.85,1.55h-7.12c-.09,0-.16-.07-.16-.15s.07-.15.16-.15h7.12c.09,0,.16.07.16.15s-.07.15-.16.15Z"/>
      <path class="cls-1" d="M14.55,3.72h-6.19c-.09,0-.16-.07-.16-.15s.07-.15.16-.15h6.19c.09,0,.16.07.16.15s-.07.15-.16.15Z"/>
      <path class="cls-1" d="M6.97,3.72h-1.24c-.09,0-.15-.07-.15-.15s.07-.15.15-.15h1.24c.09,0,.15.07.15.15s-.07.15-.15.15Z"/>
      <path class="cls-1" d="M14.54,4.8h-1.06c-.09,0-.17-.07-.17-.15s.07-.15.17-.15h1.06c.09,0,.17.07.17.15s-.07.15-.17.15Z"/>
      <path class="cls-1" d="M12.69,4.8h-2.32c-.09,0-.16-.07-.16-.15s.07-.15.16-.15h2.32c.09,0,.16.07.16.15s-.07.15-.16.15Z"/>
      <path class="cls-1" d="M9.29,4.8h-3.56c-.09,0-.15-.07-.15-.15s.07-.15.15-.15h3.56c.09,0,.15.07.15.15s-.07.15-.15.15Z"/>
      <path class="cls-1" d="M14.55,5.88h-4.95c-.09,0-.15-.07-.15-.15s.07-.15.15-.15h4.95c.09,0,.15.07.15.15s-.07.15-.15.15Z"/>
      <path class="cls-1" d="M8.2,5.88h-2.48c-.09,0-.15-.07-.15-.15s.07-.15.15-.15h2.48c.09,0,.15.07.15.15s-.07.15-.15.15Z"/>
      <path class="cls-1" d="M14.55,6.97h-2.16c-.09,0-.16-.07-.16-.15s.07-.15.16-.15h2.16c.09,0,.16.07.16.15s-.07.15-.16.15Z"/>
      <path class="cls-1" d="M10.84,6.97h-5.11c-.09,0-.15-.07-.15-.15s.07-.15.15-.15h5.11c.09,0,.15.07.15.15s-.07.15-.15.15Z"/>
      <path class="cls-3" d="M2.75,8.57c0-.06-.07-.12-.15-.13l-.29-.04c-.08-.01-.16-.09-.18-.18l-.04-.29c-.01-.08-.07-.15-.13-.15s-.12.07-.13.15l-.04.29c-.01.08-.09.16-.18.18l-.29.04c-.08.01-.15.07-.15.13s.07.12.15.13l.29.04c.08.01.16.09.18.18l.04.29c.01.08.07.15.13.15s.12-.07.13-.15l.05-.33c.01-.08.09-.16.18-.17l.29-.02c.08,0,.15-.06.15-.12Z"/>
      <path class="cls-3" d="M13.78,17.16c0-.06-.07-.12-.15-.13l-.29-.04c-.08-.01-.16-.09-.18-.18l-.04-.29c-.01-.08-.07-.15-.13-.15s-.12.07-.13.15l-.04.29c-.01.08-.09.16-.18.18l-.29.04c-.08.01-.15.07-.15.13s.07.12.15.13l.29.04c.08.01.16.09.18.18l.04.29c.01.08.07.15.13.15s.12-.07.13-.15l.05-.33c.01-.08.09-.16.18-.16l.29-.02c.08,0,.15-.06.15-.12Z"/>
      <path class="cls-3" d="M17.96,11.15c-.34,0-.62-.28-.62-.62s.28-.62.62-.62.62.28.62.62-.28.62-.62.62ZM17.96,10.2c-.18,0-.33.15-.33.33s.15.33.33.33.33-.15.33-.33-.15-.33-.33-.33Z"/>
      <path class="cls-3" d="M7.12,17.49c-.34,0-.62-.28-.62-.62s.28-.62.62-.62.62.28.62.62-.28.62-.62.62ZM7.12,16.54c-.18,0-.33.15-.33.33s.15.33.33.33.33-.15.33-.33-.15-.33-.33-.33Z"/>
      <path class="cls-5" d="M16.1,2.18v11.6c0,.6-.49,1.08-1.08,1.08H5.11c-.6,0-1.08-.49-1.08-1.08V1.94c-.1.08-.21.16-.31.24v11.6c0,.77.62,1.39,1.39,1.39h9.91c.77,0,1.39-.62,1.39-1.39V2.44c-.1-.09-.2-.18-.31-.26Z"/>
    </g>
  </g>
</svg>