<?xml version="1.0" encoding="UTF-8"?>
<svg id="_图层_2" data-name="图层 2" xmlns="http://www.w3.org/2000/svg" viewBox="0 0 53.96 12.92">
  <defs>
    <style>
      .cls-1 {
        fill: #fff;
      }

      .cls-2 {
        fill: #b5b5b6;
      }
    </style>
  </defs>
  <g id="Layer_1" data-name="Layer 1">
    <g>
      <path class="cls-2" d="M47.5,12.92H6.46c-3.57,0-6.46-2.89-6.46-6.46h0C0,2.89,2.89,0,6.46,0h41.03c3.57,0,6.46,2.89,6.46,6.46h0c0,3.57-2.89,6.46-6.46,6.46Z"/>
      <g>
        <path class="cls-1" d="M19.31,6.46c.65.91,1.73,1.8,2.72,2.24-.12.1-.29.31-.38.45-.94-.47-1.95-1.35-2.64-2.3v2.69h-.55v-2.67c-.69.95-1.69,1.8-2.62,2.27-.09-.13-.26-.33-.38-.43.99-.44,2.07-1.33,2.71-2.25h-2.52v-.52h2.81v-1.23h-2.3v-.52h2.3v-1.16h.55v1.16h2.37v.52h-2.37v1.23h2.86v.52h-2.56Z"/>
        <path class="cls-1" d="M25.65,8.93c0,.23-.04.36-.2.45-.14.09-.36.09-.72.09-.02-.13-.07-.33-.14-.46.25,0,.45,0,.51,0,.08,0,.1-.02.1-.1v-1.07h-.64v1.3h-.38v-1.3h-.69c-.07.61-.22,1.23-.53,1.7-.07-.08-.28-.21-.38-.25.48-.75.53-1.8.53-2.6v-1.31c-.05.06-.11.13-.16.19-.07-.08-.28-.24-.38-.31.5-.55.89-1.39,1.11-2.26l.48.1c-.05.18-.11.36-.16.54h.98l.08-.02.32.21c-.12.31-.28.68-.45.98h.74v4.11ZM23.82,4.08c-.11.26-.23.51-.36.74h.96c.11-.21.24-.49.32-.74h-.92ZM24.18,7.43v-.94h-.63v.22c0,.22,0,.47-.02.72h.65ZM23.55,6.09h.63v-.85h-.63v.85ZM24.56,6.09h.64v-.85h-.64v.85ZM25.2,7.43v-.94h-.64v.94h.64ZM27.38,3.83c-.14.83-.46,1.53-1.3,1.93-.06-.11-.19-.29-.29-.37.72-.32,1-.89,1.12-1.56h-.97v-.45h2.99s0,.14,0,.21c-.06,1.17-.12,1.62-.27,1.8-.09.11-.21.16-.38.18-.15.01-.44,0-.73,0-.01-.14-.06-.32-.13-.44.28.03.55.03.64.03.1,0,.16,0,.21-.06.07-.09.13-.42.18-1.25h-1.04ZM29.11,8.17h-1.24v1.36h-.5v-1.36h-1.43v-.46h1.43v-.87h-.78c-.11.26-.23.5-.37.69-.09-.06-.29-.17-.41-.22.31-.4.53-.99.64-1.59l.46.09c-.04.2-.1.38-.16.58h.61v-.68h.5v.68h1.06v.46h-1.06v.87h1.24v.46Z"/>
        <path class="cls-1" d="M30.64,4.32c-.21.36-.45.66-.7.92-.04-.11-.19-.36-.27-.48.44-.42.82-1.05,1.04-1.72l.46.14c-.07.22-.16.45-.27.66h1.48v.48h-1.74ZM32.24,8.1c.02.14.07.33.11.44-1.27.71-1.47.82-1.58.94-.06-.1-.23-.26-.32-.33.15-.12.43-.41.43-.78v-1.35h-.94v-.48h.94v-.96h-.65v-.48h2v.48h-.86v.96h.97v.48h-.97v1.55l.88-.46ZM34.48,7.03c0,.86-.26,1.87-2.09,2.52-.06-.11-.22-.29-.33-.39,1.72-.56,1.9-1.45,1.9-2.12v-1.22h.51v1.22ZM33.25,4.72c-.12-.33-.41-.87-.69-1.25l.39-.19c.3.38.59.88.71,1.22l-.41.22ZM34,4.93v-1.94h.5v1.94h1.3v3.29h-.51v-2.79h-2.09v2.81h-.49v-3.31h1.3ZM34.53,8.23c.58.25,1.34.64,1.73.92l-.33.38c-.38-.29-1.13-.71-1.72-.97l.32-.33ZM35.97,3.46c-.24.44-.53.94-.76,1.26l-.37-.15c.22-.34.51-.89.67-1.27l.46.16Z"/>
      </g>
    </g>
  </g>
</svg>