<?xml version="1.0" encoding="UTF-8"?>
<svg id="_图层_2" data-name="图层 2" xmlns="http://www.w3.org/2000/svg" viewBox="0 0 199.77 48.84">
  <defs>
    <style>
      .cls-1 {
        fill: #96928f;
        opacity: .36;
      }

      .cls-2 {
        fill: #686360;
        opacity: .55;
      }

      .cls-3, .cls-4 {
        fill: #fff;
      }

      .cls-5 {
        fill: #534e4c;
        opacity: .64;
      }

      .cls-4 {
        opacity: 0;
      }

      .cls-6 {
        fill: #afaba9;
        opacity: .27;
      }

      .cls-7 {
        fill: #7f7a77;
        opacity: .45;
      }

      .cls-8 {
        fill: #1a1616;
        opacity: .91;
      }

      .cls-9 {
        fill: #7ccdf2;
      }

      .cls-10 {
        opacity: .06;
      }

      .cls-11 {
        fill: #c9c6c5;
        opacity: .18;
      }

      .cls-12 {
        fill: #e5e3e2;
        opacity: .09;
      }

      .cls-13 {
        fill: #2c2827;
        opacity: .82;
      }

      .cls-14 {
        fill: #050000;
      }

      .cls-15 {
        fill: #3f3b39;
        opacity: .73;
      }
    </style>
  </defs>
  <g id="Layer_1" data-name="Layer 1">
    <g>
      <g>
        <path class="cls-9" d="M30.49,29.95c-2.84,0-5.15-2.31-5.15-5.15s2.31-5.15,5.15-5.15,5.15,2.31,5.15,5.15-2.31,5.15-5.15,5.15ZM30.49,20.89c-2.15,0-3.91,1.75-3.91,3.91s1.75,3.91,3.91,3.91,3.91-1.75,3.91-3.91-1.75-3.91-3.91-3.91Z"/>
        <path class="cls-9" d="M37.84,32.31c-.15,0-.3-.05-.42-.16l-4.13-3.7c-.26-.23-.28-.62-.05-.88.23-.26.62-.28.88-.05l4.13,3.7c.26.23.28.62.05.88-.12.14-.29.21-.46.21Z"/>
      </g>
      <g>
        <g class="cls-10">
          <path class="cls-4" d="M4.65,0h190.48c2.56,0,4.64,2.08,4.64,4.64v39.55c0,2.56-2.08,4.64-4.64,4.64H4.64c-2.56,0-4.64-2.08-4.64-4.64V4.65C0,2.08,2.08,0,4.65,0Z"/>
          <path class="cls-12" d="M6.67,1.03h186.43c3.07,0,5.56,2.49,5.56,5.56v35.95c0,3.07-2.49,5.55-5.55,5.55H6.67c-3.07,0-5.55-2.49-5.55-5.55V6.58C1.11,3.52,3.6,1.03,6.67,1.03Z"/>
          <path class="cls-11" d="M8.69,2.06h182.39c3.57,0,6.47,2.9,6.47,6.47v32.36c0,3.57-2.9,6.46-6.46,6.46H8.69c-3.57,0-6.46-2.9-6.46-6.46V8.52c0-3.57,2.9-6.46,6.46-6.46Z"/>
          <path class="cls-6" d="M10.71,3.09h178.34c4.07,0,7.37,3.3,7.37,7.37v28.76c0,4.07-3.3,7.37-7.37,7.37H10.71c-4.07,0-7.37-3.3-7.37-7.37V10.46c0-4.07,3.3-7.37,7.37-7.37Z"/>
          <path class="cls-1" d="M12.74,4.12h174.3c4.57,0,8.28,3.71,8.28,8.28v25.17c0,4.57-3.71,8.28-8.28,8.28H12.74c-4.57,0-8.28-3.71-8.28-8.28V12.4c0-4.57,3.71-8.28,8.28-8.28Z"/>
          <rect class="cls-7" x="5.57" y="5.15" width="188.64" height="39.96" rx="9.19" ry="9.19"/>
          <path class="cls-2" d="M16.78,6.18h166.21c5.58,0,10.1,4.53,10.1,10.1v17.98c0,5.58-4.53,10.1-10.1,10.1H16.78c-5.58,0-10.1-4.53-10.1-10.1v-17.98c0-5.58,4.53-10.1,10.1-10.1Z"/>
          <path class="cls-5" d="M18.8,7.21h162.16c6.08,0,11.01,4.94,11.01,11.01v14.38c0,6.08-4.93,11.01-11.01,11.01H18.8c-6.08,0-11.01-4.93-11.01-11.01v-14.38c0-6.08,4.93-11.01,11.01-11.01Z"/>
          <path class="cls-15" d="M20.83,8.24h158.11c6.58,0,11.92,5.34,11.92,11.92v10.78c0,6.58-5.34,11.92-11.92,11.92H20.83c-6.58,0-11.92-5.34-11.92-11.92v-10.79c0-6.58,5.34-11.92,11.92-11.92Z"/>
          <path class="cls-13" d="M22.85,9.27h154.07c7.08,0,12.83,5.75,12.83,12.83v7.19c0,7.08-5.75,12.83-12.83,12.83H22.85c-7.08,0-12.83-5.75-12.83-12.83v-7.19c0-7.08,5.75-12.83,12.83-12.83Z"/>
          <path class="cls-8" d="M24.87,10.3h150.02c7.58,0,13.74,6.16,13.74,13.74v3.59c0,7.58-6.16,13.74-13.74,13.74H24.87c-7.58,0-13.74-6.16-13.74-13.74v-3.6c0-7.58,6.16-13.74,13.74-13.74Z"/>
          <path class="cls-14" d="M26.9,40.63h145.98c8.09,0,14.65-6.56,14.65-14.65h0c0-8.09-6.56-14.65-14.65-14.65H26.9c-8.09,0-14.65,6.56-14.65,14.65h0c0,8.09,6.56,14.65,14.65,14.65Z"/>
        </g>
        <path class="cls-3" d="M26.59,40.01h146.6c7.92,0,14.34-6.42,14.34-14.34h0c0-7.92-6.42-14.34-14.34-14.34H26.59c-7.92,0-14.34,6.42-14.34,14.34h0c0,7.92,6.42,14.34,14.34,14.34Z"/>
      </g>
      <g>
        <path class="cls-9" d="M32.48,29.95c-2.84,0-5.15-2.31-5.15-5.15s2.31-5.15,5.15-5.15,5.15,2.31,5.15,5.15-2.31,5.15-5.15,5.15ZM32.48,20.89c-2.15,0-3.91,1.75-3.91,3.91s1.75,3.91,3.91,3.91,3.91-1.75,3.91-3.91-1.75-3.91-3.91-3.91Z"/>
        <path class="cls-9" d="M39.83,32.31c-.15,0-.3-.05-.42-.16l-4.13-3.7c-.26-.23-.28-.62-.05-.88.23-.26.62-.28.88-.05l4.13,3.7c.26.23.28.62.05.88-.12.14-.29.21-.46.21Z"/>
      </g>
    </g>
  </g>
</svg>