<?xml version="1.0" encoding="UTF-8"?>
<svg id="_图层_2" data-name="图层 2" xmlns="http://www.w3.org/2000/svg" viewBox="0 0 35.31 14.68">
  <defs>
    <style>
      .cls-1 {
        fill: #f1f8ef;
      }

      .cls-2 {
        fill: #2fa138;
      }
    </style>
  </defs>
  <g id="Layer_1" data-name="Layer 1">
    <g>
      <path class="cls-2" d="M35.31,11.78c0,1.59-1.12,2.89-2.49,2.89H3.48c-1.37,0-2.49-1.3-2.49-2.89V3.66C.99,2.07,2.11.77,3.48.77h29.34c1.37,0,2.49,1.3,2.49,2.89v8.12Z"/>
      <path class="cls-1" d="M34.32,11.01c0,1.59-1.12,2.89-2.49,2.89H2.49c-1.37,0-2.49-1.3-2.49-2.89V2.89C0,1.3,1.12,0,2.49,0h29.34c1.37,0,2.49,1.3,2.49,2.89v8.12Z"/>
    </g>
  </g>
</svg>