<?xml version="1.0" encoding="UTF-8"?>
<svg xmlns="http://www.w3.org/2000/svg" xmlns:xlink="http://www.w3.org/1999/xlink" viewBox="0 0 68.32 72.71">
  <defs>
    <style>
      .cls-1 {
        fill: #fff;
      }

      .cls-2 {
        fill: none;
      }

      .cls-3 {
        isolation: isolate;
      }

      .cls-4 {
        fill: #8fc31f;
      }

      .cls-5 {
        mix-blend-mode: luminosity;
        opacity: .63;
      }

      .cls-6 {
        fill: #f7f4eb;
      }

      .cls-7 {
        fill: #e1580b;
      }

      .cls-8 {
        fill: url(#Nueva_muestra_de_motivo_9);
        opacity: .44;
      }

      .cls-9 {
        clip-path: url(#clippath);
      }
    </style>
    <clipPath id="clippath">
      <rect class="cls-2" x="1.24" y="1.32" width="65.83" height="70.06" rx="3.39" ry="3.39"/>
    </clipPath>
    <pattern id="Nueva_muestra_de_motivo_9" data-name="Nueva muestra de motivo 9" x="0" y="0" width="80" height="80" patternTransform="translate(-7108.68 -6599.4) scale(.18 .19)" patternUnits="userSpaceOnUse" viewBox="0 0 80 80">
      <g>
        <rect class="cls-2" width="80" height="80"/>
        <path class="cls-6" d="M72.46,24.57c.09-.11.22-.23.31-.31v-9.53c-2.31.94-4.41,2.26-6.19,3.96l5.87,5.88Z"/>
        <path class="cls-6" d="M62.19,14.29l3.52,3.52c2.02-1.91,4.41-3.41,7.06-4.41v-6.17h-6.17c-1,2.66-2.5,5.05-4.41,7.06Z"/>
        <path class="cls-6" d="M26.13,5.98l5.97-5.98h-9.23c0,2.23.76,4.32,2,5.98h1.26Z"/>
        <path class="cls-6" d="M55.74,7.23c-.08.1-.2.22-.31.31l5.88,5.88c1.69-1.78,3.02-3.88,3.96-6.19h-9.53Z"/>
        <path class="cls-6" d="M74.02,23.39c1.72-1.09,3.77-1.73,5.98-1.73v-8.31c-2.07,0-4.1.34-5.98.94v9.11Z"/>
        <path class="cls-6" d="M74.02,72.77h5.98v-4.9c-2.07,0-4.1-.31-5.98-.88v5.78Z"/>
        <path class="cls-6" d="M74.02,65.72c1.88.59,3.91.94,5.98.94v-8.31c-2.21,0-4.26-.65-5.98-1.73v9.11Z"/>
        <path class="cls-6" d="M5.98,7.23H0v4.9c2.07,0,4.1.31,5.98.88v-5.78Z"/>
        <rect class="cls-6" x="74.02" y="74.02" width="5.98" height="5.98"/>
        <path class="cls-6" d="M66.99,74.02c.57,1.88.88,3.9.88,5.98h4.9v-5.98h-5.78Z"/>
        <path class="cls-6" d="M56.61,74.02c1.09,1.72,1.73,3.77,1.73,5.98h8.31c0-2.07-.34-4.1-.94-5.98h-9.11Z"/>
        <path class="cls-6" d="M65.72,5.98c.59-1.88.94-3.9.94-5.98h-8.31c0,2.21-.65,4.26-1.73,5.98h9.11Z"/>
        <path class="cls-6" d="M5.98,14.28c-1.88-.59-3.9-.94-5.98-.94v8.31c2.21,0,4.26.65,5.98,1.73v-9.11Z"/>
        <path class="cls-6" d="M74.02,13.01c1.88-.57,3.91-.88,5.98-.88v-4.9h-5.98v5.78Z"/>
        <path class="cls-6" d="M55.12,5.98c1.24-1.66,2-3.75,2-5.98h-9.23l5.97,5.98h1.26Z"/>
        <path class="cls-6" d="M72.77,5.98V0h-4.9c0,2.07-.31,4.1-.88,5.98h5.78Z"/>
        <path class="cls-6" d="M13.01,5.98c-.57-1.88-.88-3.91-.88-5.98h-4.9v5.98h5.78Z"/>
        <rect class="cls-6" x="74.02" y="0" width="5.98" height="5.98"/>
        <path class="cls-6" d="M53.87,74.02l-5.97,5.98h9.23c0-2.23-.76-4.32-2-5.98h-1.26Z"/>
        <path class="cls-6" d="M74.02,55.12c1.66,1.24,3.75,2,5.98,2v-9.23l-5.98,5.97v1.26Z"/>
        <path class="cls-6" d="M74.02,26.13l5.98,5.97v-9.23c-2.23,0-4.32.76-5.98,2v1.26Z"/>
        <path class="cls-6" d="M23.39,5.98c-1.09-1.72-1.73-3.77-1.73-5.98h-8.31c0,2.07.34,4.1.94,5.98h9.11Z"/>
        <path class="cls-6" d="M22.19,54.29l3.52,3.52c2.02-1.91,4.41-3.41,7.06-4.41v-6.17h-6.17c-1,2.66-2.5,5.05-4.41,7.06Z"/>
        <path class="cls-6" d="M32.46,64.57c.09-.11.22-.23.31-.31v-9.53c-2.31.94-4.41,2.26-6.19,3.96l5.87,5.88Z"/>
        <path class="cls-6" d="M47.54,15.43c-.09.11-.22.23-.31.31v9.53c2.31-.94,4.41-2.26,6.19-3.96l-5.88-5.88Z"/>
        <path class="cls-6" d="M15.74,47.23c-.08.1-.2.22-.31.31l5.88,5.88c1.69-1.78,3.02-3.88,3.96-6.19h-9.53Z"/>
        <path class="cls-6" d="M22.19,25.71c1.91,2.02,3.41,4.41,4.41,7.06h6.17v-6.17c-2.66-1-5.05-2.5-7.06-4.41l-3.52,3.52Z"/>
        <path class="cls-6" d="M27.87,40c0,2.07-.31,4.1-.88,5.98h5.78v-11.95h-5.78c.57,1.88.88,3.91.88,5.98Z"/>
        <path class="cls-6" d="M16.61,45.98h9.11c.59-1.88.94-3.9.94-5.98s-.34-4.1-.94-5.98h-9.11c1.09,1.72,1.73,3.77,1.73,5.98s-.65,4.26-1.73,5.98Z"/>
        <path class="cls-6" d="M52.13,40c0-2.07.31-4.1.88-5.98h-5.78v11.95h5.78c-.57-1.88-.88-3.91-.88-5.98Z"/>
        <path class="cls-6" d="M57.81,25.71l-3.52-3.52c-2.02,1.91-4.41,3.41-7.06,4.41v6.17h6.17c1-2.66,2.5-5.05,4.41-7.06Z"/>
        <path class="cls-6" d="M47.23,47.23v6.17c2.66,1,5.05,2.5,7.06,4.41l3.52-3.52c-1.91-2.02-3.41-4.41-4.41-7.06h-6.17Z"/>
        <path class="cls-6" d="M26.59,21.31c1.78,1.69,3.88,3.02,6.19,3.96v-9.53c-.1-.08-.22-.2-.31-.31l-5.87,5.88Z"/>
        <path class="cls-6" d="M25.27,32.77c-.94-2.31-2.26-4.41-3.96-6.19l-5.88,5.88c.11.09.23.22.31.31h9.53Z"/>
        <path class="cls-6" d="M15.12,34.02h-1.26l-5.97,5.98,5.97,5.98h1.26c1.24-1.66,2-3.75,2-5.98s-.76-4.32-2-5.98Z"/>
        <path class="cls-6" d="M72.46,26.29l7.54,7.56v12.29l-7.54,7.56-.87.86-5.88,5.87-.88.88-3.52,3.52-.88.88-5.87,5.88-.86.87-7.56,7.54h-12.29l-7.56-7.54-.86-.87-5.87-5.88-.88-.88-3.52-3.52-.88-.88-5.88-5.87-.87-.86-7.54-7.56v-12.29l7.54-7.56.87-.86,5.88-5.87.88-.88,3.52-3.52.88-.88,5.87-5.88.86-.87,7.56-7.54h12.29l7.56,7.54.86.87,5.87,5.88.88.88,3.52,3.52.88.88,5.88,5.87.87.86ZM73.85,40l-7.56-7.54-.86-.87-5.87-5.88-.88-.88-3.52-3.52-.88-.88-5.88-5.87-.87-.86-7.54-7.56-7.54,7.56-.87.86-5.88,5.87-.88.88-3.52,3.52-.88.88-5.87,5.88-.86.87-7.56,7.54,7.56,7.54.86.87,5.87,5.88.88.88,3.52,3.52.88.88,5.88,5.87.87.86,7.54,7.56,7.54-7.56.87-.86,5.88-5.87.88-.88,3.52-3.52.88-.88,5.87-5.88.86-.87,7.56-7.54Z"/>
        <path class="cls-6" d="M34.02,64.88v1.26l5.98,5.97,5.98-5.97v-1.26c-1.66-1.24-3.75-2-5.98-2s-4.32.76-5.98,2Z"/>
        <path class="cls-6" d="M66.59,61.31c1.78,1.69,3.88,3.02,6.19,3.96v-9.53c-.1-.08-.22-.2-.31-.31l-5.87,5.88Z"/>
        <path class="cls-6" d="M55.43,72.46c.11.09.23.22.31.31h9.53c-.94-2.31-2.26-4.41-3.96-6.19l-5.88,5.87Z"/>
        <path class="cls-6" d="M62.19,65.71c1.91,2.02,3.41,4.41,4.41,7.06h6.17v-6.17c-2.66-1-5.05-2.5-7.06-4.41l-3.52,3.52Z"/>
        <path class="cls-6" d="M34.02,13.87v1.26c1.66,1.24,3.75,2,5.98,2s4.32-.76,5.98-2v-1.26l-5.98-5.97-5.98,5.97Z"/>
        <path class="cls-6" d="M47.23,64.26c.1.08.22.2.31.31l5.88-5.88c-1.78-1.69-3.88-3.02-6.19-3.96v9.53Z"/>
        <path class="cls-6" d="M34.02,54.28v9.11c1.72-1.09,3.77-1.73,5.98-1.73s4.26.65,5.98,1.73v-9.11c-1.88-.59-3.9-.94-5.98-.94s-4.1.34-5.98.94Z"/>
        <path class="cls-6" d="M34.02,53.01c1.88-.57,3.91-.88,5.98-.88s4.1.31,5.98.88v-5.78h-11.96v5.78Z"/>
        <path class="cls-6" d="M5.98,24.88c-1.66-1.24-3.75-2-5.98-2v9.23l5.98-5.97v-1.26Z"/>
        <path class="cls-6" d="M34.02,16.61v9.11c1.88.59,3.91.94,5.98.94s4.1-.34,5.98-.94v-9.11c-1.72,1.09-3.77,1.73-5.98,1.73s-4.26-.65-5.98-1.73Z"/>
        <rect class="cls-6" x="34.02" y="34.02" width="11.96" height="11.95"/>
        <path class="cls-6" d="M34.02,26.99v5.78h11.96v-5.78c-1.88.57-3.91.88-5.98.88s-4.1-.31-5.98-.88Z"/>
        <path class="cls-6" d="M5.98,53.87l-5.98-5.97v9.23c2.23,0,4.32-.76,5.98-2v-1.26Z"/>
        <path class="cls-6" d="M5.98,66.99c-1.88.57-3.91.88-5.98.88v4.9h5.98v-5.78Z"/>
        <path class="cls-6" d="M5.98,56.61c-1.72,1.09-3.77,1.73-5.98,1.73v8.31c2.07,0,4.1-.34,5.98-.94v-9.11Z"/>
        <path class="cls-6" d="M24.88,74.02c-1.24,1.66-2,3.75-2,5.98h9.23l-5.97-5.98h-1.26Z"/>
        <path class="cls-6" d="M7.23,74.02v5.98h4.9c0-2.07.31-4.1.88-5.98h-5.78Z"/>
        <path class="cls-6" d="M64.26,32.77c.08-.1.2-.22.31-.31l-5.88-5.88c-1.69,1.78-3.02,3.88-3.96,6.19h9.53Z"/>
        <rect class="cls-6" y="0" width="5.98" height="5.98"/>
        <path class="cls-6" d="M13.41,18.69c-1.78-1.69-3.88-3.02-6.19-3.96v9.53c.1.08.22.2.31.31l5.87-5.88Z"/>
        <path class="cls-6" d="M24.57,7.54c-.11-.09-.23-.22-.31-.31h-9.53c.94,2.31,2.26,4.41,3.96,6.19l5.88-5.88Z"/>
        <path class="cls-6" d="M17.81,14.29c-1.91-2.02-3.41-4.41-4.41-7.06h-6.17v6.17c2.66,1,5.05,2.5,7.06,4.41l3.52-3.52Z"/>
        <path class="cls-6" d="M14.28,74.02c-.59,1.88-.94,3.9-.94,5.98h8.31c0-2.21.65-4.26,1.73-5.98h-9.11Z"/>
        <path class="cls-6" d="M54.73,47.23c.94,2.31,2.26,4.41,3.96,6.19l5.88-5.88c-.11-.09-.23-.22-.31-.31h-9.53Z"/>
        <path class="cls-6" d="M53.35,40c0,2.07.34,4.1.94,5.98h9.11c-1.09-1.72-1.73-3.77-1.73-5.98s.65-4.26,1.73-5.98h-9.11c-.59,1.88-.94,3.9-.94,5.98Z"/>
        <path class="cls-6" d="M14.73,72.77h9.53c.08-.1.2-.22.31-.31l-5.88-5.87c-1.69,1.78-3.02,3.88-3.96,6.19Z"/>
        <path class="cls-6" d="M64.88,34.02c-1.24,1.66-2,3.75-2,5.98s.76,4.32,2,5.98h1.26l5.97-5.98-5.97-5.98h-1.26Z"/>
        <path class="cls-6" d="M14.29,62.19c-2.02,1.91-4.41,3.41-7.06,4.41v6.17h6.17c1-2.66,2.5-5.05,4.41-7.06l-3.52-3.52Z"/>
        <rect class="cls-6" y="74.02" width="5.98" height="5.98"/>
        <path class="cls-6" d="M7.54,55.43c-.09.11-.22.23-.31.31v9.53c2.31-.94,4.41-2.26,6.19-3.96l-5.87-5.88Z"/>
        <path class="cls-7" d="M66.29,32.46l7.56,7.54-7.56,7.54-.86.87-5.87,5.88-.88.88-3.52,3.52-.88.88-5.88,5.87-.87.86-7.54,7.56-7.54-7.56-.87-.86-5.88-5.87-.88-.88-3.52-3.52-.88-.88-5.87-5.88-.86-.87-7.56-7.54,7.56-7.54.86-.87,5.87-5.88.88-.88,3.52-3.52.88-.88,5.88-5.87.87-.86,7.54-7.56,7.54,7.56.87.86,5.88,5.87.88.88,3.52,3.52.88.88,5.87,5.88.86.87ZM58.69,26.59c-1.69,1.78-3.02,3.88-3.96,6.19h9.53c.08-.1.2-.22.31-.31l-5.88-5.88ZM54.28,34.02c-.59,1.88-.94,3.9-.94,5.98s.34,4.1.94,5.98h9.11c-1.09-1.72-1.73-3.77-1.73-5.98s.65-4.26,1.73-5.98h-9.11ZM47.23,25.27c2.31-.94,4.41-2.26,6.19-3.96l-5.88-5.88c-.09.11-.22.23-.31.31v9.53ZM47.23,32.77h6.17c1-2.66,2.5-5.05,4.41-7.06l-3.52-3.52c-2.02,1.91-4.41,3.41-7.06,4.41v6.17ZM47.23,45.98h5.78c-.57-1.88-.88-3.91-.88-5.98s.31-4.1.88-5.98h-5.78v11.95ZM15.43,32.46c.11.09.23.22.31.31h9.53c-.94-2.31-2.26-4.41-3.96-6.19l-5.88,5.88ZM16.61,34.02c1.09,1.72,1.73,3.77,1.73,5.98s-.65,4.26-1.73,5.98h9.11c.59-1.88.94-3.9.94-5.98s-.34-4.1-.94-5.98h-9.11ZM15.12,45.98c1.24-1.66,2-3.75,2-5.98s-.76-4.32-2-5.98h-1.26l-5.97,5.98,5.97,5.98h1.26ZM21.31,53.41c1.69-1.78,3.02-3.88,3.96-6.19h-9.53c-.08.1-.2.22-.31.31l5.88,5.88ZM32.77,54.73c-2.31.94-4.41,2.26-6.19,3.96l5.87,5.88c.09-.11.22-.23.31-.31v-9.53ZM32.77,47.23h-6.17c-1,2.66-2.5,5.05-4.41,7.06l3.52,3.52c2.02-1.91,4.41-3.41,7.06-4.41v-6.17ZM32.77,34.02h-5.78c.57,1.88.88,3.91.88,5.98s-.31,4.1-.88,5.98h5.78v-11.95ZM32.77,26.6c-2.66-1-5.05-2.5-7.06-4.41l-3.52,3.52c1.91,2.02,3.41,4.41,4.41,7.06h6.17v-6.17ZM32.77,15.74c-.1-.08-.22-.2-.31-.31l-5.87,5.88c1.78,1.69,3.88,3.02,6.19,3.96v-9.53ZM45.98,64.88c-1.66-1.24-3.75-2-5.98-2s-4.32.76-5.98,2v1.26l5.98,5.97,5.98-5.97v-1.26ZM45.98,54.28c-1.88-.59-3.9-.94-5.98-.94s-4.1.34-5.98.94v9.11c1.72-1.09,3.77-1.73,5.98-1.73s4.26.65,5.98,1.73v-9.11ZM45.98,47.23h-11.96v5.78c1.88-.57,3.91-.88,5.98-.88s4.1.31,5.98.88v-5.78ZM45.98,34.02h-11.96v11.95h11.96v-11.95ZM45.98,26.99c-1.88.57-3.91.88-5.98.88s-4.1-.31-5.98-.88v5.78h11.96v-5.78ZM45.98,16.61c-1.72,1.09-3.77,1.73-5.98,1.73s-4.26-.65-5.98-1.73v9.11c1.88.59,3.91.94,5.98.94s4.1-.34,5.98-.94v-9.11ZM45.98,13.87l-5.98-5.97-5.98,5.97v1.26c1.66,1.24,3.75,2,5.98,2s4.32-.76,5.98-2v-1.26ZM53.41,58.69c-1.78-1.69-3.88-3.02-6.19-3.96v9.53c.1.08.22.2.31.31l5.88-5.88ZM57.81,54.29c-1.91-2.02-3.41-4.41-4.41-7.06h-6.17v6.17c2.66,1,5.05,2.5,7.06,4.41l3.52-3.52ZM64.57,47.54c-.11-.09-.23-.22-.31-.31h-9.53c.94,2.31,2.26,4.41,3.96,6.19l5.88-5.88ZM72.1,40l-5.97-5.98h-1.26c-1.24,1.66-2,3.75-2,5.98s.76,4.32,2,5.98h1.26l5.97-5.98Z"/>
        <path class="cls-7" d="M74.02,5.98h5.98v1.25h-5.98v5.78c1.88-.57,3.91-.88,5.98-.88v1.22c-2.07,0-4.1.34-5.98.94v9.11c1.72-1.09,3.77-1.73,5.98-1.73v1.22c-2.23,0-4.32.76-5.98,2v1.26l5.98,5.97v1.75l-7.54-7.56-.87-.86-5.88-5.87-.88-.88-3.52-3.52-.88-.88-5.87-5.88-.86-.87-7.56-7.54h1.75l5.97,5.98h1.26c1.24-1.66,2-3.75,2-5.98h1.22c0,2.21-.65,4.26-1.73,5.98h9.11c.59-1.88.94-3.9.94-5.98h1.22c0,2.07-.31,4.1-.88,5.98h5.78V0h1.25v5.98ZM61.31,13.41c1.69-1.78,3.02-3.88,3.96-6.19h-9.53c-.08.1-.2.22-.31.31l5.88,5.88ZM72.77,14.73c-2.31.94-4.41,2.26-6.19,3.96l5.87,5.88c.09-.11.22-.23.31-.31v-9.53ZM72.77,7.23h-6.17c-1,2.66-2.5,5.05-4.41,7.06l3.52,3.52c2.02-1.91,4.41-3.41,7.06-4.41v-6.17Z"/>
        <path class="cls-7" d="M26.29,72.46l7.56,7.54h-1.75l-5.97-5.98h-1.26c-1.24,1.66-2,3.75-2,5.98h-1.22c0-2.21.65-4.26,1.73-5.98h-9.11c-.59,1.88-.94,3.9-.94,5.98h-1.22c0-2.07.31-4.1.88-5.98h-5.78v5.98h-1.25v-5.98H0v-1.25h5.98v-5.78c-1.88.57-3.91.88-5.98.88v-1.22c2.07,0,4.1-.34,5.98-.94v-9.11c-1.72,1.09-3.77,1.73-5.98,1.73v-1.22c2.23,0,4.32-.76,5.98-2v-1.26l-5.98-5.97v-1.75l7.54,7.56.87.86,5.88,5.87.88.88,3.52,3.52.88.88,5.87,5.88.86.87ZM7.23,65.27c2.31-.94,4.41-2.26,6.19-3.96l-5.87-5.88c-.09.11-.22.23-.31.31v9.53ZM17.81,65.71l-3.52-3.52c-2.02,1.91-4.41,3.41-7.06,4.41v6.17h6.17c1-2.66,2.5-5.05,4.41-7.06ZM24.57,72.46l-5.88-5.87c-1.69,1.78-3.02,3.88-3.96,6.19h9.53c.08-.1.2-.22.31-.31Z"/>
        <path class="cls-7" d="M7.54,26.29l-7.54,7.56v-1.75l5.98-5.97v-1.26c-1.66-1.24-3.75-2-5.98-2v-1.22c2.21,0,4.26.65,5.98,1.73v-9.11c-1.88-.59-3.9-.94-5.98-.94v-1.22c2.07,0,4.1.31,5.98.88v-5.78H0v-1.25h5.98V0h1.25v5.98h5.78c-.57-1.88-.88-3.91-.88-5.98h1.22c0,2.07.34,4.1.94,5.98h9.11c-1.09-1.72-1.73-3.77-1.73-5.98h1.22c0,2.23.76,4.32,2,5.98h1.26l5.97-5.98h1.75l-7.56,7.54-.86.87-5.87,5.88-.88.88-3.52,3.52-.88.88-5.88,5.87-.87.86ZM14.73,7.23c.94,2.31,2.26,4.41,3.96,6.19l5.88-5.88c-.11-.09-.23-.22-.31-.31h-9.53ZM7.23,13.4c2.66,1,5.05,2.5,7.06,4.41l3.52-3.52c-1.91-2.02-3.41-4.41-4.41-7.06h-6.17v6.17ZM7.23,24.26c.1.08.22.2.31.31l5.87-5.88c-1.78-1.69-3.88-3.02-6.19-3.96v9.53Z"/>
        <path class="cls-7" d="M72.46,53.71l7.54-7.56v1.75l-5.98,5.97v1.26c1.66,1.24,3.75,2,5.98,2v1.22c-2.21,0-4.26-.65-5.98-1.73v9.11c1.88.59,3.91.94,5.98.94v1.22c-2.07,0-4.1-.31-5.98-.88v5.78h5.98v1.25h-5.98v5.98h-1.25v-5.98h-5.78c.57,1.88.88,3.9.88,5.98h-1.22c0-2.07-.34-4.1-.94-5.98h-9.11c1.09,1.72,1.73,3.77,1.73,5.98h-1.22c0-2.23-.76-4.32-2-5.98h-1.26l-5.97,5.98h-1.75l7.56-7.54.86-.87,5.87-5.88.88-.88,3.52-3.52.88-.88,5.88-5.87.87-.86ZM65.27,72.77c-.94-2.31-2.26-4.41-3.96-6.19l-5.88,5.87c.11.09.23.22.31.31h9.53ZM72.77,66.6c-2.66-1-5.05-2.5-7.06-4.41l-3.52,3.52c1.91,2.02,3.41,4.41,4.41,7.06h6.17v-6.17ZM72.77,55.74c-.1-.08-.22-.2-.31-.31l-5.87,5.88c1.78,1.69,3.88,3.02,6.19,3.96v-9.53Z"/>
      </g>
    </pattern>
  </defs>
  <g class="cls-3">
    <g id="_图层_2" data-name="图层 2">
      <g id="Layer_1" data-name="Layer 1">
        <g>
          <rect class="cls-1" width="68.32" height="72.71" rx="3.39" ry="3.39"/>
          <g class="cls-5">
            <g class="cls-9">
              <rect class="cls-8" x="-1.41" y="-1.3" width="71.54" height="75.57"/>
            </g>
          </g>
          <g>
            <path class="cls-1" d="M64.51,36.54c-.46.42-.81.92-1.04,1.5-.26.67-.38,1.46-.36,2.35.02.71.09,1.57.2,2.57.19,1.41.32,2.49.4,3.29.09.84.18,1.63.27,2.36.09.73.19,1.49.3,2.29.11.82.23,1.87.37,3.14.18,1.43.11,2.56-.21,3.37-.31.79-.75,1.38-1.32,1.79-.63.45-1.34.71-2.17.82-.88.11-1.77.11-2.64,0l-1.82-.24.12,1.94c.04.66.02,1.27-.06,1.89-.11.9-.37,1.66-.8,2.33-.39.61-.94,1.07-1.69,1.4-.49.22-1.11.33-1.84.33-.4,0-.84-.03-1.31-.1-1.15-.14-2.2-.28-3.02-.4-.77-.11-1.49-.22-2.15-.31-.67-.1-1.41-.19-2.2-.29-.79-.09-1.84-.24-3.14-.42-.94-.12-1.77-.19-2.44-.21-.07,0-.14,0-.21,0-.75,0-1.43.13-2,.38-.54.24-1.01.61-1.4,1.1l-.13.16-.13-.16c-.39-.49-.87-.86-1.41-1.1-.63-.28-1.37-.41-2.21-.38-.68.02-1.49.09-2.42.21-1.28.19-2.32.33-3.1.43-.8.1-1.54.19-2.23.29-.69.1-1.41.2-2.16.32-.8.12-1.83.26-2.96.39h-.03c-1.31.19-2.39.11-3.15-.23-.75-.33-1.3-.79-1.69-1.41-.42-.66-.67-1.42-.77-2.3-.07-.64-.09-1.29-.06-1.98l.09-1.99-1.86.31c-.86.15-1.74.16-2.61.03-.85-.12-1.57-.4-2.2-.85-.58-.41-1.01-1-1.33-1.79-.32-.81-.39-1.93-.21-3.34v-.03c.14-1.26.26-2.33.37-3.17.11-.82.21-1.58.3-2.28.09-.74.19-1.53.27-2.34.09-.82.22-1.94.4-3.32.11-.99.18-1.86.2-2.58.02-.9-.1-1.69-.36-2.35-.23-.58-.58-1.07-1.04-1.48l-.15-.14.15-.14c.46-.42.81-.92,1.04-1.5.26-.66.38-1.45.36-2.34-.02-.72-.09-1.59-.2-2.57v-.03c-.18-1.33-.31-2.43-.4-3.26-.09-.84-.18-1.63-.27-2.36-.09-.73-.19-1.49-.3-2.29-.11-.82-.24-1.88-.37-3.14v-.03c-.18-1.41-.11-2.53.21-3.34.32-.79.75-1.38,1.32-1.79.63-.45,1.34-.72,2.17-.82.89-.11,1.77-.11,2.65,0l1.83.24-.13-1.95c-.04-.66-.03-1.32.05-1.95.11-.89.37-1.66.8-2.33.39-.61.94-1.07,1.69-1.4.76-.34,1.83-.42,3.15-.23,1.18.14,2.2.28,3.02.4h.08c.74.12,1.43.22,2.08.31.67.1,1.39.19,2.2.29.78.09,1.84.24,3.13.42.95.12,1.77.19,2.44.21.85.02,1.58-.1,2.21-.38.55-.24,1.02-.61,1.4-1.1l.13-.16.13.16c.39.49.87.86,1.41,1.1.63.28,1.37.41,2.21.38.68-.02,1.47-.09,2.42-.21,1.27-.19,2.31-.33,3.1-.43.8-.1,1.54-.19,2.23-.29.68-.1,1.4-.2,2.16-.32.8-.12,1.8-.25,2.96-.39h.03c1.31-.19,2.39-.11,3.15.23.75.33,1.3.79,1.69,1.41.42.66.67,1.42.77,2.3.07.67.09,1.35.06,2.04l-.1,2,1.87-.32c.85-.15,1.73-.16,2.6-.03.84.12,1.56.4,2.2.85.58.41,1.01,1,1.32,1.79.32.81.39,1.93.22,3.34-.14,1.29-.26,2.36-.37,3.21-.11.82-.21,1.58-.3,2.29-.09.74-.19,1.53-.27,2.34-.08.8-.22,1.89-.4,3.32-.11,1-.18,1.88-.2,2.59-.02.89.1,1.68.36,2.34.23.58.58,1.08,1.04,1.48l.15.14-.15.14Z"/>
            <g>
              <path class="cls-1" d="M52.21,65.59c-.32,0-.67-.03-1.04-.08-1.17-.14-2.2-.28-3.02-.4-.77-.11-1.49-.22-2.16-.31-.66-.09-1.39-.19-2.24-.29-.78-.09-1.82-.23-3.1-.42-1.03-.13-1.92-.21-2.66-.23h-.26c-1.02,0-1.95.18-2.77.54-.26.12-.52.25-.76.41-.24-.16-.5-.29-.76-.41-.82-.36-1.75-.55-2.77-.55h-.27c-.74.03-1.62.1-2.6.23-1.29.19-2.32.33-3.08.42-.81.1-1.57.2-2.26.29-.7.1-1.42.2-2.19.32-.77.12-1.78.25-2.9.38-.45.06-.8.09-1.11.09-.45,0-.84-.06-1.07-.16-.38-.17-.64-.38-.81-.64-.25-.39-.39-.83-.45-1.39-.06-.53-.07-1.06-.05-1.64l.22-4.56-4.28.73c-.36.06-.73.09-1.09.09-.31,0-.62-.02-.93-.07-.55-.08-.98-.24-1.35-.51-.25-.18-.44-.46-.61-.88-.08-.21-.26-.85-.08-2.27.14-1.32.26-2.37.37-3.19.11-.83.21-1.59.3-2.3.1-.76.19-1.56.28-2.38.09-.81.22-1.91.39-3.28.12-1.07.2-2.01.22-2.79.03-1.2-.14-2.28-.51-3.21-.11-.29-.25-.56-.4-.83.15-.27.29-.55.4-.84.37-.93.54-2,.51-3.19-.02-.79-.09-1.72-.21-2.76-.18-1.39-.31-2.47-.4-3.28-.09-.86-.18-1.66-.28-2.4-.09-.73-.19-1.51-.3-2.32-.11-.8-.23-1.83-.36-3.08-.19-1.49-.01-2.14.07-2.35.16-.41.36-.68.61-.86.36-.26.77-.41,1.29-.47.35-.04.71-.07,1.06-.07s.74.02,1.12.07l4.23.56-.3-4.48c-.04-.52-.02-1.04.04-1.53.07-.58.23-1.04.49-1.45.17-.26.43-.47.81-.64.14-.06.46-.16,1.07-.16.31,0,.66.03,1.04.08,1.19.14,2.19.27,3.01.4l2.16.31c.68.1,1.42.19,2.25.29.77.09,1.81.23,3.09.42,1.03.13,1.92.21,2.65.23h.26c1.02,0,1.96-.18,2.78-.54.27-.12.52-.26.77-.42.24.16.5.29.76.41.83.36,1.76.55,2.78.55h.27c.73-.03,1.58-.1,2.6-.23,1.29-.19,2.31-.33,3.09-.42.81-.1,1.56-.19,2.26-.29.69-.1,1.42-.2,2.18-.32.78-.12,1.76-.25,2.91-.39.44-.06.79-.09,1.11-.09.45,0,.84.06,1.07.16.38.17.64.38.82.65.25.39.39.83.45,1.38.06.55.08,1.12.05,1.69l-.24,4.59,4.3-.74c.35-.06.72-.09,1.08-.09.31,0,.62.02.93.07.54.08.96.24,1.35.51.25.18.44.45.61.87.08.21.26.85.08,2.27-.14,1.3-.26,2.36-.37,3.19-.11.82-.21,1.59-.3,2.3-.1.75-.19,1.55-.28,2.38-.08.78-.21,1.85-.39,3.28-.12,1.08-.2,2.03-.22,2.81-.03,1.18.14,2.25.5,3.19.12.29.25.57.41.84-.15.26-.29.54-.4.83-.37.95-.54,2.03-.51,3.21.02.78.09,1.7.21,2.75.19,1.43.32,2.49.4,3.27.09.86.18,1.66.28,2.4.09.73.19,1.51.3,2.32.11.8.23,1.84.36,3.08.19,1.48.01,2.13-.07,2.34-.16.41-.36.69-.61.87-.36.26-.77.41-1.28.47-.35.04-.71.07-1.06.07s-.74-.02-1.1-.07l-4.2-.55.27,4.45c.03.52.02,1.01-.04,1.48-.07.59-.23,1.05-.49,1.46-.17.27-.43.47-.81.64-.13.06-.46.16-1.06.16Z"/>
              <path class="cls-4" d="M52.18,7.47c.46,0,.77.07.91.13.4.18.55.36.64.49.21.33.33.72.39,1.21.06.53.07,1.07.04,1.62l-.21,4.09-.05,1,.99-.17,3.81-.65c.33-.06.67-.09,1.02-.09.29,0,.59.02.88.06.48.07.84.2,1.17.44.12.08.29.24.47.69.06.14.23.71.05,2.09-.14,1.29-.26,2.36-.37,3.18-.11.82-.21,1.59-.3,2.3-.1.75-.19,1.56-.28,2.39-.08.77-.21,1.84-.39,3.28-.12,1.1-.2,2.05-.22,2.84-.03,1.23.14,2.36.53,3.35.09.24.2.47.32.69-.12.22-.22.45-.32.68-.39,1-.57,2.13-.54,3.36.02.78.09,1.72.21,2.8.19,1.42.32,2.48.4,3.26.09.86.19,1.66.28,2.41.09.73.19,1.51.3,2.32.11.8.23,1.84.36,3.09.18,1.42,0,2-.05,2.14-.18.44-.35.61-.47.69-.31.22-.65.34-1.1.4-.34.04-.68.06-1.01.06s-.7-.02-1.04-.07l-3.72-.49-.96-.13.06.97.24,3.97c.03.49.02.95-.04,1.41-.07.53-.2.93-.42,1.29-.09.13-.24.31-.64.49-.09.04-.35.13-.9.13-.3,0-.63-.03-1.01-.08-1.13-.14-2.17-.27-2.99-.39-.77-.11-1.49-.22-2.16-.32-.66-.09-1.4-.19-2.25-.3-.79-.09-1.82-.23-3.1-.42-1.03-.13-1.93-.21-2.69-.23-.1,0-.19,0-.28,0-1.08,0-2.06.19-2.94.58-.21.09-.41.19-.6.31-.19-.11-.4-.22-.6-.31-.87-.38-1.86-.58-2.93-.58-.09,0-.19,0-.28,0-.75.02-1.64.1-2.66.23-1.28.19-2.31.33-3.07.42-.82.1-1.57.2-2.27.29-.7.1-1.43.2-2.19.32-.78.12-1.78.25-2.9.38h-.07c-.36.06-.68.09-.98.09-.46,0-.77-.07-.91-.13-.4-.18-.55-.36-.64-.49-.22-.34-.34-.71-.39-1.22-.06-.51-.07-1.02-.05-1.57l.19-4.06.05-1-.98.17-3.79.64c-.34.06-.68.09-1.03.09-.29,0-.59-.02-.88-.06-.48-.07-.85-.2-1.17-.44-.12-.08-.29-.25-.47-.7-.06-.14-.22-.71-.05-2.07v-.05s0,0,0,0c.13-1.26.26-2.31.37-3.13.11-.83.21-1.59.3-2.3.1-.76.19-1.56.28-2.39.09-.81.22-1.91.39-3.28.12-1.08.2-2.03.22-2.83.03-1.25-.15-2.39-.54-3.37-.09-.23-.2-.46-.32-.68.12-.22.22-.45.32-.69.39-.98.57-2.11.54-3.35-.02-.8-.1-1.74-.21-2.8v-.06c-.18-1.32-.31-2.4-.4-3.21-.09-.86-.18-1.66-.28-2.4-.09-.74-.19-1.51-.3-2.32-.11-.8-.23-1.83-.36-3.08v-.06c-.18-1.37,0-1.94.05-2.09.18-.44.35-.6.47-.69.31-.22.65-.35,1.1-.4.34-.04.68-.06,1.01-.06.35,0,.71.02,1.06.07l3.74.49.97.13-.06-.97-.26-3.99c-.03-.5-.02-.99.04-1.46.07-.53.2-.92.43-1.28.08-.13.23-.31.64-.49.09-.04.35-.13.91-.13.3,0,.63.03,1,.08,1.18.14,2.19.27,3,.39h.08c.74.12,1.44.22,2.08.31.69.1,1.43.2,2.26.3.77.09,1.81.23,3.1.42,1.04.13,1.94.21,2.69.23.09,0,.18,0,.27,0,1.08,0,2.07-.19,2.94-.58.21-.09.41-.2.6-.31.19.11.39.22.6.31.88.39,1.87.58,2.94.58.09,0,.19,0,.28,0,.75-.02,1.61-.1,2.65-.23,1.26-.19,2.29-.33,3.07-.42.81-.1,1.57-.2,2.27-.29.69-.1,1.42-.2,2.19-.32.77-.12,1.75-.25,2.9-.38h.05s0,0,0,0c.38-.05.7-.08,1-.08M52.18,6.67c-.33,0-.7.03-1.11.09h-.04c-1.15.14-2.14.27-2.92.39-.76.11-1.49.22-2.18.32-.7.1-1.45.19-2.26.29-.78.09-1.81.24-3.09.42-1,.13-1.84.2-2.56.22-.09,0-.17,0-.26,0-.96,0-1.83-.17-2.61-.51-.33-.14-.63-.32-.92-.53-.29.21-.6.39-.93.53-.77.34-1.65.51-2.62.51-.08,0-.16,0-.25,0-.71-.02-1.58-.1-2.61-.23-1.29-.18-2.33-.33-3.1-.42-.82-.1-1.56-.19-2.24-.29-.65-.09-1.34-.19-2.08-.3h-.08c-.83-.13-1.83-.26-3.02-.41-.4-.06-.76-.08-1.1-.08-.65,0-1.03.11-1.23.2-.46.21-.78.46-.99.79-.29.46-.47.97-.55,1.62-.07.52-.08,1.06-.04,1.61l.26,3.99-3.74-.49c-.39-.05-.78-.08-1.17-.08-.37,0-.74.02-1.11.07-.58.07-1.05.24-1.47.54-.32.22-.55.56-.75,1.04-.12.3-.29,1.02-.1,2.48v.05c.14,1.25.26,2.29.37,3.09.11.81.21,1.58.3,2.31.09.74.18,1.54.27,2.39.09.81.22,1.89.39,3.23v.05c.12,1.03.19,1.94.22,2.72.03,1.13-.13,2.15-.48,3.03-.14.35-.3.67-.5.98.2.31.36.63.5.98.35.88.51,1.9.48,3.05-.02.77-.09,1.69-.22,2.76-.18,1.37-.31,2.47-.39,3.29-.09.82-.18,1.62-.28,2.37-.09.71-.19,1.47-.3,2.29-.11.82-.23,1.87-.37,3.15v.04c-.19,1.45-.02,2.17.1,2.46.2.49.44.83.75,1.05.43.31.92.49,1.53.58.33.05.66.07.99.07.39,0,.78-.03,1.16-.1l3.79-.64-.19,4.06c-.03.59-.01,1.15.05,1.7.07.62.23,1.12.51,1.56.21.34.53.59.99.79.28.13.72.2,1.23.2.33,0,.7-.03,1.09-.08h.06c1.13-.14,2.13-.28,2.91-.39.76-.12,1.49-.22,2.18-.32.7-.1,1.45-.19,2.26-.29.77-.09,1.8-.23,3.09-.42.97-.12,1.84-.2,2.57-.22.09,0,.17,0,.26,0,.96,0,1.84.17,2.61.51.33.14.64.32.93.53.29-.21.6-.39.93-.53.77-.34,1.65-.51,2.61-.51.08,0,.16,0,.25,0,.73.02,1.6.1,2.61.23,1.28.18,2.33.33,3.1.42.85.1,1.58.2,2.23.29.67.1,1.39.2,2.16.31.82.12,1.85.26,3.02.4.4.06.77.08,1.1.08.65,0,1.03-.11,1.23-.2.46-.21.78-.46.99-.79.29-.46.46-.97.54-1.62.06-.5.08-1.01.05-1.55l-.24-3.97,3.72.49c.38.05.77.07,1.15.07s.74-.02,1.11-.07c.58-.07,1.05-.24,1.47-.54.32-.23.56-.56.75-1.05.12-.3.29-1.02.1-2.53-.13-1.25-.26-2.29-.36-3.09-.11-.81-.21-1.58-.3-2.31-.09-.74-.18-1.54-.28-2.39-.08-.79-.21-1.85-.4-3.28-.12-1.05-.19-1.96-.21-2.72-.03-1.12.13-2.15.48-3.05.14-.34.3-.67.5-.98-.2-.31-.36-.63-.5-.98-.35-.89-.51-1.91-.48-3.03.02-.76.09-1.68.21-2.77.18-1.43.31-2.51.39-3.29.09-.82.18-1.62.28-2.37.09-.71.19-1.48.3-2.29.11-.83.23-1.9.37-3.2.18-1.45.01-2.17-.11-2.47-.19-.49-.43-.82-.75-1.05-.43-.31-.92-.49-1.52-.58-.33-.05-.66-.07-.99-.07-.39,0-.77.03-1.15.1l-3.81.65.21-4.09c.03-.59.01-1.18-.05-1.75-.07-.62-.23-1.11-.51-1.55-.22-.34-.53-.59-.99-.8-.28-.13-.72-.2-1.24-.2h0Z"/>
            </g>
          </g>
        </g>
      </g>
    </g>
  </g>
</svg>