<?xml version="1.0" encoding="UTF-8"?>
<svg id="_图层_2" data-name="图层 2" xmlns="http://www.w3.org/2000/svg" viewBox="0 0 53.96 12.92">
  <defs>
    <style>
      .cls-1 {
        fill: #fff;
      }

      .cls-2 {
        fill: #7ccdf2;
      }
    </style>
  </defs>
  <g id="Layer_1" data-name="Layer 1">
    <g>
      <path class="cls-2" d="M47.5,12.92H6.46c-3.57,0-6.46-2.89-6.46-6.46h0C0,2.89,2.89,0,6.46,0h41.03c3.57,0,6.46,2.89,6.46,6.46h0c0,3.57-2.89,6.46-6.46,6.46Z"/>
      <g>
        <path class="cls-1" d="M20.41,8.81c.78,0,.89-.24.99-1.38.14.1.38.19.53.21-.14,1.3-.37,1.69-1.53,1.69h-2.67c-1.14,0-1.5-.2-1.5-1.08v-3.56h.53v1.17h3.72v-1.87h-4.63v-.52h5.17v3.26h-.54v-.36h-3.72v1.88c0,.45.16.55.93.55h2.71Z"/>
        <path class="cls-1" d="M28.27,8.93c.27,0,.31-.13.34-.94.12.09.33.17.48.21-.06.98-.21,1.23-.78,1.23h-1.09c-.65,0-.81-.16-.81-.73v-1.77h-1.25c-.11,1.48-.48,2.24-2.24,2.62-.04-.13-.18-.34-.28-.44,1.6-.31,1.9-.92,1.99-2.18h-1.9v-.51h6.26v.51h-2.05v1.77c0,.21.05.24.34.24h.98ZM23.43,5.4h-.52v-1.56h2.75c-.1-.23-.23-.51-.36-.73l.53-.15c.17.27.36.62.46.88h2.51v1.56h-.54v-1.05h-4.82v1.05ZM23.93,5.59v-.49h3.84v.49h-3.84Z"/>
        <path class="cls-1" d="M35.74,5.44c-.31.92-.73,1.73-1.25,2.41.26.7.59,1.1.96,1.1.2,0,.28-.37.33-1.32.12.12.31.24.46.29-.1,1.21-.29,1.56-.83,1.56s-.98-.43-1.3-1.17c-.43.46-.92.86-1.47,1.18-.08-.11-.26-.32-.38-.42.63-.34,1.18-.78,1.64-1.32-.26-.81-.43-1.85-.52-3h-2.46v.93h1.82v.23c-.04,1.6-.08,2.19-.23,2.38-.11.14-.23.19-.43.21-.18.01-.5.01-.85,0,0-.16-.06-.36-.15-.5.33.03.63.04.76.04.1,0,.17-.01.21-.08.1-.11.14-.56.16-1.78h-1.3v.06c0,1-.11,2.43-.75,3.36-.09-.11-.32-.29-.44-.36.58-.87.65-2.09.65-3.01v-1.99h2.97c-.03-.39-.04-.79-.04-1.2h.55c0,.41,0,.81.03,1.2h2.3v.52h-2.27c.07.95.2,1.8.39,2.47.38-.56.69-1.2.91-1.92l.53.14ZM34.5,3.06c.44.22,1,.56,1.28.81l-.33.36c-.27-.25-.81-.61-1.26-.85l.31-.32Z"/>
      </g>
    </g>
  </g>
</svg>