<?xml version="1.0" encoding="UTF-8"?>
<svg id="_图层_2" data-name="图层 2" xmlns="http://www.w3.org/2000/svg" viewBox="0 0 46.55 34.29">
  <defs>
    <style>
      .cls-1 {
        fill: #93cbd6;
      }

      .cls-2 {
        fill: #271e1c;
      }

      .cls-3 {
        fill: #fdfdfc;
      }

      .cls-4 {
        fill: #241917;
      }

      .cls-5 {
        fill: #f5ca29;
      }

      .cls-6 {
        fill: #efc822;
      }

      .cls-7 {
        fill: #f39f2a;
      }

      .cls-8 {
        fill: #fafbfa;
      }

      .cls-9 {
        fill: #faf9f1;
      }

      .cls-10 {
        fill: #fafbfb;
      }

      .cls-11 {
        fill: #fafbf8;
      }

      .cls-12 {
        fill: #241b19;
      }

      .cls-13 {
        fill: #261e1c;
      }

      .cls-14 {
        fill: #94cad6;
      }

      .cls-15 {
        fill: #eec927;
      }

      .cls-16 {
        fill: #eec92b;
      }

      .cls-17 {
        fill: #eec824;
      }

      .cls-18 {
        fill: #221715;
      }

      .cls-19 {
        fill: #efc821;
      }

      .cls-20 {
        fill: #2c2422;
      }

      .cls-21 {
        fill: #fbfbf6;
      }

      .cls-22 {
        fill: #eec822;
      }

      .cls-23 {
        fill: #efeeef;
      }
    </style>
  </defs>
  <g id="Layer_1" data-name="Layer 1">
    <g>
      <path class="cls-18" d="M14.87,12.91c-.02-.42.27-.54.6-.6.51-.1.8-.41,1.04-.87.58-1.12,1.18-2.24,1.81-3.33.68-1.18,1.69-1.9,3.08-1.88,1.41.02,2.58.58,3.3,1.88.69,1.24,1.4,2.48,2.06,3.74.25.47.56.69,1.08.75.99.12,1.97.31,2.95.44,2.58.35,3.9,2.33,3.22,4.84-.08.31-.22.58-.44.82-1.01,1.1-1.99,2.23-3.01,3.32-.34.37-.45.72-.39,1.21.19,1.62.35,3.24.49,4.86.11,1.27-.56,2.38-1.74,2.85-1.09.43-2.19.49-3.28-.09-1.14-.6-2.31-1.13-3.46-1.72-.46-.24-.89-.23-1.35.02-1.05.57-2.1,1.15-3.17,1.67-1.95.95-3.77.47-4.85-1.25-.24-.38-.35-.77-.38-1.21-.12-1.71.16-3.38.52-5.04.09-.43.05-.75-.28-1.09-.86-.86-1.68-1.78-2.53-2.66-.25-.26-.39-.5-.18-.83.21-.51.55-.44.84-.13.99,1.06,1.94,2.15,2.89,3.24.27.31.3.69.25,1.09-.16,1.23-.38,2.46-.55,3.69-.28,1.98.37,2.95,2.32,3.49.53.18,1,.06,1.5-.16,1.2-.53,2.38-1.1,3.53-1.73.71-.39,1.33-.44,2.02,0,.84.52,1.75.93,2.61,1.43.35.21.72.39,1.11.49,1.48.4,2.39-.41,3.09-1.4.17-.24.13-.51.11-.79-.12-1.76-.34-3.51-.49-5.27-.04-.5.06-.88.42-1.22.88-.85,1.64-1.81,2.51-2.67.66-.65,1.13-1.41,1.04-2.41-.08-.99-.57-1.64-1.52-1.93-1.51-.47-3.05-.86-4.61-1.15-.7-.13-1.12-.51-1.43-1.11-.62-1.21-1.26-2.4-1.95-3.57-.44-.74-1.06-1.22-1.92-1.37-.1.01-.2,0-.3,0-.95.11-1.59.64-2.11,1.42-.78,1.17-1.37,2.44-1.96,3.7-.12.27-.21.55-.42.77-.22.18-.47.23-.74.22-.39-.03-.79.05-1.18-.08-.16-.09-.25-.21-.16-.4Z"/>
      <path class="cls-3" d="M14.87,12.91c.05.1.01.25.16.29.13.18.55-.17.53.29-.68.39-1.48.41-2.19.68-.21.08-.43.14-.64.21-2.12.72-2.64,2.86-1.1,4.54.69.75,1.5,1.38,2.23,2.08.63.6.88,1.21.73,2.1-.23,1.4-.33,2.83-.31,4.26.01.98.22,1.84,1.12,2.4.19.12.37.27.36.54-1.72-.15-2.85-1.47-2.64-3.17.17-1.43.4-2.86.63-4.28.05-.34.03-.59-.21-.86-.95-1.05-1.9-2.12-2.82-3.2-.28-.33-.5-.3-.77-.05-.2-.41-.37-.84-.61-1.23-.13-.22.04-.26.11-.37-.02-1.19.5-2.12,1.42-2.84.22-.17.42-.43.77-.3.21-.62.78-.6,1.28-.75.64-.19,1.27-.38,1.94-.34Z"/>
      <path class="cls-12" d="M22.05,34.28c-2.56,0-5.11,0-7.67,0-.22,0-.57.13-.58-.26-.01-.38.33-.29.56-.29,5.13,0,10.27,0,15.4,0,.24,0,.58-.08.59.27.01.37-.34.28-.57.28-2.58,0-5.16,0-7.73,0Z"/>
      <path class="cls-19" d="M46.55,11.9c-.02.2-.14.35-.32.41-.38.13-.62.35-.78.74-.21.5-.56.49-.81,0-.14-.28-.19-.59-.62-.56-.08,0-.23-.12-.25-.2-.14-.58-.61-.78-1.06-1.07-.45-.29-.12-.64.21-.74.44-.14.67-.39.79-.81.06-.19.2-.37.43-.38.27-.01.42.2.48.41.12.4.33.67.76.75.04,0,.09.04.11.07.29.46.45,1.03,1.02,1.27.03.01.03.08.04.13Z"/>
      <path class="cls-22" d="M1.64,12.07c-.25-.05-.42-.22-.47-.44-.09-.43-.35-.63-.75-.75C.2,10.83,0,10.66,0,10.42c0-.26.23-.4.44-.46.37-.11.62-.31.72-.7.06-.24.21-.48.51-.46.25.02.39.23.45.45.11.34.27.59.66.67.26.05.47.23.49.5.02.28-.22.45-.47.5-.38.08-.57.3-.66.66-.06.25-.22.44-.5.5Z"/>
      <path class="cls-6" d="M38.53,13.44s0,.06-.01.07c-.63.4-1.09.97-1.58,1.52-.14.15-.41-.13-.48-.35-.14-.4-.35-.66-.79-.82-.53-.19-.55-.68-.04-.87.48-.18.68-.49.87-.91.18-.38.56-.48.76-.04.22.47.47.84.99.99.17.05.28.22.28.43Z"/>
      <path class="cls-22" d="M41.98,29.2c-.29-.02-.43-.21-.5-.42-.14-.38-.35-.66-.76-.77-.22-.06-.42-.2-.4-.47.02-.26.22-.42.43-.47.42-.08.59-.34.71-.71.07-.21.2-.42.47-.42.28,0,.43.2.48.41.09.44.37.61.76.74.2.07.42.22.39.49-.02.23-.19.38-.39.42-.45.1-.69.35-.79.79-.04.2-.22.33-.4.4Z"/>
      <path class="cls-4" d="M11.65,14.01c-1.09.65-1.95,1.44-1.95,2.84,0,.15-.14.22-.24.3-.62.11-.8-.17-.71-.75.23-1.43,1.09-2.39,2.33-3,.54-.26.64.17.56.62Z"/>
      <path class="cls-15" d="M8.9,7.32c0,.12-.07.22-.18.26-.33.12-.57.32-.68.67-.05.16-.29.28-.38.17-.31-.39-.65-.73-1.04-1.05-.1-.08.03-.36.19-.37.58-.02.47-.85.94-.84.47,0,.36.82.94.84.11,0,.21.16.21.31Z"/>
      <path class="cls-1" d="M37.9,4.23c.54.06.96.56.91,1.08-.05.52-.5.86-1.06.81-.56-.05-.88-.44-.84-1.02.05-.57.45-.93.99-.88Z"/>
      <path class="cls-13" d="M11.3,34.28c-.54,0-1.08,0-1.62,0-.2,0-.45.03-.47-.25-.01-.26.2-.31.43-.31,1.13,0,2.25,0,3.38,0,.23,0,.43.04.43.31,0,.3-.26.25-.45.25-.56,0-1.13,0-1.69,0Z"/>
      <path class="cls-14" d="M21.96.95c0,.51-.5.99-1.03.95-.56-.04-.85-.38-.87-.93-.02-.57.4-.98.97-.97.55.01.93.4.93.95Z"/>
      <path class="cls-2" d="M33.67,34.28c-.41,0-.81,0-1.22,0-.17,0-.32-.06-.31-.27,0-.2.14-.28.31-.28.84,0,1.67,0,2.51,0,.17,0,.31.08.31.28,0,.21-.14.27-.31.27-.43,0-.86,0-1.29,0Z"/>
      <path class="cls-16" d="M29.21,9.11c-.15,0-.89-.76-.84-.81.25-.27.55-.75.77-.72.31.04.75.46.77.75.02.25-.46.54-.7.79Z"/>
      <path class="cls-17" d="M3.81,16.33c-.41-.02-.63-.24-.62-.64.01-.4.24-.62.66-.6.39.02.58.25.59.61.01.41-.21.62-.63.64Z"/>
      <path class="cls-20" d="M31.25,34.28c-.23-.01-.53.05-.54-.25-.01-.34.29-.32.54-.32.25,0,.55-.03.52.33-.03.33-.33.2-.52.23Z"/>
      <path class="cls-5" d="M15.77,30.3c-1.38-.72-1.78-1.9-1.69-3.39.08-1.47.17-2.93.39-4.38.05-.34-.03-.59-.27-.85-.79-.84-1.67-1.59-2.5-2.38-1.08-1.02-1.42-2.27-.91-3.71.2-.58.58-.93,1.15-1.14,1.19-.44,2.41-.73,3.64-1.03.21-.18.49-.14.73-.21.2-.05.42.04.6-.11.41-.23.66-.58.85-1.01.78-1.72,2.03-3.12,3.19-4.58.14-.17.31-.32.53-.4.09,0,.18,0,.27,0,.32.05.43.31.55.55.97,1.82,1.97,3.61,2.96,5.42.27.5.6.69,1.17.72,1.7.09,3.39.29,4.94,1.05,1.21.59,1.63,1.89,1.06,3.1-.29.63-.69,1.19-1.25,1.59-.85.6-1.41,1.46-2.14,2.16-.33.32-.34.71-.29,1.13.17,1.71.2,3.43.37,5.14.19,1.92-1.12,2.63-2.64,2.36-.82-.16-1.46-.7-2.18-1.05-.83-.4-1.63-1.17-2.46-1.19-.83-.02-1.67.69-2.51,1.08-.73.35-1.48.68-2.2,1.06-.45.23-.89.3-1.35.07Z"/>
      <path class="cls-7" d="M26.47,30.33c.27,0,.54,0,.81-.03.89-.07,1.63-.81,1.61-1.68-.05-1.96-.17-3.91-.39-5.86-.06-.5.07-.88.43-1.28.85-.96,1.82-1.8,2.72-2.71.41-.42.73-.92.78-1.53.1-1.39-.57-2.24-1.93-2.57-1.51-.37-3.03-.71-4.6-.68-.41,0-.53-.27-.68-.55-1.11-2.06-2.22-4.12-3.34-6.18-.03-.06-.09-.1-.14-.15,1.05.04,1.69.68,2.16,1.52.72,1.28,1.42,2.57,2.11,3.86.18.34.4.48.77.56,1.64.34,3.27.69,4.86,1.2,1.54.49,2.2,2.03,1.51,3.51-.26.56-.67,1.01-1.11,1.44-.59.59-1.09,1.29-1.74,1.8-.87.68-.97,1.49-.84,2.49.21,1.57.33,3.14.48,4.72.02.16.02.3-.05.46-.54,1.26-2.09,2.01-3.42,1.64Z"/>
      <path class="cls-11" d="M21.47,7.11c-.86,1.13-1.73,2.25-2.58,3.39-.46.61-.87,1.28-1.11,2-.16.46-.4.66-.87.61.65-1.72,1.42-3.37,2.52-4.85.51-.68,1.16-1.14,2.05-1.15Z"/>
      <path class="cls-23" d="M16.3,13.22c-.23.11-.47.2-.73.21-.18-.07-.35-.14-.53-.21.42,0,.84,0,1.27,0Z"/>
      <path class="cls-8" d="M38.28,5.15c-.03.3-.16.51-.45.5-.24,0-.43-.18-.44-.43-.01-.29.18-.45.46-.46.27-.01.4.15.43.39Z"/>
      <path class="cls-10" d="M20.99.46c.27.04.44.2.44.49,0,.27-.16.41-.42.41-.25,0-.45-.13-.47-.39-.03-.29.18-.44.45-.51Z"/>
      <path class="cls-21" d="M19.78,10.92c-.23,0-.23-.17-.19-.33.2-.79.63-1.44,1.28-1.93.24-.18.43-.06.36.22-.2.81-.66,1.48-1.32,1.99-.03.03-.08.03-.14.05Z"/>
      <path class="cls-9" d="M18.73,12.71c-.19-.05-.27-.19-.25-.4.03-.41.55-1.06.84-1.02.23.03.27.18.25.39-.03.4-.56,1.06-.85,1.04Z"/>
    </g>
  </g>
</svg>