<?xml version="1.0" encoding="UTF-8"?>
<svg id="_图层_2" data-name="图层 2" xmlns="http://www.w3.org/2000/svg" viewBox="0 0 42.41 34.15">
  <defs>
    <style>
      .cls-1 {
        fill: #f9eae8;
      }

      .cls-2 {
        fill: #050101;
      }

      .cls-3 {
        fill: #080707;
      }

      .cls-4 {
        fill: #626262;
      }

      .cls-5 {
        fill: #151716;
      }

      .cls-6 {
        fill: #f3c71e;
      }

      .cls-7 {
        fill: #e72c1f;
      }

      .cls-8 {
        fill: #121313;
      }

      .cls-9 {
        fill: #fdfdfb;
      }

      .cls-10 {
        fill: #f6faf8;
      }

      .cls-11 {
        fill: #de4c22;
      }

      .cls-12 {
        fill: #6fc7e6;
      }

      .cls-13 {
        fill: #7dcbe7;
      }

      .cls-14 {
        fill: #656464;
      }

      .cls-15 {
        fill: #191a1a;
      }

      .cls-16 {
        fill: #f9ece8;
      }

      .cls-17 {
        fill: #2b150d;
      }

      .cls-18 {
        fill: #fafcfb;
      }

      .cls-19 {
        fill: #eb6262;
      }

      .cls-20 {
        fill: #efea41;
      }

      .cls-21 {
        fill: #2d2211;
      }

      .cls-22 {
        fill: #e62d22;
      }

      .cls-23 {
        fill: #78c9d5;
      }

      .cls-24 {
        fill: #282010;
      }

      .cls-25 {
        fill: #e58121;
      }

      .cls-26 {
        fill: #0c0d0d;
      }

      .cls-27 {
        fill: #0e0f0f;
      }

      .cls-28 {
        fill: #e63627;
      }
    </style>
  </defs>
  <g id="Layer_1" data-name="Layer 1">
    <g>
      <path class="cls-6" d="M16.17,26.04c-.45,0-.91-.02-1.36-.02-.95-.21-1.94,0-2.88-.31-.36-.27-.42-.68-.51-1.08-.85-3.79-.26-7.36,1.82-10.64.95-1.5,2.23-2.73,3.83-3.57.36-.19.72-.38,1.05-.63,2.57-.97,5.07-.75,7.52.43,5.28,2.98,6.97,8.94,5.84,14.49-.08.39-.12.82-.55,1.04-.49.18-1.01.14-1.51.14-3.16,0-6.32,0-9.48,0-1.25,0-2.51,0-3.76.13Z"/>
      <path class="cls-2" d="M16.17,26.04c.37-.45.87-.43,1.39-.43,4.51,0,9.01-.02,13.52-.04.43-.33.6-.81.76-1.3,1.49-4.58.09-9.03-3.87-12.31-.73-.61-1.49-1.17-2.39-1.51-2.39-1.14-4.84-1.19-7.35-.47-1.92.82-3.63,1.95-5.01,3.53-2.78,3.17-3.51,6.78-2.25,10.81.17.54.48.97.96,1.26.64.01,1.28.04,1.91.03.4,0,.73.09.97.41.05.66-.26.89-.91.88-3.06-.02-6.13-.02-9.2,0-.44,0-.89-.04-.92-.56-.03-.56.41-.72.91-.72,1.67,0,3.33,0,5.07,0-.8-2.25-1.09-4.46-.78-6.78.86-6.47,7.45-11.48,13.9-10.5,6.83,1.04,11.31,6.36,11.06,13.16-.04,1.2-.31,2.36-.68,3.49-.17.52-.11.67.44.63.26-.02.55.01.8.09.29.08.45.34.42.63-.03.28-.2.51-.53.53-.17.01-.34.02-.51.02-5.55,0-11.1,0-16.65,0-.62,0-1.1-.08-1.06-.86Z"/>
      <path class="cls-8" d="M18.73,28.1c2.62,0,5.24,0,7.85,0,.27,0,.55-.01.81.03.37.06.64.28.6.69-.03.35-.27.54-.61.57-.24.02-.48.02-.71.02-5.41,0-10.81,0-16.22,0-.17,0-.34,0-.51,0-.39-.02-.68-.21-.7-.6-.02-.45.29-.67.71-.7.44-.03.88-.02,1.33-.02,2.48,0,4.96,0,7.45,0Z"/>
      <path class="cls-3" d="M22.52,30.62c2.21,0,4.42,0,6.63,0,.46,0,1.07-.11,1.09.58.02.72-.58.7-1.11.7-4.42,0-8.84,0-13.25,0-.1,0-.2,0-.31,0-.44-.02-.84-.13-.84-.67,0-.57.43-.61.86-.61,2.31,0,4.62,0,6.93,0Z"/>
      <path class="cls-5" d="M20.91,34.14c-.99,0-1.97,0-2.96,0-.51,0-.93-.16-.91-.71.02-.5.46-.6.91-.6,1.97,0,3.95,0,5.92,0,.42,0,.88.04.9.6.02.6-.41.71-.9.71-.99,0-1.97,0-2.96,0h0Z"/>
      <path class="cls-20" d="M30.82,3.87c-.43-.66-1.05-.4-1.66-.39-.46,0-.71-.45-.33-.87.3-.34.52-.59.17-1.01-.22-.26-.05-.52.16-.71.23-.21.52-.21.74,0,.32.3.59.54,1.02.14.21-.19.46-.02.63.15.22.21.31.56.1.73-.49.38-.37.71-.18,1.18.18.44-.22.64-.65.79Z"/>
      <path class="cls-12" d="M40.16,10.08c.51.58,1.21.41,1.88.45.25.01.36.53.26.56-1.11.4.52,1.73-.72,2.03-.14.03-.37-.03-.46-.13-.29-.31-.55-.44-.95-.13-.22.17-.52.12-.71-.16-.18-.25-.24-.52.02-.73.43-.33.34-.64.12-1.05-.25-.48.15-.65.55-.84Z"/>
      <path class="cls-15" d="M32.16,29.41c-.54,0-1.09,0-1.63,0-.43,0-.75-.2-.76-.64,0-.39.27-.65.65-.66,1.16-.03,2.31-.02,3.47,0,.36,0,.67.22.66.64-.01.45-.33.64-.75.65-.54,0-1.09,0-1.63,0Z"/>
      <path class="cls-19" d="M9.89.68c.32.2.51.08.64-.29.12-.33.39-.46.73-.36.36.1.5.37.38.7-.14.39-.09.65.34.76.03,0,.06.03.09.05.3.22.37.66.14.79-.67.37-1.39.67-2.13.86-.25.07-.52-.34-.35-.69.2-.42.02-.6-.34-.77-.31-.14-.46-.42-.3-.75.15-.32.43-.42.8-.31Z"/>
      <path class="cls-13" d="M5.04,3.82c-.04.83-.82,1.64-1.51,1.58-.74-.07-1.59-.79-1.59-1.35,0-.57.96-1.67,1.45-1.66.69.01,1.68.88,1.66,1.44Z"/>
      <path class="cls-22" d="M42.29,4.5c.04.46-.96,1.68-1.41,1.72-.63.05-1.68-.74-1.78-1.34-.07-.46.96-1.77,1.42-1.79.54-.02,1.73.93,1.77,1.42Z"/>
      <path class="cls-27" d="M37.92,26.89c-.34,0-.68,0-1.02,0-.37,0-.68-.12-.71-.55-.03-.47.29-.68.69-.71.64-.04,1.29-.03,1.93,0,.41.02.72.23.7.69-.02.5-.38.58-.79.57-.27,0-.54,0-.81,0Z"/>
      <path class="cls-26" d="M11.25,30.62c.24,0,.47,0,.71,0,.46,0,.94.03.91.65-.02.5-.42.63-.87.63-.5,0-1.01,0-1.51,0-.44,0-.83-.12-.86-.64-.03-.56.38-.64.81-.64.27,0,.54,0,.81,0Z"/>
      <path class="cls-7" d="M8.97,9.74c-.44.67-1.19.82-1.59.88-.7.1-.67-.98-.77-1.38-.16-.65.96-.65,1.37-.75.74-.17.06,1.16.99,1.26Z"/>
      <path class="cls-14" d="M7.19,16.59c-.06.54-.38.83-.93.82-.58,0-.88-.4-.86-.91.01-.53.37-.88.93-.86.54.03.85.36.87.94Z"/>
      <path class="cls-23" d="M0,13.54c.02-.64.34-1.05,1-1.02.65.02,1.09.32,1.07,1.08-.02.68-.42,1.05-1.01,1.05C.43,14.65-.01,14.27,0,13.54Z"/>
      <path class="cls-4" d="M36.63,14.74c-.55-.06-.89-.34-.9-.91,0-.58.35-.88.9-.88.51,0,.81.31.83.83.03.58-.3.86-.84.95Z"/>
      <path class="cls-28" d="M41.42,19.77c-.66-.05-1.06-.41-1.07-1.03,0-.62.38-1.02,1.02-1.03.64,0,1.03.38,1.04,1.02,0,.64-.39.98-.99,1.05Z"/>
      <path class="cls-9" d="M11.92,25.57c-.69.24-.87-.24-1.06-.74-2.37-6.13,1-12.95,7.35-14.86-.94.76-2.11,1.18-2.99,2.06-3.62,3.66-4.54,8.03-3.45,12.94.04.2.09.4.14.59Z"/>
      <path class="cls-25" d="M25.56,10.44c1.97.51,3.42,1.79,4.62,3.32,2.6,3.33,3.16,7.05,1.74,11.04-.14.38-.17.94-.84.76.23-1.4.48-2.79.45-4.23-.09-4.6-1.81-8.28-5.83-10.74-.05-.03-.09-.1-.13-.15Z"/>
      <path class="cls-17" d="M20.48,20.99c-.37-.21-.72-.52-.6-.94.13-.47.63-.19.96-.25.19-.04.41-.05.6,0,.41.1,1.12-.32,1.19.29.07.57-.45,1.01-1.11,1.07-.24-.69-.66-.31-1.04-.18Z"/>
      <path class="cls-11" d="M20.48,20.99c.17-.73.78-.6,1.18-.44.56.22-.06.41-.14.62-.42.33-.72.03-1.04-.18Z"/>
      <path class="cls-24" d="M18.9,19.69c-.02.29-.15.53-.45.55-.35.02-.58-.2-.59-.53,0-.29.2-.48.51-.49.33-.01.48.16.53.47Z"/>
      <path class="cls-21" d="M24.64,19.7c-.02.28-.16.51-.46.55-.36.04-.58-.21-.59-.53-.01-.28.19-.49.51-.5.32-.01.48.17.54.48Z"/>
      <path class="cls-18" d="M4.11,3.86c-.03.49-.26.69-.66.67-.36-.02-.56-.22-.57-.58-.01-.4.18-.64.6-.64.42,0,.6.23.63.55Z"/>
      <path class="cls-16" d="M40.66,3.96c.41.05.7.25.7.69,0,.37-.2.66-.6.68-.45.02-.7-.24-.72-.67-.02-.39.23-.61.62-.7Z"/>
      <path class="cls-10" d="M1.07,12.98c.3.13.57.28.56.64-.02.37-.27.52-.62.51-.35-.02-.58-.21-.55-.58.04-.34.29-.51.61-.57Z"/>
      <path class="cls-1" d="M41.41,19.36c-.38-.05-.66-.25-.66-.63,0-.37.27-.63.66-.62.33,0,.57.23.59.58.02.4-.21.61-.59.68Z"/>
    </g>
  </g>
</svg>