<?xml version="1.0" encoding="UTF-8"?>
<svg id="_图层_2" data-name="图层 2" xmlns="http://www.w3.org/2000/svg" viewBox="0 0 17.77 15.5">
  <defs>
    <style>
      .cls-1 {
        fill: #006934;
      }
    </style>
  </defs>
  <g id="Layer_1" data-name="Layer 1">
    <g>
      <path class="cls-1" d="M1.68,15.5c-.93,0-1.68-.74-1.68-1.65h0V4.62c0-.91.75-1.64,1.68-1.65h7.61c.93,0,1.68.74,1.68,1.65h0v9.24c0,.91-.75,1.64-1.68,1.65H1.68ZM1.08,4.62v9.24c0,.33.27.59.61.59h7.61c.34,0,.61-.27.61-.59h0V4.62c0-.33-.27-.59-.61-.59H1.68c-.33,0-.61.27-.61.59h0Z"/>
      <path class="cls-1" d="M9.14,10.25l-1.88-1.83-1.73,2.82.7.68,2.92-1.67Z"/>
      <path class="cls-1" d="M17.34.41c-.57-.55-1.48-.55-2.05,0l-.58.57,2.05,2,.58-.57c.57-.55.57-1.45,0-2ZM16.3,3.45l-2.05-2.01-6.71,6.56,2.05,2,6.71-6.55Z"/>
      <path class="cls-1" d="M5.88,12.17l-.66-.65-1.01,1.63,1.67-.98Z"/>
      <path class="cls-1" d="M9.25,10.25l-3.03,1.77-.8-.78,1.77-2.86.07.04-.07-.04.05-.09,2,1.96h0ZM7.28,8.54l-1.65,2.66.62.61,2.74-1.6-1.71-1.67h0Z"/>
    </g>
  </g>
</svg>