<?xml version="1.0" encoding="UTF-8"?>
<svg id="_图层_2" data-name="图层 2" xmlns="http://www.w3.org/2000/svg" viewBox="0 0 12.76 17.43">
  <defs>
    <style>
      .cls-1 {
        fill: #595757;
      }
    </style>
  </defs>
  <g id="Layer_1" data-name="Layer 1">
    <g>
      <path class="cls-1" d="M4.05,5.29v-1.73c0-.85.71-1.54,1.58-1.54h1.75c.87,0,1.58.69,1.58,1.54v1.73h2.07v-1.73c0-1.97-1.63-3.56-3.65-3.56h-1.75C3.61,0,1.98,1.6,1.98,3.56v1.73h2.07Z"/>
      <path class="cls-1" d="M0,6.37v5.66c0,2.98,2.47,5.4,5.53,5.4h1.7c3.05,0,5.53-2.42,5.53-5.4v-5.66H0ZM7.19,11.4v2.47c0,.3-.25.54-.55.54s-.55-.24-.55-.54v-2.47c-.52-.21-.88-.71-.88-1.3,0-.78.64-1.41,1.44-1.41s1.44.63,1.44,1.41c0,.59-.37,1.09-.89,1.3Z"/>
    </g>
  </g>
</svg>