<?xml version="1.0" encoding="UTF-8"?>
<svg id="_图层_2" data-name="图层 2" xmlns="http://www.w3.org/2000/svg" viewBox="0 0 39.04 27.95">
  <defs>
    <style>
      .cls-1 {
        stroke: #d1d622;
      }

      .cls-1, .cls-2, .cls-3, .cls-4, .cls-5, .cls-6, .cls-7, .cls-8, .cls-9, .cls-10, .cls-11 {
        fill: none;
      }

      .cls-1, .cls-2, .cls-3, .cls-4, .cls-5, .cls-6, .cls-7, .cls-8, .cls-9, .cls-11 {
        stroke-miterlimit: 10;
      }

      .cls-1, .cls-2, .cls-4, .cls-5, .cls-7, .cls-8, .cls-9, .cls-10 {
        stroke-linecap: round;
      }

      .cls-1, .cls-2, .cls-4, .cls-8, .cls-9 {
        stroke-width: .55px;
      }

      .cls-2 {
        stroke: #e99214;
      }

      .cls-12 {
        fill: #f0e428;
      }

      .cls-3, .cls-5, .cls-6, .cls-7, .cls-11 {
        stroke-width: .69px;
      }

      .cls-3, .cls-9 {
        stroke: #eeb033;
      }

      .cls-13 {
        fill: #eeb033;
      }

      .cls-4, .cls-6 {
        stroke: #339cd1;
      }

      .cls-5 {
        stroke: #fff;
      }

      .cls-14 {
        fill: #dc441e;
      }

      .cls-15 {
        fill: #3591c7;
      }

      .cls-16 {
        fill: #e99214;
      }

      .cls-7, .cls-10 {
        stroke: #231815;
      }

      .cls-17 {
        fill: #48aad9;
      }

      .cls-18 {
        fill: #2779b7;
      }

      .cls-19 {
        fill: #231815;
      }

      .cls-8, .cls-11 {
        stroke: #dd5519;
      }

      .cls-10 {
        stroke-linejoin: round;
        stroke-width: .42px;
      }

      .cls-20 {
        fill: #dd5519;
      }
    </style>
  </defs>
  <g id="Layer_1" data-name="Layer 1">
    <g>
      <g>
        <line class="cls-10" x1="33.36" y1="27.61" x2="37.31" y2="27.61"/>
        <line class="cls-10" x1="7.35" y1="27.73" x2="31.98" y2="27.73"/>
        <line class="cls-10" x1="5.29" y1="27.61" x2="6.31" y2="27.61"/>
        <line class="cls-10" x1=".29" y1="27.61" x2="4.3" y2="27.61"/>
      </g>
      <path class="cls-17" d="M31.69,15.97c0,7.76-5.57,3.65-12.43,3.65s-12.43,4.15-12.43-3.65c0-6.5,5.57-11.76,12.43-11.76s12.43,5.27,12.43,11.76Z"/>
      <path class="cls-7" d="M7.83,9.61c.15-.22.31-.44.47-.65"/>
      <path class="cls-18" d="M18.02,4.4s12.25.9,11.7,12.17c-.07,1.51-.44,3.6-2.26,4.07l1.52-.24,1.2-1.03.58-2.71-.19-3.3-.45-1-.61-1.55-2.52-3.26-3.46-2.26-4.26-1.07-1.24.19Z"/>
      <path class="cls-7" d="M30.01,12.02c.46,1.23.72,2.56.72,3.95,0,7.76-5.57,3.65-12.43,3.65s-12.43,4.15-12.43-3.65c0-2.02.54-3.93,1.49-5.59"/>
      <path class="cls-7" d="M9.01,8.13c2.28-2.41,5.59-3.93,9.28-3.93,5.03,0,9.36,2.82,11.32,6.88"/>
      <line class="cls-7" x1="10.64" y1="21.83" x2="10.64" y2="20.59"/>
      <line class="cls-7" x1="10.64" y1="23.49" x2="10.64" y2="22.76"/>
      <path class="cls-7" d="M26.19,20.59v3.54c0,1.91-1.56,3.47-3.47,3.47h-8.6c-1.73,0-3.18-1.29-3.43-2.95"/>
      <path class="cls-15" d="M15.34,6.43c0,.27-.22.48-.48.48s-.48-.22-.48-.48.22-.48.48-.48.48.22.48.48Z"/>
      <circle class="cls-15" cx="12.2" cy="10.05" r="1.84"/>
      <circle class="cls-15" cx="20.45" cy="7.5" r="1.13"/>
      <circle class="cls-15" cx="17.67" cy="9.63" r=".36"/>
      <circle class="cls-15" cx="13.58" cy="15.6" r="1.15"/>
      <path class="cls-15" d="M11.59,19.17c0,.18-.14.32-.32.32s-.32-.14-.32-.32.14-.32.32-.32.32.14.32.32Z"/>
      <circle class="cls-15" cx="21.01" cy="14.24" r="3.73"/>
      <circle class="cls-15" cx="26.6" cy="9.13" r=".92"/>
      <path class="cls-15" d="M26.72,11.69c0,.17-.14.31-.31.31s-.31-.14-.31-.31.14-.31.31-.31.31.14.31.31Z"/>
      <path class="cls-15" d="M25.16,18.91c0,.18-.14.32-.32.32s-.32-.14-.32-.32.14-.32.32-.32.32.14.32.32Z"/>
      <circle class="cls-15" cx="28.32" cy="18.18" r="1.15"/>
      <path class="cls-5" d="M7.71,16.43c-.24.55-.16,1.31.32,1.78"/>
      <path class="cls-5" d="M8.05,15.38s-.05.08-.11.22"/>
      <circle class="cls-19" cx="15.65" cy="24.1" r=".55"/>
      <circle class="cls-19" cx="20.75" cy="24.09" r=".52"/>
      <path class="cls-17" d="M14.97,24.99c0,.2-.16.36-.36.36s-.36-.16-.36-.36.16-.36.36-.36.36.16.36.36Z"/>
      <path class="cls-17" d="M22.17,25.22c0,.28-.23.51-.51.51s-.51-.23-.51-.51.23-.51.51-.51.51.23.51.51Z"/>
      <path class="cls-19" d="M19.3,24.57c.19,0,.33.17.29.35-.12.53-.49,1.02-1.34,1.02-.93,0-1.33-.5-1.43-1.03-.03-.18.11-.34.29-.34h2.18Z"/>
      <path class="cls-16" d="M18.61,25.67c0,.13-.18.14-.39.14s-.39,0-.39-.14.18-.27.39-.27.39.14.39.27Z"/>
      <path class="cls-14" d="M3.46,17.3c0,.15-.12.27-.27.27s-.27-.12-.27-.27.12-.27.27-.27.27.12.27.27Z"/>
      <path class="cls-3" d="M1.76,19.59c0,.39-.32.71-.71.71s-.71-.32-.71-.71.32-.71.71-.71.71.32.71.71Z"/>
      <path class="cls-17" d="M2.17,13.66c0,.23-.18.41-.41.41s-.41-.18-.41-.41.18-.41.41-.41.41.18.41.41Z"/>
      <path class="cls-11" d="M2.18,9.3c0,.45-.36.81-.81.81s-.81-.36-.81-.81.36-.81.81-.81.81.36.81.81Z"/>
      <path class="cls-11" d="M19.5,1.15c0,.45-.36.81-.81.81s-.81-.36-.81-.81.36-.81.81-.81.81.36.81.81Z"/>
      <path class="cls-11" d="M35.91,18.91c0,.45-.36.81-.81.81s-.81-.36-.81-.81.36-.81.81-.81.81.36.81.81Z"/>
      <path class="cls-6" d="M38.69,10.15c0,.44-.36.8-.8.8s-.8-.36-.8-.8.36-.8.8-.8.8.36.8.8Z"/>
      <path class="cls-12" d="M31.88,20.88c0,.15-.12.27-.27.27s-.27-.12-.27-.27.12-.27.27-.27.27.12.27.27Z"/>
      <path class="cls-17" d="M29.39,3.2c0,.12-.1.23-.23.23s-.23-.1-.23-.23.1-.23.23-.23.23.1.23.23Z"/>
      <g>
        <line class="cls-4" x1="12.25" y1="1.52" x2="13.01" y2="1.52"/>
        <line class="cls-4" x1="12.62" y1="1.1" x2="12.62" y2="1.87"/>
      </g>
      <g>
        <line class="cls-1" x1="22.72" y1="2.13" x2="23.48" y2="2.13"/>
        <line class="cls-1" x1="23.09" y1="1.71" x2="23.09" y2="2.48"/>
      </g>
      <g>
        <line class="cls-8" x1="37.85" y1="15.49" x2="38.61" y2="15.49"/>
        <line class="cls-8" x1="38.22" y1="15.07" x2="38.22" y2="15.84"/>
      </g>
      <g>
        <line class="cls-2" x1="33.82" y1="13.08" x2="35.16" y2="13.08"/>
        <line class="cls-2" x1="34.47" y1="12.35" x2="34.47" y2="13.68"/>
      </g>
      <g>
        <line class="cls-9" x1="6.08" y1="2.1" x2="6.08" y2="2.55"/>
        <line class="cls-9" x1="6.08" y1="5.1" x2="6.08" y2="5.55"/>
        <line class="cls-9" x1="7.36" y1="2.63" x2="7.04" y2="2.95"/>
        <line class="cls-9" x1="5.27" y1="4.78" x2="4.96" y2="5.11"/>
        <line class="cls-9" x1="7.89" y1="3.93" x2="7.44" y2="3.93"/>
        <line class="cls-9" x1="4.89" y1="3.92" x2="4.44" y2="3.92"/>
        <line class="cls-9" x1="7.36" y1="5.08" x2="7.03" y2="4.77"/>
        <line class="cls-9" x1="5.2" y1="3" x2="4.88" y2="2.68"/>
        <path class="cls-13" d="M6.43,3.86c0,.18-.14.32-.32.32s-.32-.14-.32-.32.14-.32.32-.32.32.14.32.32Z"/>
      </g>
      <g>
        <line class="cls-8" x1="33.28" y1="3.94" x2="33.28" y2="4.39"/>
        <line class="cls-8" x1="33.28" y1="6.93" x2="33.28" y2="7.39"/>
        <line class="cls-8" x1="34.55" y1="4.46" x2="34.23" y2="4.79"/>
        <line class="cls-8" x1="32.47" y1="6.62" x2="32.15" y2="6.94"/>
        <line class="cls-8" x1="35.08" y1="5.76" x2="34.63" y2="5.76"/>
        <line class="cls-8" x1="32.09" y1="5.76" x2="31.63" y2="5.76"/>
        <line class="cls-8" x1="34.55" y1="6.92" x2="34.22" y2="6.6"/>
        <line class="cls-8" x1="32.4" y1="4.83" x2="32.07" y2="4.52"/>
        <path class="cls-20" d="M33.62,5.69c0,.18-.14.32-.32.32s-.32-.14-.32-.32.14-.32.32-.32.32.14.32.32Z"/>
      </g>
    </g>
  </g>
</svg>