<?xml version="1.0" encoding="UTF-8"?>
<svg id="_图层_2" data-name="图层 2" xmlns="http://www.w3.org/2000/svg" viewBox="0 0 199.51 55.09">
  <defs>
    <style>
      .cls-1 {
        fill: #423d3b;
        opacity: .71;
      }

      .cls-2 {
        fill: #383432;
        opacity: .76;
      }

      .cls-3 {
        fill: #797471;
        opacity: .48;
      }

      .cls-4 {
        opacity: .05;
      }

      .cls-5 {
        fill: #4c4745;
        opacity: .67;
      }

      .cls-6 {
        fill: #1b1716;
        opacity: .9;
      }

      .cls-7 {
        fill: #9e9a98;
        opacity: .33;
      }

      .cls-8 {
        fill: #6e6866;
        opacity: .52;
      }

      .cls-9, .cls-10 {
        fill: #fff;
      }

      .cls-11 {
        fill: #252020;
        opacity: .86;
      }

      .cls-12 {
        fill: #120c0c;
        opacity: .95;
      }

      .cls-13 {
        fill: #85807e;
        opacity: .43;
      }

      .cls-10 {
        opacity: 0;
      }

      .cls-14 {
        fill: #575250;
        opacity: .62;
      }

      .cls-15 {
        fill: #625d5a;
        opacity: .57;
      }

      .cls-16 {
        fill: #c7c4c2;
        opacity: .19;
      }

      .cls-17 {
        fill: #928d8a;
        opacity: .38;
      }

      .cls-18 {
        fill: #aba7a5;
        opacity: .29;
      }

      .cls-19 {
        fill: #b9b5b3;
        opacity: .24;
      }

      .cls-20 {
        fill: #d5d3d1;
        opacity: .14;
      }

      .cls-21 {
        fill: #f2f1f1;
        opacity: .05;
      }

      .cls-22 {
        fill: #e3e2e1;
        opacity: .1;
      }

      .cls-23 {
        fill: #2e2a29;
        opacity: .81;
      }

      .cls-24 {
        fill: #050000;
      }
    </style>
  </defs>
  <g id="Layer_1" data-name="Layer 1">
    <g>
      <g class="cls-4">
        <path class="cls-10" d="M192.55,55.09H6.96c-3.84,0-6.96-3.12-6.96-6.96V0h199.51v48.13c0,3.84-3.12,6.96-6.96,6.96Z"/>
        <path class="cls-21" d="M0,.84h199.51v47.29c0,3.84-3.12,6.96-6.96,6.96H6.96c-3.84,0-6.96-3.12-6.96-6.96V.84Z"/>
        <path class="cls-22" d="M0,1.68h199.51v46.45c0,3.84-3.12,6.96-6.96,6.96H6.96c-3.84,0-6.96-3.12-6.96-6.96V1.68Z"/>
        <path class="cls-20" d="M0,2.53h199.51v45.6c0,3.84-3.12,6.96-6.96,6.96H6.96c-3.84,0-6.96-3.12-6.96-6.96V2.53Z"/>
        <path class="cls-16" d="M0,3.37h199.51v44.76c0,3.84-3.12,6.96-6.96,6.96H6.96c-3.84,0-6.96-3.12-6.96-6.96V3.37Z"/>
        <path class="cls-19" d="M0,4.21h199.51v43.92c0,3.84-3.12,6.96-6.96,6.96H6.96c-3.84,0-6.96-3.12-6.96-6.96V4.21Z"/>
        <path class="cls-18" d="M0,5.05h199.51v43.08c0,3.84-3.12,6.96-6.96,6.96H6.96c-3.84,0-6.96-3.12-6.96-6.96V5.05Z"/>
        <path class="cls-7" d="M0,5.89h199.51v42.24c0,3.84-3.12,6.96-6.96,6.96H6.96c-3.84,0-6.96-3.12-6.96-6.96V5.89Z"/>
        <path class="cls-17" d="M0,6.74h199.51v41.39c0,3.84-3.12,6.96-6.96,6.96H6.96c-3.84,0-6.96-3.12-6.96-6.96V6.74Z"/>
        <path class="cls-13" d="M0,7.58h199.51v40.55c0,3.84-3.12,6.96-6.96,6.96H6.96c-3.84,0-6.96-3.12-6.96-6.96V7.58Z"/>
        <path class="cls-3" d="M0,8.42h199.51v39.71c0,3.84-3.12,6.96-6.96,6.96H6.96c-3.84,0-6.96-3.12-6.96-6.96V8.42Z"/>
        <path class="cls-8" d="M0,9.26h199.51v38.87c0,3.84-3.12,6.96-6.96,6.96H6.96c-3.84,0-6.96-3.12-6.96-6.96V9.26Z"/>
        <path class="cls-15" d="M0,10.1h199.51v38.03c0,3.84-3.12,6.96-6.96,6.96H6.96c-3.84,0-6.96-3.12-6.96-6.96V10.1Z"/>
        <path class="cls-14" d="M0,10.95h199.51v37.18c0,3.84-3.12,6.96-6.96,6.96H6.96c-3.84,0-6.96-3.12-6.96-6.96V10.95Z"/>
        <path class="cls-5" d="M0,11.79h199.51v36.34c0,3.84-3.12,6.96-6.96,6.96H6.96C3.12,55.09,0,51.97,0,48.13V11.79Z"/>
        <path class="cls-1" d="M0,12.63h199.51v35.5c0,3.84-3.12,6.96-6.96,6.96H6.96c-3.84,0-6.96-3.12-6.96-6.96V12.63Z"/>
        <path class="cls-2" d="M0,13.47h199.51v34.66c0,3.84-3.12,6.96-6.96,6.96H6.96c-3.84,0-6.96-3.12-6.96-6.96V13.47Z"/>
        <path class="cls-23" d="M0,14.31h199.51v33.82c0,3.84-3.12,6.96-6.96,6.96H6.96c-3.84,0-6.96-3.12-6.96-6.96V14.31Z"/>
        <path class="cls-11" d="M0,15.16h199.51v32.97c0,3.84-3.12,6.96-6.96,6.96H6.96c-3.84,0-6.96-3.12-6.96-6.96V15.16Z"/>
        <path class="cls-6" d="M0,16h199.51v32.13c0,3.84-3.12,6.96-6.96,6.96H6.96c-3.84,0-6.96-3.12-6.96-6.96V16Z"/>
        <path class="cls-12" d="M0,16.84h199.51v31.29c0,3.84-3.12,6.96-6.96,6.96H6.96c-3.84,0-6.96-3.12-6.96-6.96v-31.29Z"/>
        <path class="cls-24" d="M192.55,55.09H6.96c-3.84,0-6.96-3.12-6.96-6.96v-30.45h199.51v30.45c0,3.84-3.12,6.96-6.96,6.96Z"/>
      </g>
      <path class="cls-9" d="M0,17.68h199.51v30.45c0,3.84-3.12,6.96-6.96,6.96H6.96c-3.84,0-6.96-3.12-6.96-6.96v-30.45h0Z"/>
    </g>
  </g>
</svg>