<?xml version="1.0" encoding="UTF-8"?>
<svg id="_图层_2" data-name="图层 2" xmlns="http://www.w3.org/2000/svg" viewBox="0 0 20.66 16.25">
  <defs>
    <style>
      .cls-1 {
        fill: #f2d324;
      }

      .cls-2 {
        fill: #231715;
      }

      .cls-3 {
        fill: #f9f9f7;
      }

      .cls-4 {
        fill: #241917;
      }

      .cls-5 {
        fill: #efc822;
      }

      .cls-6 {
        fill: #231815;
      }

      .cls-7 {
        fill: #de7e22;
      }

      .cls-8 {
        fill: #231816;
      }

      .cls-9 {
        fill: #221715;
      }

      .cls-10 {
        fill: #edc92a;
      }
    </style>
  </defs>
  <g id="Layer_1" data-name="Layer 1">
    <g>
      <g>
        <path class="cls-1" d="M12.31,12.19c0-.13,0-.26-.01-.39.02-.07.05-.14.08-.21.22-.47.08-.71-.45-.74-.41-.02-.82,0-1.22,0-1.04,0-2.09,0-3.13,0-.5,0-.54.05-.55.55-.03,1.07.07,2.15-.08,3.22-.08.59-.17.67-.74.68-.71.02-1.42,0-2.11-.17-.2-.15-.18-.37-.18-.58,0-2.42,0-4.84,0-7.25,0-.38.13-.67.43-.9,1.57-1.21,3.1-2.46,4.67-3.67.13-.1.26-.21.44-.23,1.78,1.63,3.79,2.98,5.66,4.49.31.25.51.52.55.93.07.59.05,1.18.04,1.76-.1,1.41-.03,2.81-.04,4.22-.01,1.32,0,1.32-1.33,1.32-.47,0-.94,0-1.41,0-.21,0-.43.02-.59-.17,0-.09,0-.17,0-.26.63-.64.33-1.42.33-2.16,0-.22-.3-.23-.37-.42Z"/>
        <path class="cls-9" d="M4.04,15.04c.81.03,1.63.05,2.44.11.3.02.34-.11.34-.36,0-1.24.02-2.47.02-3.71,0-.27.06-.37.35-.37,1.63.01,3.26,0,4.89,0,.31,0,.55.1.61.41.06.31,0,.61-.39.69-1.45.02-2.9.04-4.35.05-.3,0-.25.19-.25.36,0,1.21,0,2.42,0,3.63,0,.3-.05.41-.39.41-1.45-.02-2.9-.02-4.35,0-.3,0-.37-.09-.37-.38.01-2.55,0-5.11,0-7.66,0-.15,0-.3,0-.53-.66.53-1.27,1.01-1.87,1.51-.2.17-.41.33-.61.06-.18-.24-.21-.52.09-.75.87-.7,1.73-1.42,2.59-2.13.21-.17.43-.28.7-.12.32.18.25.49.25.77,0,2.22,0,4.44,0,6.66,0,.24,0,.48,0,.73,0,.26.07.47.27.64Z"/>
        <path class="cls-2" d="M5.7,4.23c-.21-.35-.14-.58.21-.82,1.12-.76,2.23-1.56,3.32-2.36.21-.16.33-.15.53.02,1.81,1.44,3.63,2.87,5.44,4.3.1.08.18.21.37.21,0-.47.02-.93,0-1.39-.02-.34.17-.31.39-.31.21,0,.43-.06.41.29-.02.57.01,1.15-.01,1.72-.01.29.09.47.32.64.82.62,1.61,1.29,2.43,1.9.4.29.18.54.01.79-.2.29-.44.25-.7.05-.73-.59-1.46-1.17-2.2-1.75-.18.06-.28-.08-.39-.17-1.91-1.55-3.82-3.09-5.74-4.63-.13-.1-.27-.2-.4-.3-.23-.21-.39.01-.55.12-.88.55-1.72,1.18-2.58,1.75-.32.21-.61.25-.88-.05Z"/>
        <path class="cls-8" d="M12.34,15.04c.96,0,1.93,0,2.89.02.32,0,.28-.17.28-.37,0-1.52,0-3.04,0-4.57,0-.21.02-.42.09-.62.14-.29.33-.37.61-.18.25.16.34.4.34.69,0,1.81,0,3.62,0,5.43,0,.49-.17.65-.65.65-1.16,0-2.32,0-3.48,0-.35,0-.67-.06-.71-.46-.04-.42.26-.56.64-.59Z"/>
        <path class="cls-3" d="M5.7,4.23c.34.19.62.12.93-.11.86-.63,1.75-1.21,2.63-1.81.18-.12.35-.27.52,0-.03.15-.1.25-.27.22-1.76,1.38-3.52,2.76-5.28,4.13-.17.13-.18.29-.18.48,0,2.63,0,5.26,0,7.9-.32.09-.41-.04-.4-.36.01-2.56,0-5.12,0-7.69,0-.26,0-.51-.13-.74.06-.13.17-.19.31-.2.75-.22,1.19-.85,1.76-1.31,0-.18.23-.3.11-.5Z"/>
        <path class="cls-7" d="M9.51,2.53c.09-.07.18-.15.27-.22,1.74,1.39,3.47,2.79,5.21,4.18.42.34.84.69,1.25,1.03,0,.6-.01,1.19-.02,1.79-.23-.02-.44.03-.61.18-.05-.58,0-1.17-.09-1.76-.03-.21-.09-.36-.26-.49-1.77-1.35-3.53-2.71-5.28-4.08-.21-.16-.54-.27-.47-.65Z"/>
        <path class="cls-5" d="M19.58,2.79c.18.02.28.17.32.32.07.25.19.38.44.44.16.04.32.13.32.33,0,.18-.15.26-.29.31-.25.08-.42.2-.48.48-.03.14-.12.28-.31.29-.19.01-.29-.12-.33-.26-.08-.3-.28-.42-.54-.53-.3-.14-.33-.41-.06-.54.32-.14.55-.33.65-.67.03-.1.13-.17.26-.17Z"/>
        <path class="cls-8" d="M12.31,12.19c.43,0,.61.25.6.66,0,.42-.01.84,0,1.25,0,.4-.17.62-.56.67-.34-.11-.5-.34-.48-.72.02-.39.02-.78,0-1.17-.01-.34.1-.59.44-.69Z"/>
        <path class="cls-4" d="M5.59,4.73c-.23.59-1.29,1.37-1.76,1.31-.27-.29-.25-.54.07-.79.27-.21.52-.45.77-.68.46-.42.58-.4.92.16Z"/>
        <path class="cls-10" d="M14.97.49c-.2.19-.4.51-.57.5-.19-.01-.47-.32-.49-.52-.02-.15.33-.49.48-.47.2.02.38.31.58.49Z"/>
      </g>
      <g>
        <path class="cls-6" d="M5.5,9.08v-1.93h.39v.76h.76v-.76h.39v1.93h-.39v-.84h-.76v.84h-.39Z"/>
        <path class="cls-6" d="M7.37,8.13c0-.2.03-.36.09-.5.04-.1.1-.19.18-.26.08-.08.16-.14.25-.17.12-.05.26-.08.42-.08.28,0,.51.09.68.26.17.18.26.42.26.74s-.08.55-.25.73c-.17.18-.4.26-.68.26s-.52-.09-.68-.26c-.17-.18-.25-.42-.25-.72ZM7.77,8.11c0,.22.05.38.15.5.1.11.23.17.38.17s.28-.06.38-.17c.1-.11.15-.28.15-.5s-.05-.39-.15-.5c-.1-.11-.23-.16-.39-.16s-.29.06-.39.17c-.1.11-.15.28-.15.5Z"/>
        <path class="cls-6" d="M9.54,9.08v-1.93h.58l.35,1.32.35-1.32h.58v1.93h-.36v-1.52l-.38,1.52h-.38l-.38-1.52v1.52h-.36Z"/>
        <path class="cls-6" d="M11.79,9.08v-1.93h1.43v.33h-1.04v.43h.97v.33h-.97v.53h1.08v.33h-1.47Z"/>
      </g>
    </g>
  </g>
</svg>