<?xml version="1.0" encoding="UTF-8"?>
<svg id="_图层_2" data-name="图层 2" xmlns="http://www.w3.org/2000/svg" viewBox="0 0 53.96 12.92">
  <defs>
    <style>
      .cls-1 {
        fill: #fff;
      }

      .cls-2 {
        fill: #7ccdf2;
      }
    </style>
  </defs>
  <g id="Layer_1" data-name="Layer 1">
    <g>
      <path class="cls-2" d="M47.5,12.92H6.46c-3.57,0-6.46-2.89-6.46-6.46h0C0,2.89,2.89,0,6.46,0h41.03c3.57,0,6.46,2.89,6.46,6.46h0c0,3.57-2.89,6.46-6.46,6.46Z"/>
      <g>
        <path class="cls-1" d="M18.86,4.79c-.16.3-.36.59-.57.87v3.87h-.51v-3.26c-.26.29-.54.56-.82.78-.05-.12-.19-.39-.29-.52.63-.46,1.32-1.19,1.72-1.92l.46.19ZM18.77,3.24c-.41.61-1.1,1.28-1.72,1.7-.06-.12-.18-.32-.27-.43.56-.36,1.19-.96,1.5-1.46l.5.19ZM22.27,5.82v.78h.96v.48h-.96v1.8c0,.32-.06.46-.29.55-.22.08-.59.08-1.14.08-.02-.15-.1-.36-.17-.51.43.01.82.01.93,0,.12,0,.15-.04.15-.13v-1.8h-2.89v-.48h2.89v-.78h-2.96v-.49h1.97v-.9h-1.56v-.48h1.56v-.88h.52v.88h1.62v.48h-1.62v.9h2v.49h-1ZM19.84,7.29c.33.37.7.88.85,1.23l-.45.26c-.15-.34-.51-.88-.83-1.25l.43-.24Z"/>
        <path class="cls-1" d="M26.57,6.54c-.35.11-.71.22-1.05.32v1.97c0,.31-.07.44-.26.53-.19.09-.48.1-.97.1-.02-.14-.1-.36-.17-.5.34,0,.65,0,.73,0,.1,0,.14-.04.14-.14v-1.8c-.35.1-.68.2-.97.29l-.16-.54c.31-.08.71-.18,1.13-.29v-1.52h-1.06v-.51h1.06v-1.42h.52v1.42h.98v.51h-.98v1.36l.99-.28.06.49ZM30.38,4.15h-1.26v4.61c0,.36-.09.54-.35.63-.26.1-.7.11-1.37.11-.04-.16-.13-.42-.22-.57.52.02,1.04.02,1.19.01.13,0,.19-.05.19-.19v-4.6h-2.03v-.52h3.85v.52Z"/>
        <path class="cls-1" d="M37.41,5.64v.52h-3.04v3.38h-.55v-3.38h-2.75v-.52h2.73v-2.62h.55v1.01h2.34v.51h-2.34v1.1h3.06ZM34.76,6.93c.73.28,1.8.71,2.34.98l-.28.47c-.53-.29-1.58-.75-2.33-1.05l.28-.41Z"/>
      </g>
    </g>
  </g>
</svg>