<?xml version="1.0" encoding="UTF-8"?>
<svg id="_图层_2" data-name="图层 2" xmlns="http://www.w3.org/2000/svg" viewBox="0 0 13.29 16.74">
  <defs>
    <style>
      .cls-1 {
        fill: #050101;
      }

      .cls-2 {
        fill: #040000;
      }

      .cls-3 {
        fill: #f0841b;
      }

      .cls-4 {
        fill: #3f8ccc;
      }

      .cls-5 {
        fill: #53b2e5;
      }

      .cls-6 {
        fill: #060202;
      }

      .cls-7 {
        fill: #f5d423;
      }

      .cls-8 {
        fill: #231815;
      }
    </style>
  </defs>
  <g id="Layer_1" data-name="Layer 1">
    <g>
      <g>
        <path class="cls-2" d="M13.28,2.62c0,.36,0,.71,0,1.07,0,.07,0,.15-.02.22-.05.23-.18.33-.43.36-.25-.03-.38-.17-.41-.41,0-.07,0-.14,0-.21,0-.88,0-1.75,0-2.63,0-.21,0-.21-.22-.21-.41,0-.83,0-1.24,0-.42,0-.84,0-1.26,0-.28,0-.44-.18-.4-.42.06-.28.17-.37.46-.37.89,0,1.78,0,2.67,0,.48,0,.8.31.8.79,0,.29,0,.58,0,.87l.05.94Z"/>
        <path class="cls-7" d="M9.3.37c.06.29.17.38.46.38.4,0,.8,0,1.2,0,.06.08.04.18.04.27,0,1.89,0,3.77,0,5.66,0,1.89,0,3.78,0,5.67,0,.09.02.19-.03.28-.08.07-.18.05-.27.05-1.22,0-2.44,0-3.66,0-.06,0-.13,0-.19,0-.13.01-.23.07-.29.2-.02.05-.04.1-.09.13-.16,0-.32,0-.49,0-.06-.01-.05-.07-.06-.1-.05-.15-.16-.23-.32-.24-.06,0-.13,0-.19,0-.25-.02-.43.06-.51.31,0,.01-.02.02-.03.03-.14,0-.28,0-.42,0-.03,0-.04-.03-.05-.05-.07-.22-.24-.29-.46-.29-.64,0-1.27,0-1.91,0-.11,0-.23.06-.34-.02-.05-.09-.03-.19-.03-.29,0-3.67,0-7.34,0-11.01,0-.11,0-.23,0-.34.02-.08.09-.11.16-.14.26-.12.53-.18.82-.18,1.61,0,3.22,0,4.83,0,.06,0,.13,0,.19,0,.14,0,.24-.07.3-.2.02-.05.04-.1.09-.13.42,0,.84,0,1.26,0Z"/>
        <path class="cls-2" d="M12.95,13.39c-2.02,0-4.05,0-6.07,0-.23,0-.34-.1-.4-.37.05-.28.17-.38.46-.38,1.28,0,2.56,0,3.84,0,.06,0,.12,0,.18,0,.06-.05.14-.04.21-.04.35,0,.69,0,1.04,0,.2,0,.21,0,.21-.21,0-1,0-2,0-3.01,0-1.28,0-2.57,0-3.85,0-.1,0-.2.03-.29.06-.2.18-.29.4-.31.25.02.38.14.42.37.02.1.01.2.01.3,0,2.22,0,4.44,0,6.66,0,.06,0,.12,0,.18,0,0,.1.96-.33.96Z"/>
        <path class="cls-2" d="M.05,2.56s0,.09,0,.13c0,.78,0,1.57,0,2.35,0,.09,0,.18.02.26.06.2.19.31.4.32.23-.01.38-.13.42-.36.02-.08.01-.16.01-.24,0-.86,0-1.72,0-2.58,0-.53.22-.95.62-1.29.06-.05.12-.08.15-.16.29-.18.61-.25.94-.25,1.64,0,3.29,0,4.93,0,.31,0,.42-.08.48-.39-.07-.27-.17-.37-.43-.37-1.68,0-3.37-.01-5.05,0C1.49.02.75.55.3,1.51.3,1.51.05,1.92.05,2.56Z"/>
        <path class="cls-2" d="M13.25,16.31c-.14.27-.5.43-.81.43-1.03,0-2.07,0-3.1,0-.23,0-.39-.15-.39-.37,0-.22.16-.38.4-.38.98,0,1.97,0,2.95,0,.13,0,.18-.03.18-.17,0-.5,0-1.01,0-1.51,0-.24.1-.38.3-.43.18-.05.33.03.44.26l.04,2.18Z"/>
        <path class="cls-2" d="M5.45,14.27c2.01,0,4.03,0,6.04,0,.28,0,.45.18.42.43-.02.16-.13.27-.32.32-.16,0-.33,0-.49,0-1.84,0-3.68,0-5.52,0-.17,0-.19-.01-.19-.18,0-.14,0-.28,0-.41,0-.06,0-.12.05-.16Z"/>
        <path class="cls-5" d="M5.43,14.42c0,.16.01.32,0,.47,0,.11.03.13.13.13.61,0,1.22,0,1.83,0,1.4,0,2.79,0,4.19,0-.05.04-.12.02-.17.02-1.94,0-3.87,0-5.81,0-.13,0-.19.03-.17.17,0,.05,0,.11,0,.16,0,.08,0,.15-.09.19-.08.04-.14,0-.2-.05-.08-.08-.17-.13-.27-.19-.21-.12-.43-.13-.64,0-.09.06-.19.13-.28.19-.16.09-.27.02-.28-.16q0-.32-.33-.32c-.41,0-.83,0-1.24,0-.05,0-.11.02-.16-.02.06-.07.14-.06.22-.06.42,0,.85,0,1.27,0,.19,0,.2-.01.2-.2,0-.12-.02-.24.03-.35.06-.06.14-.07.22-.07.43,0,.86,0,1.29,0,.09,0,.18,0,.25.07Z"/>
        <path class="cls-2" d="M3.69,14.42c0,.16-.01.31,0,.47,0,.1-.03.13-.13.13-.54,0-1.07,0-1.61,0-.23-.07-.34-.22-.31-.43.03-.2.19-.32.43-.32.54,0,1.07,0,1.61,0,.06.04.05.1.01.15Z"/>
        <path class="cls-2" d="M4.87,13.02c.04-.27.17-.38.44-.38.07,0,.15,0,.22,0,.29,0,.41.1.45.39-.05.27-.17.37-.44.37-.08,0-.16,0-.24,0-.27,0-.39-.1-.44-.37Z"/>
        <path class="cls-4" d="M3.69,14.42s0-.1-.01-.15c-.01-.15.06-.19.21-.19.45,0,.91,0,1.36,0,.14,0,.22.04.21.19,0,.05,0,.1-.01.15-.53-.06-1.07-.01-1.6-.03-.05,0-.1.02-.14.03Z"/>
        <path class="cls-3" d="M12.85,4.95c-.27.05-.38.17-.38.45,0,2.36,0,4.71,0,7.07,0,.13-.03.17-.17.17-.45-.01-.9,0-1.35,0,0-1.9,0-3.79,0-5.69,0-2.06,0-4.12,0-6.18.47,0,.94,0,1.4,0,.12,0,.11.06.11.14,0,.69,0,1.38,0,2.07,0,.27,0,.54,0,.81,0,.28.11.41.38.45.03.03.05.07.04.11-.01.21.05.42-.04.62Z"/>
        <path class="cls-2" d="M4.74,8.88c-.35,0-.62-.28-.62-.64,0-.35.28-.62.64-.62.35,0,.62.28.62.64,0,.35-.29.62-.64.62Z"/>
        <path class="cls-2" d="M8.89,7.63c.35,0,.63.27.62.63,0,.35-.28.63-.63.63-.35,0-.63-.28-.63-.63,0-.35.28-.62.63-.62Z"/>
        <path class="cls-6" d="M6.82,9.79c-.37,0-.7-.3-.72-.67,0-.11.02-.2.15-.22.12-.01.16.07.17.18.03.24.19.39.41.38.21,0,.37-.15.4-.38.01-.11.06-.19.17-.18.12,0,.16.1.15.21-.02.37-.35.67-.72.67Z"/>
        <path class="cls-2" d="M.15,15.75c.19.42,1.3,1,1.96.99,1.82,0,3.65,0,5.47,0,.05,0,.11,0,.16,0,.18-.01.32-.16.34-.34.02-.24-.15-.41-.41-.41-1.86,0-3.72,0-5.59,0-.82,0-1.43-.74-1.27-1.55.12-.62.64-1.04,1.31-1.05.63,0,1.25,0,1.88,0,.28,0,.39-.1.45-.37-.04-.25-.16-.38-.37-.38-.78,0-1.57-.03-2.35.02-.06-.03-.12-.02-.17,0-.18.05-.36.11-.52.21-.07.04-.11.04-.11-.05,0-.03,0-.07,0-.1,0-1.41,0-2.81,0-4.22,0-.08,0-.17-.01-.25-.04-.23-.18-.36-.41-.37-.09,0-.18.01-.25.07-.13.11-.18.25-.19.42,0,.31,0,.62,0,.93L0,14.97s-.04.36.15.77Z"/>
        <path class="cls-1" d="M.48,7.46c-.26-.04-.38-.17-.38-.44,0-.12,0-.24,0-.35,0-.31.08-.41.38-.49.31.09.38.18.38.52,0,.1,0,.21,0,.31,0,.28-.11.41-.38.45Z"/>
      </g>
      <g>
        <path class="cls-8" d="M2.18,4.94l.36-.03c.02.12.06.21.13.26s.15.08.26.08c.12,0,.21-.03.27-.08.06-.05.09-.11.09-.17,0-.04-.01-.08-.04-.11-.03-.03-.07-.06-.13-.08-.04-.01-.14-.04-.29-.08-.2-.05-.33-.11-.41-.18-.11-.1-.17-.22-.17-.36,0-.09.03-.18.08-.26s.13-.14.23-.18c.1-.04.22-.06.36-.06.23,0,.4.05.51.15.12.1.18.23.18.4l-.37.02c-.02-.09-.05-.16-.1-.2-.05-.04-.13-.06-.23-.06s-.19.02-.25.07c-.04.03-.06.07-.06.11,0,.04.02.08.05.11.05.04.16.08.34.12s.31.09.39.13c.08.04.15.11.2.18.05.08.07.17.07.29,0,.1-.03.2-.09.29-.06.09-.14.16-.24.2-.1.04-.24.07-.39.07-.23,0-.4-.05-.53-.16-.12-.11-.2-.26-.22-.46Z"/>
        <path class="cls-8" d="M4.37,5.53v-1.5h-.54v-.31h1.44v.31h-.54v1.5h-.37Z"/>
        <path class="cls-8" d="M5.5,3.72h.37v.98c0,.16,0,.26.01.3.02.07.05.13.11.18.06.04.14.07.24.07s.18-.02.23-.06c.05-.04.08-.09.09-.16.01-.06.02-.16.02-.31v-1h.37v.95c0,.22-.01.37-.03.46-.02.09-.06.17-.11.23s-.12.11-.21.15c-.09.04-.21.06-.35.06-.17,0-.3-.02-.39-.06-.09-.04-.16-.09-.21-.16s-.09-.13-.1-.2c-.02-.1-.04-.26-.04-.46v-.96Z"/>
        <path class="cls-8" d="M7.33,3.72h.67c.15,0,.27.01.34.03.11.03.2.09.27.17.08.08.13.18.17.29s.06.26.06.43c0,.15-.02.28-.06.38-.05.13-.11.24-.19.32-.06.06-.15.11-.26.14-.08.03-.19.04-.32.04h-.69v-1.81ZM7.69,4.03v1.2h.27c.1,0,.18,0,.22-.02.06-.01.11-.04.15-.08s.07-.09.1-.17c.02-.08.04-.19.04-.33s-.01-.25-.04-.32c-.02-.08-.06-.13-.1-.18s-.1-.07-.17-.08c-.05-.01-.15-.02-.3-.02h-.16Z"/>
        <path class="cls-8" d="M9.63,5.53v-.76l-.66-1.05h.43l.43.72.42-.72h.42l-.67,1.05v.76h-.36Z"/>
      </g>
    </g>
  </g>
</svg>