<?xml version="1.0" encoding="UTF-8"?>
<svg id="_图层_2" data-name="图层 2" xmlns="http://www.w3.org/2000/svg" viewBox="0 0 18 17.15">
  <defs>
    <style>
      .cls-1 {
        fill: #f5d423;
      }
    </style>
  </defs>
  <g id="Layer_1" data-name="Layer 1">
    <path class="cls-1" d="M9.28.18l2.54,5.14c.05.1.13.16.24.17l5.67.82c.26.04.36.35.17.54l-4.1,4c-.08.07-.11.18-.09.28l.97,5.65c.04.26-.22.45-.46.33l-5.07-2.67c-.09-.05-.2-.05-.29,0l-5.07,2.67c-.23.12-.5-.07-.46-.33l.97-5.65c.02-.1-.02-.21-.09-.28L.1,6.85c-.19-.18-.08-.5.17-.54l5.67-.82c.1-.01.19-.08.24-.17L8.72.18c.12-.24.45-.24.56,0Z"/>
  </g>
</svg>