<?xml version="1.0" encoding="UTF-8"?>
<svg id="_图层_2" data-name="图层 2" xmlns="http://www.w3.org/2000/svg" viewBox="0 0 20.81 20.81">
  <defs>
    <style>
      .cls-1 {
        fill: #b6b5b2;
      }

      .cls-2, .cls-3 {
        fill: #fff;
      }

      .cls-4 {
        fill: #f0f1f1;
      }

      .cls-3 {
        opacity: .5;
      }

      .cls-5 {
        fill: #88430f;
      }

      .cls-6 {
        fill: none;
        stroke: #8fc31f;
        stroke-miterlimit: 10;
      }
    </style>
  </defs>
  <g id="Layer_1" data-name="Layer 1">
    <g>
      <path class="cls-4" d="M10.39.5c-2.27,0-4.35.77-6.02,2.05l-.03,11.72c0,.68.56,1.24,1.24,1.24h9.95c.68,0,1.24-.56,1.24-1.24V2.8c-1.73-1.43-3.93-2.3-6.34-2.3-.01,0-.02,0-.03,0Z"/>
      <path class="cls-2" d="M13.22,11.26c0,1.5-1.21,2.71-2.71,2.71s-2.71-1.21-2.71-2.71,1.21-2.71,2.71-2.71,2.71,1.21,2.71,2.71Z"/>
      <path class="cls-2" d="M13.22,11.26c0,1.5-1.21,2.71-2.71,2.71s-2.71-1.21-2.71-2.71,1.21-2.71,2.71-2.71,2.71,1.21,2.71,2.71Z"/>
      <path class="cls-1" d="M10.48,14.12c-1.58,0-2.86-1.28-2.86-2.86s1.28-2.86,2.86-2.86,2.86,1.28,2.86,2.86-1.28,2.86-2.86,2.86ZM10.48,8.7c-1.41,0-2.55,1.15-2.55,2.55s1.15,2.55,2.55,2.55,2.55-1.15,2.55-2.55-1.15-2.55-2.55-2.55Z"/>
      <path class="cls-1" d="M15.05,3.13h-3.09c-.09,0-.16-.07-.16-.15s.07-.15.16-.15h3.09c.09,0,.16.07.16.15s-.07.15-.16.15Z"/>
      <path class="cls-1" d="M10.72,3.13h-4.49c-.09,0-.15-.07-.15-.15s.07-.15.15-.15h4.49c.09,0,.15.07.15.15s-.07.15-.15.15Z"/>
      <path class="cls-1" d="M13.35,2.05h-7.12c-.09,0-.16-.07-.16-.15s.07-.15.16-.15h7.12c.09,0,.16.07.16.15s-.07.15-.16.15Z"/>
      <path class="cls-1" d="M15.05,4.22h-6.19c-.09,0-.16-.07-.16-.15s.07-.15.16-.15h6.19c.09,0,.16.07.16.15s-.07.15-.16.15Z"/>
      <path class="cls-1" d="M7.47,4.22h-1.24c-.09,0-.15-.07-.15-.15s.07-.15.15-.15h1.24c.09,0,.15.07.15.15s-.07.15-.15.15Z"/>
      <path class="cls-1" d="M15.04,5.3h-1.06c-.09,0-.17-.07-.17-.15s.07-.15.17-.15h1.06c.09,0,.17.07.17.15s-.07.15-.17.15Z"/>
      <path class="cls-1" d="M13.19,5.3h-2.32c-.09,0-.16-.07-.16-.15s.07-.15.16-.15h2.32c.09,0,.16.07.16.15s-.07.15-.16.15Z"/>
      <path class="cls-1" d="M9.79,5.3h-3.56c-.09,0-.15-.07-.15-.15s.07-.15.15-.15h3.56c.09,0,.15.07.15.15s-.07.15-.15.15Z"/>
      <path class="cls-1" d="M15.05,6.38h-4.95c-.09,0-.15-.07-.15-.15s.07-.15.15-.15h4.95c.09,0,.15.07.15.15s-.07.15-.15.15Z"/>
      <path class="cls-1" d="M8.7,6.38h-2.48c-.09,0-.15-.07-.15-.15s.07-.15.15-.15h2.48c.09,0,.15.07.15.15s-.07.15-.15.15Z"/>
      <path class="cls-1" d="M15.05,7.47h-2.16c-.09,0-.16-.07-.16-.15s.07-.15.16-.15h2.16c.09,0,.16.07.16.15s-.07.15-.16.15Z"/>
      <path class="cls-1" d="M11.34,7.47h-5.11c-.09,0-.15-.07-.15-.15s.07-.15.15-.15h5.11c.09,0,.15.07.15.15s-.07.15-.15.15Z"/>
      <path class="cls-3" d="M3.25,9.07c0-.06-.07-.12-.15-.13l-.29-.04c-.08-.01-.16-.09-.18-.18l-.04-.29c-.01-.08-.07-.15-.13-.15s-.12.07-.13.15l-.04.29c-.01.08-.09.16-.18.18l-.29.04c-.08.01-.15.07-.15.13s.07.12.15.13l.29.04c.08.01.16.09.18.18l.04.29c.01.08.07.15.13.15s.12-.07.13-.15l.05-.33c.01-.08.09-.16.18-.17l.29-.02c.08,0,.15-.06.15-.12Z"/>
      <path class="cls-3" d="M14.28,17.66c0-.06-.07-.12-.15-.13l-.29-.04c-.08-.01-.16-.09-.18-.18l-.04-.29c-.01-.08-.07-.15-.13-.15s-.12.07-.13.15l-.04.29c-.01.08-.09.16-.18.18l-.29.04c-.08.01-.15.07-.15.13s.07.12.15.13l.29.04c.08.01.16.09.18.18l.04.29c.01.08.07.15.13.15s.12-.07.13-.15l.05-.33c.01-.08.09-.16.18-.16l.29-.02c.08,0,.15-.06.15-.12Z"/>
      <path class="cls-3" d="M18.46,11.65c-.34,0-.62-.28-.62-.62s.28-.62.62-.62.62.28.62.62-.28.62-.62.62ZM18.46,10.7c-.18,0-.33.15-.33.33s.15.33.33.33.33-.15.33-.33-.15-.33-.33-.33Z"/>
      <path class="cls-3" d="M7.62,17.99c-.34,0-.62-.28-.62-.62s.28-.62.62-.62.62.28.62.62-.28.62-.62.62ZM7.62,17.04c-.18,0-.33.15-.33.33s.15.33.33.33.33-.15.33-.33-.15-.33-.33-.33Z"/>
      <path class="cls-5" d="M16.6,2.68v11.6c0,.6-.49,1.08-1.08,1.08H5.61c-.6,0-1.08-.49-1.08-1.08V2.44c-.1.08-.21.16-.31.24v11.6c0,.77.62,1.39,1.39,1.39h9.91c.77,0,1.39-.62,1.39-1.39V2.94c-.1-.09-.2-.18-.31-.26Z"/>
      <circle class="cls-6" cx="10.41" cy="10.41" r="9.91"/>
    </g>
  </g>
</svg>