<?xml version="1.0" encoding="UTF-8"?>
<svg id="_图层_2" data-name="图层 2" xmlns="http://www.w3.org/2000/svg" viewBox="0 0 173.23 211.06">
  <defs>
    <style>
      .cls-1 {
        fill: #6490cb;
      }

      .cls-2 {
        fill: #f3f9fd;
      }

      .cls-3 {
        stroke-width: .88px;
      }

      .cls-3, .cls-4 {
        stroke: #de620a;
      }

      .cls-3, .cls-4, .cls-5, .cls-6, .cls-7, .cls-8, .cls-9, .cls-10, .cls-11, .cls-12 {
        stroke-linecap: round;
        stroke-linejoin: round;
      }

      .cls-3, .cls-4, .cls-5, .cls-6, .cls-8, .cls-9, .cls-10, .cls-13, .cls-11, .cls-14, .cls-12 {
        fill: none;
      }

      .cls-15 {
        fill: #e76921;
      }

      .cls-16 {
        fill: #81b7e3;
      }

      .cls-4, .cls-8, .cls-13, .cls-14 {
        stroke-width: .71px;
      }

      .cls-17 {
        fill: #efb711;
      }

      .cls-5, .cls-6, .cls-7, .cls-11 {
        stroke: #050000;
      }

      .cls-5, .cls-7 {
        stroke-width: 1.77px;
      }

      .cls-18 {
        fill: #de620a;
      }

      .cls-19 {
        fill: #050001;
      }

      .cls-6, .cls-9 {
        stroke-width: 2.12px;
      }

      .cls-20, .cls-7 {
        fill: #d4e6f6;
      }

      .cls-8, .cls-10, .cls-13 {
        stroke: #efe312;
      }

      .cls-21 {
        fill: #6b95ce;
      }

      .cls-22 {
        fill: #5e97d1;
      }

      .cls-23 {
        fill: #fae238;
      }

      .cls-9 {
        stroke: #fff;
      }

      .cls-10 {
        stroke-width: 1.06px;
      }

      .cls-24 {
        fill: #f09320;
      }

      .cls-13, .cls-25, .cls-14 {
        stroke-miterlimit: 10;
      }

      .cls-26 {
        fill: #e87320;
        opacity: .23;
      }

      .cls-25 {
        fill: #60b632;
        stroke: #60b632;
      }

      .cls-27 {
        fill: #f3982f;
      }

      .cls-28 {
        fill: #e4effa;
      }

      .cls-11, .cls-12 {
        stroke-width: 1.59px;
      }

      .cls-14 {
        stroke: #74b4e3;
      }

      .cls-12 {
        stroke: #52b2d9;
      }

      .cls-29 {
        fill: #83bae6;
      }

      .cls-30 {
        fill: #ebbb16;
      }

      .cls-31 {
        fill: #efe312;
      }
    </style>
  </defs>
  <g id="Layer_1" data-name="Layer 1">
    <g>
      <path class="cls-25" d="M172.73,205.56c0,2.75-2.25,5-5,5H5.5c-2.75,0-5-2.25-5-5V5.5C.5,2.75,2.75.5,5.5.5h162.23c2.75,0,5,2.25,5,5v200.06Z"/>
      <g>
        <polygon class="cls-28" points="103.74 53.31 102.24 71.17 94.71 71.44 93.3 45.83 104.25 44.6 103.74 53.31"/>
        <polygon class="cls-2" points="96.83 71.26 100.18 45.48 70.52 44.07 74.93 70.91 96.83 71.26"/>
        <path class="cls-20" d="M67.99,46.89l-.14,4.67c0,1.41,1.15,2.56,2.56,2.56h0c1.41,0,2.56-1.15,2.56-2.56v3.66c0,1.49,1.21,2.71,2.71,2.71h0c1.49,0,2.71-1.21,2.71-2.71v-6.12h19.1c.33-.62.48-1.48.5-2.48"/>
        <line class="cls-11" x1="103.24" y1="61.16" x2="103.38" y2="59.68"/>
        <polyline class="cls-11" points="103.57 57.75 104.98 43.54 67.55 43.54 67.81 45.66 70.81 71.17 102.24 71.17 103.04 63.15"/>
        <line class="cls-5" x1="111.07" y1="71.26" x2="113.37" y2="71.26"/>
        <g>
          <path class="cls-21" d="M75.08,65.94c.21.18,3.15,1.39,3.15,1.39l.21,3.66-5.24-.64,1.88-4.41Z"/>
          <path class="cls-16" d="M74.54,65.89s2.42,4.18.72,4.54-7.27-.05-7.27-.05c0,0,.26-2.68.41-2.63s6.14-1.86,6.14-1.86Z"/>
          <path class="cls-6" d="M67.78,70.17s-.31-2.94,3.56-2.32c0,0,3.18-4.72,6.66-.46,0,0,1.55,1.86,0,3.25"/>
        </g>
        <line class="cls-5" x1="116.46" y1="71.26" x2="122.38" y2="71.26"/>
        <line class="cls-5" x1="52.27" y1="71.26" x2="54.83" y2="71.26"/>
        <polygon class="cls-1" points="97.33 25.29 90.06 27.38 85.73 31.35 83.35 37.53 83.08 41.59 84.41 45.92 91.91 46.63 97.33 25.29"/>
        <path class="cls-15" d="M98.07,24.99s-16.22,7.48-8.92,20.9l9.06.29v8.65s1.77,1.29,1.77,1.29l2.24-.71.35-4.41,1.18,2.3,2.35-.82,1.06-3.18,2.08-3.21s1.9-1.74,2.3-4.28c.31-1.95-.44-4.39-.75-5.87-.71-3.38-2.59-7.42-12.71-10.95Z"/>
        <circle class="cls-22" cx="93.33" cy="33.47" r=".5"/>
        <circle class="cls-22" cx="91.15" cy="37.47" r=".5"/>
        <path class="cls-24" d="M101.6,25.35s13.24,11.12,1.71,22.78c0,0-.24,2.47-.12,3.41s-1.06,3.3-1.06,3.3l-1.74,1.29-1.79-1.18-.38-8.77-9.62.53,1.53-19.78,11.48-1.59Z"/>
        <circle class="cls-18" cx="103.04" cy="39.18" r=".5"/>
        <circle class="cls-18" cx="116.43" cy="43.54" r=".59"/>
        <circle class="cls-18" cx="117.99" cy="21.17" r=".59"/>
        <circle class="cls-31" cx="60.6" cy="34.06" r=".59"/>
        <circle class="cls-18" cx="107.28" cy="34.24" r=".5"/>
        <path class="cls-11" d="M111.44,39.48c-.03.47-.06.91-.08,1.35-.03.51-.06,1.01-.12,1.53h0"/>
        <path class="cls-26" d="M100.36,26s.32,12.32.12,13.54c-.21,1.22-3.1,3.87-4.95-.43,0,0,.3,5.1-.64,6s-5.18,1-3.88-4.77l5.36-13.75,4-.59Z"/>
        <path class="cls-11" d="M109.66,45.54c-.71,1.03-2.97,3.69-2.97,2.44v3.03c0,1.14-.92,2.06-2.06,2.06h0c-1.14,0-2.06-.92-2.06-2.06v2.94c0,1.2-.98,2.18-2.18,2.18h0c-1.2,0-2.18-.98-2.18-2.18v-7.77s-13.38,0-13.38,0c-1.07-2-1.69-4.28-1.69-6.71,0-7.83,6.35-14.19,14.19-14.19,4.02,0,7.6,1.67,10.13,4.35.07.07.13.14.2.21.26.28.5.57.73.88.05.06.09.12.14.19.63.85,1.16,1.77,1.59,2.74.04.1.08.19.12.29.24.59.45,1.19.61,1.81.02.08.04.15.06.23.06.25.11.49.16.75"/>
        <path class="cls-17" d="M85.29,13.52c4.01.2,6.21,1.61,8.75,4.29.07.07.13.14.2.21.26.28.5.57.73.88.05.06.09.12.14.19.63.85,1.16,1.77,1.59,2.74.04.1.08.19.12.29.24.59.45,1.19.61,1.81.02.08.04.15.06.23.27,1.11.42,2.28.42,3.48,0,1.02.04,1.92,0,2.88h0v5.33c0,1.41-.97,2.56-2.38,2.56-1.25,0-2.27-1.01-2.27-2.27v3.03c0,1.14-.92,2.06-2.06,2.06h0c-1.14,0-2.06-.92-2.06-2.06v2.94c0,1.2-.98,2.18-2.18,2.18h0c-1.2,0-2.18-.98-2.18-2.18v-7.77s-13.38,0-13.38,0c-1.07-2,6.59-4.87,6.59-7.3,0-7.83,3.74-13.71,7.3-13.54Z"/>
        <path class="cls-23" d="M82.7,13.34s-14.72,8.65-7.42,22.07l10.39-1.06v8.65s1.77,1.29,1.77,1.29l2.24-.71.35-4.41,1.18,2.3,2.35-.82,1.06-3.18,1.27.88s1-9.49.29-12.89c-.71-3.38-.94-9.3-13.48-12.13Z"/>
        <circle class="cls-30" cx="93.74" cy="25.52" r=".5"/>
        <circle class="cls-30" cx="94.33" cy="28.35" r=".5"/>
        <circle class="cls-22" cx="78.61" cy="25.64" r=".5"/>
        <circle class="cls-22" cx="82.79" cy="27.17" r=".5"/>
        <path class="cls-11" d="M98.8,30.53v1.24s0,4.09,0,4.09c0,1.41-.97,2.56-2.38,2.56-1.25,0-2.27-1.01-2.27-2.27v3.03c0,1.14-.92,2.06-2.06,2.06h0c-1.14,0-2.06-.92-2.06-2.06v2.94c0,1.2-.98,2.18-2.18,2.18h0c-1.2,0-2.18-.98-2.18-2.18v-7.77s-13.38,0-13.38,0c-1.07-2-1.69-4.28-1.69-6.71,0-7.83,6.35-14.19,14.19-14.19,2.59,0,5,.69,7.07,1.91.53.31,1.03.66,1.52,1.03"/>
        <path class="cls-11" d="M95.99,19.09c.63.85,1.16,1.77,1.59,2.74.04.1.08.19.12.29.24.59.45,1.19.61,1.81.02.08.04.15.06.23.27,1.11.42,2.28.42,3.48"/>
        <path class="cls-9" d="M82.51,17.58s-.46.26-.81.88"/>
        <path class="cls-9" d="M79.98,20.4s-2.06,2.24-1.88,5.89"/>
        <g>
          <polygon class="cls-1" points="77.46 25.29 84.73 27.38 89.06 31.35 91.44 37.53 91.71 41.59 90.38 45.92 82.88 46.63 77.46 25.29"/>
          <path class="cls-12" d="M77.46,25.29c-4.02,0-7.6,1.67-10.13,4.35-.07.07-.13.14-.2.21-.26.28-.5.57-.73.88-.05.06-.09.12-.14.19-.63.85-1.16,1.77-1.59,2.74-.04.1-.08.19-.12.29-.24.59-.45,1.19-.61,1.81-.02.08-.04.15-.06.23-.27,1.11-.42,2.28-.42,3.48,0,1.02-.04,1.92,0,2.88h0v5.33c0,1.41.97,2.56,2.38,2.56,1.25,0,2.27-1.01,2.27-2.27v3.03c0,1.14.92,2.06,2.06,2.06h0c1.14,0,2.06-.92,2.06-2.06v2.94c0,1.2.98,2.18,2.18,2.18h0c1.2,0,2.18-.98,2.18-2.18v-7.77h13.38c1.07-2,1.69-4.28,1.69-6.71,0-7.83-6.35-14.19-14.19-14.19Z"/>
          <path class="cls-29" d="M77.88,25.17s15.07,7.3,7.77,20.72l-9.06.29v8.65s-1.77,1.29-1.77,1.29l-2.24-.71-.35-4.41-1.18,2.3-2.35-.82-1.06-3.18-1.27.88s-1-9.49-.29-12.89c.61-2.9,1.67-8.28,8.27-11.65,1.1-.56,2.09.03,3.53-.47Z"/>
          <circle class="cls-22" cx="81.47" cy="33.47" r=".5"/>
          <circle class="cls-22" cx="83.64" cy="37.47" r=".5"/>
          <circle class="cls-22" cx="79.46" cy="39" r=".5"/>
          <path class="cls-11" d="M77.46,25.29c-4.02,0-7.6,1.67-10.13,4.35-.07.07-.13.14-.2.21-.26.28-.5.57-.73.88-.05.06-.09.12-.14.19-.63.85-1.16,1.77-1.59,2.74-.04.1-.08.19-.12.29-.24.59-.45,1.19-.61,1.81-.02.08-.04.15-.06.23-.27,1.11-.42,2.28-.42,3.48,0,1.02-.04,1.92,0,2.88h0v5.33c0,1.41.97,2.56,2.38,2.56,1.25,0,2.27-1.01,2.27-2.27v3.03c0,1.14.92,2.06,2.06,2.06h0c1.14,0,2.06-.92,2.06-2.06v2.94c0,1.2.98,2.18,2.18,2.18h0c1.2,0,2.18-.98,2.18-2.18v-7.77h13.38c1.07-2,1.69-4.28,1.69-6.71,0-7.83-6.35-14.19-14.19-14.19Z"/>
          <path class="cls-9" d="M74.99,29.76s-.46.26-.81.88"/>
          <path class="cls-9" d="M72.46,32.59s-2.06,2.24-1.88,5.89"/>
        </g>
        <circle class="cls-19" cx="79.94" cy="58.25" r="1.65"/>
        <circle class="cls-19" cx="93.6" cy="58.16" r="1.65"/>
        <path class="cls-19" d="M90.41,59.66c0,1.89-1.58,3.41-3.53,3.41s-3.53-1.53-3.53-3.41"/>
        <ellipse class="cls-27" cx="86.87" cy="62.31" rx="1.47" ry=".74"/>
        <line class="cls-7" x1="59.25" y1="71.17" x2="108.42" y2="71.17"/>
        <circle class="cls-14" cx="118.78" cy="37.36" r="1.53"/>
        <circle class="cls-13" cx="58.22" cy="41.06" r="1.53"/>
        <circle class="cls-4" cx="54.86" cy="29.41" r="1.53"/>
        <g>
          <line class="cls-3" x1="70.34" y1="13.22" x2="70.34" y2="14.99"/>
          <line class="cls-3" x1="69.46" y1="14.11" x2="71.22" y2="14.11"/>
        </g>
        <g>
          <line class="cls-14" x1="105.66" y1="18.5" x2="105.66" y2="21.37"/>
          <line class="cls-14" x1="104.22" y1="19.93" x2="107.09" y2="19.93"/>
        </g>
        <g>
          <line class="cls-10" x1="116.25" y1="27.35" x2="116.25" y2="30.88"/>
          <line class="cls-10" x1="114.49" y1="29.12" x2="118.02" y2="29.12"/>
        </g>
        <g>
          <line class="cls-8" x1="62.47" y1="20.4" x2="62.47" y2="22.01"/>
          <line class="cls-8" x1="60.32" y1="21.33" x2="61.46" y2="22.47"/>
          <line class="cls-8" x1="59.47" y1="23.51" x2="61.07" y2="23.51"/>
          <line class="cls-8" x1="60.4" y1="25.65" x2="61.54" y2="24.51"/>
          <line class="cls-8" x1="62.57" y1="26.5" x2="62.57" y2="24.9"/>
          <line class="cls-8" x1="64.72" y1="25.57" x2="63.58" y2="24.44"/>
          <line class="cls-8" x1="65.57" y1="23.4" x2="63.97" y2="23.4"/>
          <line class="cls-8" x1="64.64" y1="21.26" x2="63.51" y2="22.39"/>
        </g>
      </g>
    </g>
  </g>
</svg>