<?xml version="1.0" encoding="UTF-8"?>
<svg id="_图层_2" data-name="图层 2" xmlns="http://www.w3.org/2000/svg" viewBox="0 0 53.96 12.92">
  <defs>
    <style>
      .cls-1 {
        fill: #fff;
      }

      .cls-2 {
        fill: #595757;
      }
    </style>
  </defs>
  <g id="Layer_1" data-name="Layer 1">
    <g>
      <path class="cls-2" d="M47.5,12.92H6.46c-3.57,0-6.46-2.89-6.46-6.46h0C0,2.89,2.89,0,6.46,0h41.03c3.57,0,6.46,2.89,6.46,6.46h0c0,3.57-2.89,6.46-6.46,6.46Z"/>
      <g>
        <path class="cls-1" d="M21.9,4.06h-.88v4.72c0,.38-.09.57-.36.65-.29.1-.78.1-1.48.1-.04-.15-.14-.41-.23-.56.57.03,1.15.02,1.32.01.16,0,.21-.06.21-.21v-4.71h-4.89v-.53h6.31v.53ZM16.84,7.74v.57h-.51v-3.21h2.89v2.64h-2.38ZM16.84,5.61v1.62h1.86v-1.62h-1.86Z"/>
        <path class="cls-1" d="M29.01,7.52h-2.9v1.36c0,.32-.09.47-.34.55-.26.09-.66.09-1.31.09-.04-.15-.14-.36-.22-.51.54.02,1.03.02,1.16,0,.15,0,.19-.04.19-.14v-1.35h-2.84v-.49h2.84v-.51c.41-.15.87-.39,1.23-.63h-2.88v-.47h3.48l.1-.03.35.26c-.46.42-1.12.81-1.76,1.1v.29h2.9v.49ZM23.39,5.61h-.51v-1.4h1.18c-.13-.27-.38-.63-.61-.91l.44-.21c.26.3.56.7.68.97l-.27.14h1.56c-.1-.3-.32-.74-.53-1.06l.46-.17c.24.33.49.78.58,1.08l-.36.15h1.16c.26-.33.56-.79.72-1.13l.53.19c-.21.32-.46.66-.69.95h1.16v1.4h-.52v-.93h-4.97v.93Z"/>
        <path class="cls-1" d="M34.52,7.11c-1.46.51-3.06,1.06-4.15,1.44l-.19-.53c1.02-.31,2.71-.87,4.25-1.4l.1.5ZM35.72,3.84c-.05,3.73-.11,4.92-.37,5.28-.16.23-.33.31-.59.33-.27.03-.73.01-1.14,0,0-.15-.07-.36-.17-.51.5.04.93.04,1.13.04.13,0,.21-.02.29-.11.23-.25.28-1.54.33-4.81h-4.9v-.51h5.44v.3ZM31.44,4.64c.62.42,1.47,1.03,1.89,1.43l-.38.41c-.4-.4-1.23-1.04-1.87-1.49l.36-.34Z"/>
      </g>
    </g>
  </g>
</svg>