<?xml version="1.0" encoding="UTF-8"?>
<svg id="_图层_2" data-name="图层 2" xmlns="http://www.w3.org/2000/svg" xmlns:xlink="http://www.w3.org/1999/xlink" viewBox="0 0 199.77 71.72">
  <defs>
    <style>
      .cls-1 {
        fill: #96928f;
        opacity: .36;
      }

      .cls-2 {
        opacity: .05;
      }

      .cls-3 {
        fill: #686360;
        opacity: .55;
      }

      .cls-4, .cls-5 {
        fill: #fff;
      }

      .cls-6 {
        fill: #534e4c;
        opacity: .64;
      }

      .cls-5 {
        opacity: 0;
      }

      .cls-7 {
        fill: #afaba9;
        opacity: .27;
      }

      .cls-8 {
        fill: #7f7a77;
        opacity: .45;
      }

      .cls-9 {
        fill: #1a1616;
        opacity: .91;
      }

      .cls-10 {
        fill: #231815;
      }

      .cls-11 {
        fill: #c9c6c5;
        opacity: .18;
      }

      .cls-12 {
        fill: url(#linear-gradient);
        opacity: .32;
      }

      .cls-13 {
        fill: #e5e3e2;
        opacity: .09;
      }

      .cls-14 {
        fill: #2c2827;
        opacity: .82;
      }

      .cls-15 {
        fill: #050000;
      }

      .cls-16 {
        fill: #3f3b39;
        opacity: .73;
      }
    </style>
    <linearGradient id="linear-gradient" x1="-746.4" y1="509.96" x2="-673.69" y2="509.96" gradientTransform="translate(848.95 -472.86)" gradientUnits="userSpaceOnUse">
      <stop offset="0" stop-color="#fff"/>
      <stop offset="1" stop-color="#fff100"/>
    </linearGradient>
  </defs>
  <g id="Layer_1" data-name="Layer 1">
    <g>
      <g>
        <g class="cls-2">
          <path class="cls-5" d="M4.64,0h190.48c2.56,0,4.64,2.08,4.64,4.64v62.43c0,2.56-2.08,4.64-4.64,4.64H4.64c-2.56,0-4.64-2.08-4.64-4.64V4.64C0,2.08,2.08,0,4.64,0Z"/>
          <rect class="cls-13" x="1.11" y="1.03" width="197.54" height="69.94" rx="4.84" ry="4.84"/>
          <rect class="cls-11" x="2.23" y="2.06" width="195.32" height="68.17" rx="5.03" ry="5.03"/>
          <rect class="cls-7" x="3.34" y="3.09" width="193.09" height="66.39" rx="5.23" ry="5.23"/>
          <rect class="cls-1" x="4.45" y="4.12" width="190.86" height="64.62" rx="5.42" ry="5.42"/>
          <rect class="cls-8" x="5.57" y="5.15" width="188.64" height="62.84" rx="5.61" ry="5.61"/>
          <rect class="cls-3" x="6.68" y="6.18" width="186.41" height="61.06" rx="5.81" ry="5.81"/>
          <rect class="cls-6" x="7.79" y="7.21" width="184.19" height="59.29" rx="6" ry="6"/>
          <path class="cls-16" d="M15.1,8.24h169.57c3.42,0,6.2,2.78,6.2,6.2v45.12c0,3.42-2.78,6.2-6.2,6.2H15.1c-3.42,0-6.2-2.78-6.2-6.2V14.43c0-3.42,2.78-6.2,6.2-6.2Z"/>
          <path class="cls-14" d="M16.41,9.26h166.95c3.53,0,6.39,2.86,6.39,6.39v42.96c0,3.53-2.86,6.39-6.39,6.39H16.41c-3.53,0-6.39-2.86-6.39-6.39V15.65c0-3.53,2.86-6.39,6.39-6.39Z"/>
          <path class="cls-9" d="M17.72,10.29h164.34c3.63,0,6.58,2.95,6.58,6.58v40.8c0,3.63-2.95,6.58-6.58,6.58H17.71c-3.63,0-6.58-2.95-6.58-6.58V16.88c0-3.63,2.95-6.58,6.58-6.58Z"/>
          <path class="cls-15" d="M19.02,11.32h161.73c3.74,0,6.78,3.04,6.78,6.78v38.63c0,3.74-3.04,6.78-6.78,6.78H19.02c-3.74,0-6.78-3.04-6.78-6.78V18.1c0-3.74,3.04-6.78,6.78-6.78Z"/>
        </g>
        <rect class="cls-4" x="12.24" y="11.32" width="175.28" height="51.56" rx="3.39" ry="3.39"/>
        <rect class="cls-12" x="12.24" y="11.32" width="175.28" height="51.56" rx="3.39" ry="3.39" transform="translate(199.77 74.21) rotate(180)"/>
      </g>
      <g>
        <path class="cls-10" d="M105.51,38.45c-.34-.27-1.08-.67-1.59-.93l.6-.88c.52.21,1.26.57,1.64.83l-.65.98ZM104.17,42.2c.38-.76.93-1.99,1.34-3.13l.93.7c-.34,1.04-.78,2.16-1.21,3.12l-1.06-.69ZM106.11,35.82c-.34-.29-1.07-.71-1.61-.98l.66-.87c.51.23,1.26.62,1.63.88l-.68.97ZM111.57,37.44c.49.55,1.14,1.03,1.87,1.31-.24.2-.59.63-.76.92-.2-.09-.38-.19-.56-.31.48.72.94,1.62,1.15,2.26l-.95.47c-.19-.67-.7-1.69-1.19-2.45l.82-.39c-.66-.45-1.23-1.1-1.63-1.81h-.92c-.43.8-1.01,1.49-1.77,2.03l.91.38c-.27.75-.69,1.64-1.2,2.24l-.9-.61c.51-.51.94-1.32,1.19-2.01-.23.16-.46.3-.72.42-.16-.25-.52-.69-.73-.9.8-.36,1.41-.91,1.87-1.55h-1.52v-1.1h2.1c.13-.31.23-.62.31-.94h-1.93v-1.1h5.88v1.1h-2.69c-.09.32-.19.63-.3.94h3.35v1.1h-1.68ZM110.8,39.61c.31.65.61,1.49.72,2.05l-.93.37c-.09-.56-.37-1.42-.65-2.08v2.03c0,.52-.08.81-.42.99-.33.17-.78.19-1.41.19-.04-.32-.17-.76-.3-1.07.37.02.76,0,.88,0s.16-.03.16-.14v-3.55h1.09v1.52l.86-.32Z"/>
        <path class="cls-10" d="M119.2,35.59s0,.4-.02.55c-.15,4.23-.3,5.79-.65,6.26-.23.35-.45.47-.77.53-.28.06-.7.06-1.14.05-.02-.36-.15-.89-.34-1.23.35.03.67.04.85.04.15,0,.24-.04.35-.19.22-.29.37-1.53.49-4.84h-.98c-.12,2.52-.49,4.82-1.68,6.41-.21-.29-.61-.68-.94-.85,1.06-1.36,1.36-3.36,1.44-5.56h-1.17v-1.16h1.2c0-.57,0-1.16,0-1.74h1.2c0,.58,0,1.17-.02,1.74h2.17ZM123.42,34.97v7.92h-1.24v-.62h-1.34v.69h-1.19v-7.99h3.77ZM122.18,41.11v-5.01h-1.34v5.01h1.34Z"/>
      </g>
    </g>
  </g>
</svg>