<?xml version="1.0" encoding="UTF-8"?>
<svg id="_图层_2" data-name="图层 2" xmlns="http://www.w3.org/2000/svg" viewBox="0 0 12.72 12.12">
  <defs>
    <style>
      .cls-1 {
        fill: #f5d423;
      }
    </style>
  </defs>
  <g id="Layer_1" data-name="Layer 1">
    <path class="cls-1" d="M6.56.12l1.79,3.63c.03.07.09.11.17.12l4.01.58c.18.03.26.25.12.38l-2.9,2.83c-.05.05-.08.12-.06.2l.68,3.99c.03.18-.16.32-.32.23l-3.59-1.88c-.07-.03-.14-.03-.21,0l-3.59,1.88c-.16.09-.35-.05-.32-.23l.68-3.99c.01-.07-.01-.15-.06-.2L.07,4.84c-.13-.13-.06-.35.12-.38l4.01-.58c.07-.01.14-.05.17-.12L6.16.12c.08-.17.32-.17.4,0Z"/>
  </g>
</svg>