<?xml version="1.0" encoding="UTF-8"?>
<svg xmlns="http://www.w3.org/2000/svg" xmlns:xlink="http://www.w3.org/1999/xlink" viewBox="0 0 19.37 19.09">
  <defs>
    <style>
      .cls-1, .cls-2 {
        mix-blend-mode: multiply;
      }

      .cls-1, .cls-3 {
        fill: #35a3dd;
      }

      .cls-4 {
        fill: #e4e5e4;
      }

      .cls-5 {
        stroke: #f7bc00;
      }

      .cls-5, .cls-6, .cls-7, .cls-8, .cls-9, .cls-10 {
        stroke-linecap: round;
        stroke-linejoin: round;
      }

      .cls-5, .cls-6, .cls-7, .cls-8, .cls-9, .cls-10, .cls-11 {
        fill: none;
      }

      .cls-5, .cls-7, .cls-8 {
        stroke-width: .21px;
      }

      .cls-6 {
        stroke-width: .68px;
      }

      .cls-6, .cls-9 {
        stroke: #231815;
      }

      .cls-12 {
        fill: #d1d1d0;
      }

      .cls-13 {
        fill: #fff;
      }

      .cls-14 {
        fill: #8fc21f;
      }

      .cls-7 {
        stroke: #f9ed00;
      }

      .cls-15 {
        clip-path: url(#clippath-1);
      }

      .cls-16 {
        isolation: isolate;
      }

      .cls-17 {
        fill: #00a33b;
      }

      .cls-8 {
        stroke: #35a3dd;
      }

      .cls-18, .cls-2 {
        fill: #e5510a;
      }

      .cls-19 {
        clip-path: url(#clippath-3);
      }

      .cls-20 {
        fill: #231815;
      }

      .cls-9 {
        stroke-width: .7px;
      }

      .cls-21 {
        fill: #0066b3;
      }

      .cls-22 {
        clip-path: url(#clippath-2);
      }

      .cls-23 {
        fill: #a6a5a2;
      }

      .cls-10 {
        stroke: #8fc21f;
        stroke-width: .13px;
      }

      .cls-24 {
        clip-path: url(#clippath);
      }

      .cls-11 {
        stroke: #161f5e;
        stroke-miterlimit: 10;
        stroke-width: .03px;
      }
    </style>
    <clipPath id="clippath">
      <rect class="cls-13" x="-.37" y="12.21" width="10.53" height="2.53" rx="1.2" ry="1.2" transform="translate(18.37 8.58) rotate(90)"/>
    </clipPath>
    <clipPath id="clippath-1">
      <path class="cls-11" d="M7.07,9.06H2.67c-.07,0-.14-.04-.14-.1l-.52-2.16c0-.05.06-.1.09-.1h5.48c.12,0,.18.04.18.1l-.56,2.16c0,.05-.06.1-.14.1Z"/>
    </clipPath>
    <clipPath id="clippath-2">
      <path class="cls-13" d="M14.15,8.99h-3.01v.71s2.35.77,1.74,2.54c-.6,1.78-1.58,6.41,1.26,6.41,3.16,0,1.87-4.63,1.26-6.41-.6-1.78,1.74-2.54,1.74-2.54v-.71h-3.01ZM14.15,16.92c-.36,0-.65-.21-.65-.47s.29-.47.65-.47.65.21.65.47-.29.47-.65.47Z"/>
    </clipPath>
    <clipPath id="clippath-3">
      <rect class="cls-13" x="11.15" y="6.95" width="6.01" height="2.06" rx="1.03" ry="1.03"/>
    </clipPath>
  </defs>
  <g class="cls-16">
    <g id="_图层_2" data-name="图层 2">
      <g id="Layer_1" data-name="Layer 1">
        <g>
          <g>
            <g>
              <rect class="cls-4" x="1.67" y="4.08" width="6.43" height="2.79"/>
              <rect class="cls-12" x="2.18" y="4.08" width=".32" height="2.79"/>
              <rect class="cls-12" x="3.04" y="4.08" width=".32" height="2.79"/>
              <rect class="cls-12" x="4.01" y="4.08" width=".32" height="2.79"/>
              <rect class="cls-12" x="4.87" y="4.08" width=".32" height="2.79"/>
              <rect class="cls-12" x="5.7" y="4.08" width=".32" height="2.79"/>
              <rect class="cls-12" x="6.56" y="4.08" width=".32" height="2.79"/>
              <rect class="cls-12" x="7.35" y="4.08" width=".32" height="2.79"/>
              <g>
                <g>
                  <rect class="cls-13" x="-.37" y="12.21" width="10.53" height="2.53" rx="1.2" ry="1.2" transform="translate(18.37 8.58) rotate(90)"/>
                  <g class="cls-24">
                    <path class="cls-17" d="M1.39,13.31h8.85v.68H.74v-.03c0-.36.29-.65.65-.65Z" transform="translate(19.15 8.16) rotate(90)"/>
                    <path class="cls-14" d="M-.19,13.61h10.06v.62H.4c-.33,0-.59-.26-.59-.59v-.03H-.19Z" transform="translate(18.76 9.09) rotate(90)"/>
                  </g>
                </g>
                <path class="cls-9" d="M3.63,12.44v-3.32c0-.5.57-.91,1.27-.91h0c.7,0,1.27.41,1.27.91v8.71c0,.5-.57.91-1.27.91h0c-.7,0-1.27-.41-1.27-.91v-1.62"/>
                <line class="cls-9" x1="3.63" y1="14.67" x2="3.63" y2="14.14"/>
              </g>
              <g>
                <g>
                  <g class="cls-15">
                    <path class="cls-23" d="M7.72,9.5H3.63c-.07,0-.14-.04-.14-.1l-.63-2.16c0-.05.06-.1.14-.1h4.73c.07,0,.14.04.14.1v2.16c0,.05-.06.1-.14.1Z"/>
                    <path class="cls-12" d="M3.32,8.5c-.07,0-.14-.04-.14-.1l-.33-1.16c0-.05.06-.1.14-.1h3.86l-.34,1.35h-3.19Z"/>
                  </g>
                  <path class="cls-11" d="M7.07,9.06H2.67c-.07,0-.14-.04-.14-.1l-.52-2.16c0-.05.06-.1.09-.1h5.48c.12,0,.18.04.18.1l-.56,2.16c0,.05-.06.1-.14.1Z"/>
                </g>
                <path class="cls-6" d="M6.39,6.71h1.25c.07,0,.14.04.14.1l-.56,2.16c0,.05-.06.1-.14.1h-3.86"/>
                <line class="cls-6" x1="4.77" y1="6.71" x2="5.11" y2="6.71"/>
                <path class="cls-9" d="M2.54,8.59l-.52-1.79c0-.05.06-.1.14-.1h1.33"/>
              </g>
              <path class="cls-1" d="M8.1,4.08H1.67v1.07s1.01-.33,1.36-.3c.44.03,1.7.93,2.38.17.86-.95,2.69.49,2.69.49v-1.44Z"/>
            </g>
            <g>
              <rect class="cls-4" x="10.77" y="4.28" width="6.79" height="2.94"/>
              <path class="cls-12" d="M11.65,7.22h-.34v-2.94h.34v2.94ZM12.56,4.28h-.34v2.94h.34v-2.94ZM13.58,4.28h-.34v2.94h.34v-2.94ZM14.48,4.28h-.34v2.94h.34v-2.94ZM15.37,4.28h-.34v2.94h.34v-2.94ZM16.27,4.28h-.34v2.94h.34v-2.94ZM17.11,4.28h-.34v2.94h.34v-2.94Z"/>
              <path class="cls-2" d="M17.56,4.28h-6.79v1.13s1.06-.35,1.44-.32c.47.03,1.8.98,2.52.18.91-1,2.84.52,2.84.52v-1.52Z"/>
              <g>
                <path class="cls-13" d="M14.15,8.99h-3.01v.71s2.35.77,1.74,2.54c-.6,1.78-1.58,6.41,1.26,6.41,3.16,0,1.87-4.63,1.26-6.41-.6-1.78,1.74-2.54,1.74-2.54v-.71h-3.01ZM14.15,16.92c-.36,0-.65-.21-.65-.47s.29-.47.65-.47.65.21.65.47-.29.47-.65.47Z"/>
                <g class="cls-22">
                  <path class="cls-3" d="M14.71,9.53h-2.23v.2s1.76,1.05,1.16,2.83c-.6,1.78-1.07,6.41,1.06,6.41s1.38-4.63.78-6.41c-.6-1.78,2.22-2.54,2.22-2.54v-.49h-3.01Z"/>
                  <path class="cls-21" d="M15.96,9.53s-2.09.93-1.49,2.71c.58,1.73,1.31,6.13-.6,6.39.22.21.5.33.84.33,2.14,0,1.91-4.8,1.3-6.58-.6-1.78,1.7-2.37,1.7-2.37v-.49h-1.76Z"/>
                </g>
              </g>
              <path class="cls-9" d="M12.68,12.94c-.04.13-.07.26-.1.4"/>
              <path class="cls-9" d="M12.38,14.31c-.33,1.99-.24,4.34,1.78,4.34,3.16,0,1.87-4.63,1.26-6.41-.6-1.78,1.74-2.54,1.74-2.54v-.71h-6.01v.71s2.06.67,1.82,2.22"/>
              <g>
                <g>
                  <rect class="cls-13" x="11.15" y="6.95" width="6.01" height="2.06" rx="1.03" ry="1.03"/>
                  <g class="cls-19">
                    <rect class="cls-23" x="11.76" y="7.45" width="5.14" height="1.55"/>
                    <rect class="cls-12" x="11.76" y="7.45" width="4.64" height=".99"/>
                  </g>
                </g>
                <path class="cls-6" d="M15.66,6.95h1.33c.1,0,.17.08.17.17v1.71c0,.1-.08.17-.17.17h-5.67c-.1,0-.17-.08-.17-.17v-1.71c0-.1.08-.17.17-.17h1.32"/>
                <line class="cls-6" x1="13.94" y1="6.95" x2="14.36" y2="6.95"/>
              </g>
              <g>
                <path class="cls-18" d="M11.12.71h.04c.2,0,.36.16.36.36v1.53h-.75v-1.53c0-.2.16-.36.36-.36Z"/>
                <path class="cls-18" d="M17.16,1.08h.04c.2,0,.36.16.36.36v1.53h-.75v-1.53c0-.2.16-.36.36-.36Z"/>
                <path class="cls-18" d="M15.65.36h.04c.2,0,.36.16.36.36v1.53h-.75V.72c0-.2.16-.36.36-.36Z"/>
                <path class="cls-18" d="M12.63,1.08h.04c.2,0,.36.16.36.36v1.53h-.75v-1.53c0-.2.16-.36.36-.36Z"/>
                <path class="cls-18" d="M14.14,0h.04C14.38,0,14.54.16,14.54.36v1.53h-.75V.36C13.78.16,13.94,0,14.14,0Z"/>
                <path class="cls-18" d="M16.8,1.76c0,.15-.17.27-.38.27s-.38-.12-.38-.27h-.75c0,.15-.17.27-.38.27s-.38-.12-.38-.27h-.75c0,.15-.17.27-.38.27s-.38-.12-.38-.27h-.75c0,.15-.17.27-.38.27s-.38-.12-.38-.27h-.75v2.52h6.79V1.76h-.75Z"/>
              </g>
            </g>
            <g>
              <ellipse class="cls-8" cx="11.14" cy="11.35" rx=".38" ry=".27"/>
              <ellipse class="cls-7" cx="18.87" cy="16.18" rx=".38" ry=".27"/>
              <ellipse class="cls-8" cx="1.53" cy="13.43" rx=".38" ry=".27"/>
              <ellipse class="cls-8" cx="10.38" cy="13.97" rx=".38" ry=".27"/>
              <g>
                <line class="cls-5" x1="18.47" y1="13.3" x2="19.27" y2="13.3"/>
                <line class="cls-5" x1="18.87" y1="13.01" x2="18.87" y2="13.58"/>
              </g>
              <g>
                <line class="cls-5" x1=".12" y1="11.25" x2=".92" y2="11.25"/>
                <line class="cls-5" x1=".52" y1="10.97" x2=".52" y2="11.54"/>
              </g>
              <g>
                <line class="cls-5" x1="7.44" y1="15.68" x2="8.24" y2="15.68"/>
                <line class="cls-5" x1="7.84" y1="15.39" x2="7.84" y2="15.96"/>
              </g>
              <g>
                <line class="cls-10" x1="18.42" y1="10.32" x2="18.42" y2="10.15"/>
                <line class="cls-10" x1="18.1" y1="10.22" x2="18.27" y2="10.1"/>
                <line class="cls-10" x1="17.96" y1="10" x2="18.2" y2="10"/>
                <line class="cls-10" x1="18.09" y1="9.77" x2="18.26" y2="9.89"/>
                <line class="cls-10" x1="18.41" y1="9.67" x2="18.41" y2="9.84"/>
                <line class="cls-10" x1="18.73" y1="9.76" x2="18.56" y2="9.88"/>
                <line class="cls-10" x1="18.87" y1="9.99" x2="18.63" y2="9.99"/>
                <line class="cls-10" x1="18.74" y1="10.22" x2="18.57" y2="10.1"/>
              </g>
              <g>
                <line class="cls-10" x1="8.7" y1="11.85" x2="8.7" y2="11.68"/>
                <line class="cls-10" x1="8.38" y1="11.75" x2="8.55" y2="11.63"/>
                <line class="cls-10" x1="8.24" y1="11.53" x2="8.48" y2="11.53"/>
                <line class="cls-10" x1="8.37" y1="11.3" x2="8.54" y2="11.42"/>
                <line class="cls-10" x1="8.69" y1="11.2" x2="8.69" y2="11.37"/>
                <line class="cls-10" x1="9.01" y1="11.29" x2="8.84" y2="11.41"/>
                <line class="cls-10" x1="9.15" y1="11.52" x2="8.91" y2="11.52"/>
                <line class="cls-10" x1="9.02" y1="11.75" x2="8.85" y2="11.63"/>
              </g>
              <g>
                <line class="cls-10" x1=".52" y1="16" x2=".52" y2="15.83"/>
                <line class="cls-10" x1=".2" y1="15.91" x2=".37" y2="15.79"/>
                <line class="cls-10" x1=".06" y1="15.68" x2=".3" y2="15.68"/>
                <line class="cls-10" x1=".19" y1="15.45" x2=".36" y2="15.57"/>
                <line class="cls-10" x1=".51" y1="15.35" x2=".51" y2="15.53"/>
                <line class="cls-10" x1=".83" y1="15.45" x2=".66" y2="15.57"/>
                <line class="cls-10" x1=".97" y1="15.68" x2=".73" y2="15.68"/>
                <line class="cls-10" x1=".84" y1="15.91" x2=".67" y2="15.78"/>
              </g>
            </g>
          </g>
          <g>
            <path class="cls-20" d="M2.33,2.64v-1.51h-.54v-.31h1.44v.31h-.54v1.51h-.37Z"/>
            <path class="cls-20" d="M3.35,1.75c0-.18.03-.34.08-.47.04-.09.1-.18.17-.25.07-.07.15-.13.23-.16.11-.05.24-.07.39-.07.27,0,.48.08.64.25s.24.4.24.69-.08.52-.24.69c-.16.17-.37.25-.64.25s-.48-.08-.64-.25c-.16-.17-.24-.39-.24-.68ZM3.73,1.73c0,.21.05.36.14.47.09.11.22.16.36.16s.27-.05.36-.16.14-.26.14-.47-.05-.36-.14-.47-.21-.15-.36-.15-.27.05-.37.16c-.09.1-.14.26-.14.47Z"/>
            <path class="cls-20" d="M5.33,1.75c0-.18.03-.34.08-.47.04-.09.1-.18.17-.25.07-.07.15-.13.23-.16.11-.05.24-.07.39-.07.27,0,.48.08.64.25s.24.4.24.69-.08.52-.24.69c-.16.17-.37.25-.64.25s-.48-.08-.64-.25c-.16-.17-.24-.39-.24-.68ZM5.71,1.73c0,.21.05.36.14.47.09.11.22.16.36.16s.27-.05.36-.16.14-.26.14-.47-.05-.36-.14-.47-.21-.15-.36-.15-.27.05-.37.16c-.09.1-.14.26-.14.47Z"/>
            <path class="cls-20" d="M7.39,2.64V.84h.37v1.5h.91v.31h-1.28Z"/>
          </g>
        </g>
      </g>
    </g>
  </g>
</svg>