<?xml version="1.0" encoding="UTF-8"?>
<svg id="_图层_2" data-name="图层 2" xmlns="http://www.w3.org/2000/svg" viewBox="0 0 15 15">
  <defs>
    <style>
      .cls-1 {
        fill: #8fc31f;
      }
    </style>
  </defs>
  <g id="Layer_1" data-name="Layer 1">
    <g>
      <path class="cls-1" d="M7.5,1.88c3.1,0,5.63,2.52,5.63,5.63s-2.52,5.63-5.63,5.63S1.88,10.6,1.88,7.5,4.4,1.88,7.5,1.88M7.5,0C3.36,0,0,3.36,0,7.5s3.36,7.5,7.5,7.5,7.5-3.36,7.5-7.5S11.65,0,7.5,0"/>
      <path class="cls-1" d="M9.38,10.32c-.24,0-.48-.09-.66-.27l-1.87-1.88c-.17-.17-.28-.4-.28-.66h0v-3.75c0-.52.42-.94.94-.94s.94.42.94.94v3.36l1.6,1.6c.37.37.37.96,0,1.33-.18.18-.42.27-.66.27"/>
    </g>
  </g>
</svg>