<?xml version="1.0" encoding="UTF-8"?>
<svg xmlns="http://www.w3.org/2000/svg" xmlns:xlink="http://www.w3.org/1999/xlink" viewBox="0 0 29.2 29.2">
  <defs>
    <style>
      .cls-1, .cls-2 {
        mix-blend-mode: multiply;
      }

      .cls-1, .cls-3 {
        fill: #35a3dd;
      }

      .cls-4 {
        fill: #e4e5e4;
      }

      .cls-5 {
        stroke: #f7bc00;
      }

      .cls-5, .cls-6, .cls-7, .cls-8, .cls-9, .cls-10 {
        stroke-linecap: round;
        stroke-linejoin: round;
      }

      .cls-5, .cls-6, .cls-7, .cls-8, .cls-9, .cls-10, .cls-11 {
        fill: none;
      }

      .cls-5, .cls-7, .cls-8 {
        stroke-width: .21px;
      }

      .cls-6 {
        stroke-width: .68px;
      }

      .cls-6, .cls-9 {
        stroke: #231815;
      }

      .cls-12 {
        fill: #d1d1d0;
      }

      .cls-13 {
        fill: #fff;
      }

      .cls-14 {
        fill: #8fc21f;
      }

      .cls-7 {
        stroke: #f9ed00;
      }

      .cls-15 {
        clip-path: url(#clippath-1);
      }

      .cls-16 {
        isolation: isolate;
      }

      .cls-17 {
        fill: #00a33b;
      }

      .cls-8 {
        stroke: #35a3dd;
      }

      .cls-18, .cls-2 {
        fill: #e5510a;
      }

      .cls-19 {
        clip-path: url(#clippath-3);
      }

      .cls-20 {
        fill: #231815;
      }

      .cls-21 {
        fill: #efefef;
        stroke: #60b632;
      }

      .cls-21, .cls-11 {
        stroke-miterlimit: 10;
      }

      .cls-9 {
        stroke-width: .7px;
      }

      .cls-22 {
        fill: #0066b3;
      }

      .cls-23 {
        clip-path: url(#clippath-2);
      }

      .cls-24 {
        fill: #a6a5a2;
      }

      .cls-10 {
        stroke: #8fc21f;
        stroke-width: .13px;
      }

      .cls-25 {
        clip-path: url(#clippath);
      }

      .cls-11 {
        stroke: #161f5e;
        stroke-width: .03px;
      }
    </style>
    <clipPath id="clippath">
      <rect class="cls-13" x="4.65" y="16.29" width="10.53" height="2.53" rx="1.2" ry="1.2" transform="translate(27.47 7.64) rotate(90)"/>
    </clipPath>
    <clipPath id="clippath-1">
      <path class="cls-11" d="M12.09,13.14h-4.4c-.07,0-.14-.04-.14-.1l-.52-2.16c0-.05.06-.1.09-.1h5.48c.12,0,.18.04.18.1l-.56,2.16c0,.05-.06.1-.14.1Z"/>
    </clipPath>
    <clipPath id="clippath-2">
      <path class="cls-13" d="M19.18,13.07h-3.01v.71s2.35.77,1.74,2.54c-.6,1.78-1.58,6.41,1.26,6.41,3.16,0,1.87-4.63,1.26-6.41-.6-1.78,1.74-2.54,1.74-2.54v-.71h-3.01ZM19.18,21c-.36,0-.65-.21-.65-.47s.29-.47.65-.47.65.21.65.47-.29.47-.65.47Z"/>
    </clipPath>
    <clipPath id="clippath-3">
      <rect class="cls-13" x="16.17" y="11.03" width="6.01" height="2.06" rx="1.03" ry="1.03"/>
    </clipPath>
  </defs>
  <g class="cls-16">
    <g id="_图层_2" data-name="图层 2">
      <g id="Layer_1" data-name="Layer 1">
        <g>
          <rect class="cls-21" x=".5" y=".5" width="28.2" height="28.2" rx="5.25" ry="5.25"/>
          <g>
            <g>
              <g>
                <rect class="cls-4" x="6.69" y="8.16" width="6.43" height="2.79"/>
                <rect class="cls-12" x="7.21" y="8.16" width=".32" height="2.79"/>
                <rect class="cls-12" x="8.06" y="8.16" width=".32" height="2.79"/>
                <rect class="cls-12" x="9.03" y="8.16" width=".32" height="2.79"/>
                <rect class="cls-12" x="9.89" y="8.16" width=".32" height="2.79"/>
                <rect class="cls-12" x="10.73" y="8.16" width=".32" height="2.79"/>
                <rect class="cls-12" x="11.58" y="8.16" width=".32" height="2.79"/>
                <rect class="cls-12" x="12.38" y="8.16" width=".32" height="2.79"/>
                <g>
                  <g>
                    <rect class="cls-13" x="4.65" y="16.29" width="10.53" height="2.53" rx="1.2" ry="1.2" transform="translate(27.47 7.64) rotate(90)"/>
                    <g class="cls-25">
                      <path class="cls-17" d="M6.41,17.39h8.85v.68H5.76v-.03c0-.36.29-.65.65-.65Z" transform="translate(28.25 7.22) rotate(90)"/>
                      <path class="cls-14" d="M4.83,17.69h10.06v.62H5.42c-.33,0-.59-.26-.59-.59v-.03h0Z" transform="translate(27.86 8.15) rotate(90)"/>
                    </g>
                  </g>
                  <path class="cls-9" d="M8.65,16.52v-3.32c0-.5.57-.91,1.27-.91h0c.7,0,1.27.41,1.27.91v8.71c0,.5-.57.91-1.27.91h0c-.7,0-1.27-.41-1.27-.91v-1.62"/>
                  <line class="cls-9" x1="8.65" y1="18.75" x2="8.65" y2="18.22"/>
                </g>
                <g>
                  <g>
                    <g class="cls-15">
                      <path class="cls-24" d="M12.75,13.58h-4.1c-.07,0-.14-.04-.14-.1l-.63-2.16c0-.05.06-.1.14-.1h4.73c.07,0,.14.04.14.1v2.16c0,.05-.06.1-.14.1Z"/>
                      <path class="cls-12" d="M8.34,12.58c-.07,0-.14-.04-.14-.1l-.33-1.16c0-.05.06-.1.14-.1h3.86l-.34,1.35h-3.19Z"/>
                    </g>
                    <path class="cls-11" d="M12.09,13.14h-4.4c-.07,0-.14-.04-.14-.1l-.52-2.16c0-.05.06-.1.09-.1h5.48c.12,0,.18.04.18.1l-.56,2.16c0,.05-.06.1-.14.1Z"/>
                  </g>
                  <path class="cls-6" d="M11.41,10.79h1.25c.07,0,.14.04.14.1l-.56,2.16c0,.05-.06.1-.14.1h-3.86"/>
                  <line class="cls-6" x1="9.8" y1="10.79" x2="10.13" y2="10.79"/>
                  <path class="cls-9" d="M7.56,12.67l-.52-1.79c0-.05.06-.1.14-.1h1.33"/>
                </g>
                <path class="cls-1" d="M13.12,8.16h-6.43v1.07s1.01-.33,1.36-.3c.44.03,1.7.93,2.38.17.86-.95,2.69.49,2.69.49v-1.44Z"/>
              </g>
              <g>
                <rect class="cls-4" x="15.79" y="8.36" width="6.79" height="2.94"/>
                <path class="cls-12" d="M16.67,11.3h-.34v-2.94h.34v2.94ZM17.58,8.36h-.34v2.94h.34v-2.94ZM18.6,8.36h-.34v2.94h.34v-2.94ZM19.51,8.36h-.34v2.94h.34v-2.94ZM20.39,8.36h-.34v2.94h.34v-2.94ZM21.29,8.36h-.34v2.94h.34v-2.94ZM22.13,8.36h-.34v2.94h.34v-2.94Z"/>
                <path class="cls-2" d="M22.58,8.36h-6.79v1.13s1.06-.35,1.44-.32c.47.03,1.8.98,2.52.18.91-1,2.84.52,2.84.52v-1.52Z"/>
                <g>
                  <path class="cls-13" d="M19.18,13.07h-3.01v.71s2.35.77,1.74,2.54c-.6,1.78-1.58,6.41,1.26,6.41,3.16,0,1.87-4.63,1.26-6.41-.6-1.78,1.74-2.54,1.74-2.54v-.71h-3.01ZM19.18,21c-.36,0-.65-.21-.65-.47s.29-.47.65-.47.65.21.65.47-.29.47-.65.47Z"/>
                  <g class="cls-23">
                    <path class="cls-3" d="M19.73,13.61h-2.23v.2s1.76,1.05,1.16,2.83c-.6,1.78-1.07,6.41,1.06,6.41s1.38-4.63.78-6.41c-.6-1.78,2.22-2.54,2.22-2.54v-.49h-3.01Z"/>
                    <path class="cls-22" d="M20.98,13.61s-2.09.93-1.49,2.71c.58,1.73,1.31,6.13-.6,6.39.22.21.5.33.84.33,2.14,0,1.91-4.8,1.3-6.58-.6-1.78,1.7-2.37,1.7-2.37v-.49h-1.76Z"/>
                  </g>
                </g>
                <path class="cls-9" d="M17.7,17.02c-.04.13-.07.26-.1.4"/>
                <path class="cls-9" d="M17.4,18.39c-.33,1.99-.24,4.34,1.78,4.34,3.16,0,1.87-4.63,1.26-6.41-.6-1.78,1.74-2.54,1.74-2.54v-.71h-6.01v.71s2.06.67,1.82,2.22"/>
                <g>
                  <g>
                    <rect class="cls-13" x="16.17" y="11.03" width="6.01" height="2.06" rx="1.03" ry="1.03"/>
                    <g class="cls-19">
                      <rect class="cls-24" x="16.78" y="11.53" width="5.14" height="1.55"/>
                      <rect class="cls-12" x="16.78" y="11.53" width="4.64" height=".99"/>
                    </g>
                  </g>
                  <path class="cls-6" d="M20.68,11.03h1.33c.1,0,.17.08.17.17v1.71c0,.1-.08.17-.17.17h-5.67c-.1,0-.17-.08-.17-.17v-1.71c0-.1.08-.17.17-.17h1.32"/>
                  <line class="cls-6" x1="18.96" y1="11.03" x2="19.38" y2="11.03"/>
                </g>
                <g>
                  <path class="cls-18" d="M16.14,4.79h.04c.2,0,.36.16.36.36v1.53h-.75v-1.53c0-.2.16-.36.36-.36Z"/>
                  <path class="cls-18" d="M22.18,5.16h.04c.2,0,.36.16.36.36v1.53h-.75v-1.53c0-.2.16-.36.36-.36Z"/>
                  <path class="cls-18" d="M20.67,4.44h.04c.2,0,.36.16.36.36v1.53h-.75v-1.53c0-.2.16-.36.36-.36Z"/>
                  <path class="cls-18" d="M17.65,5.16h.04c.2,0,.36.16.36.36v1.53h-.75v-1.53c0-.2.16-.36.36-.36Z"/>
                  <path class="cls-18" d="M19.16,4.08h.04c.2,0,.36.16.36.36v1.53h-.75v-1.53c0-.2.16-.36.36-.36Z"/>
                  <path class="cls-18" d="M21.82,5.84c0,.15-.17.27-.38.27s-.38-.12-.38-.27h-.75c0,.15-.17.27-.38.27s-.38-.12-.38-.27h-.75c0,.15-.17.27-.38.27s-.38-.12-.38-.27h-.75c0,.15-.17.27-.38.27s-.38-.12-.38-.27h-.75v2.52h6.79v-2.52h-.75Z"/>
                </g>
              </g>
              <g>
                <ellipse class="cls-8" cx="16.16" cy="15.43" rx=".38" ry=".27"/>
                <ellipse class="cls-7" cx="23.89" cy="20.26" rx=".38" ry=".27"/>
                <ellipse class="cls-8" cx="6.55" cy="17.5" rx=".38" ry=".27"/>
                <ellipse class="cls-8" cx="15.4" cy="18.05" rx=".38" ry=".27"/>
                <g>
                  <line class="cls-5" x1="23.49" y1="17.38" x2="24.29" y2="17.38"/>
                  <line class="cls-5" x1="23.89" y1="17.09" x2="23.89" y2="17.66"/>
                </g>
                <g>
                  <line class="cls-5" x1="5.14" y1="15.33" x2="5.94" y2="15.33"/>
                  <line class="cls-5" x1="5.54" y1="15.05" x2="5.54" y2="15.62"/>
                </g>
                <g>
                  <line class="cls-5" x1="12.47" y1="19.76" x2="13.27" y2="19.76"/>
                  <line class="cls-5" x1="12.87" y1="19.47" x2="12.87" y2="20.04"/>
                </g>
                <g>
                  <line class="cls-10" x1="23.44" y1="14.4" x2="23.44" y2="14.23"/>
                  <line class="cls-10" x1="23.12" y1="14.3" x2="23.29" y2="14.18"/>
                  <line class="cls-10" x1="22.98" y1="14.08" x2="23.22" y2="14.08"/>
                  <line class="cls-10" x1="23.11" y1="13.85" x2="23.28" y2="13.97"/>
                  <line class="cls-10" x1="23.43" y1="13.75" x2="23.43" y2="13.92"/>
                  <line class="cls-10" x1="23.75" y1="13.84" x2="23.58" y2="13.96"/>
                  <line class="cls-10" x1="23.89" y1="14.07" x2="23.65" y2="14.07"/>
                  <line class="cls-10" x1="23.76" y1="14.3" x2="23.59" y2="14.18"/>
                </g>
                <g>
                  <line class="cls-10" x1="13.72" y1="15.93" x2="13.72" y2="15.76"/>
                  <line class="cls-10" x1="13.4" y1="15.83" x2="13.57" y2="15.71"/>
                  <line class="cls-10" x1="13.27" y1="15.61" x2="13.5" y2="15.61"/>
                  <line class="cls-10" x1="13.4" y1="15.38" x2="13.56" y2="15.5"/>
                  <line class="cls-10" x1="13.71" y1="15.28" x2="13.71" y2="15.45"/>
                  <line class="cls-10" x1="14.03" y1="15.37" x2="13.86" y2="15.49"/>
                  <line class="cls-10" x1="14.17" y1="15.6" x2="13.93" y2="15.6"/>
                  <line class="cls-10" x1="14.04" y1="15.83" x2="13.87" y2="15.71"/>
                </g>
                <g>
                  <line class="cls-10" x1="5.54" y1="20.08" x2="5.54" y2="19.91"/>
                  <line class="cls-10" x1="5.22" y1="19.99" x2="5.39" y2="19.87"/>
                  <line class="cls-10" x1="5.08" y1="19.76" x2="5.32" y2="19.76"/>
                  <line class="cls-10" x1="5.21" y1="19.53" x2="5.38" y2="19.65"/>
                  <line class="cls-10" x1="5.53" y1="19.43" x2="5.53" y2="19.61"/>
                  <line class="cls-10" x1="5.85" y1="19.53" x2="5.68" y2="19.65"/>
                  <line class="cls-10" x1="5.99" y1="19.76" x2="5.75" y2="19.76"/>
                  <line class="cls-10" x1="5.86" y1="19.99" x2="5.69" y2="19.86"/>
                </g>
              </g>
            </g>
            <g>
              <path class="cls-20" d="M7.35,6.72v-1.51h-.54v-.31h1.44v.31h-.54v1.51h-.37Z"/>
              <path class="cls-20" d="M8.38,5.83c0-.18.03-.34.08-.47.04-.09.1-.18.17-.25.07-.07.15-.13.23-.16.11-.05.24-.07.39-.07.27,0,.48.08.64.25s.24.4.24.69-.08.52-.24.69c-.16.17-.37.25-.64.25s-.48-.08-.64-.25c-.16-.17-.24-.39-.24-.68ZM8.75,5.81c0,.21.05.36.14.47.09.11.22.16.36.16s.27-.05.36-.16.14-.26.14-.47-.05-.36-.14-.47-.21-.15-.36-.15-.27.05-.37.16c-.09.1-.14.26-.14.47Z"/>
              <path class="cls-20" d="M10.35,5.83c0-.18.03-.34.08-.47.04-.09.1-.18.17-.25.07-.07.15-.13.23-.16.11-.05.24-.07.39-.07.27,0,.48.08.64.25s.24.4.24.69-.08.52-.24.69c-.16.17-.37.25-.64.25s-.48-.08-.64-.25c-.16-.17-.24-.39-.24-.68ZM10.73,5.81c0,.21.05.36.14.47.09.11.22.16.36.16s.27-.05.36-.16.14-.26.14-.47-.05-.36-.14-.47-.21-.15-.36-.15-.27.05-.37.16c-.09.1-.14.26-.14.47Z"/>
              <path class="cls-20" d="M12.41,6.72v-1.8h.37v1.5h.91v.31h-1.28Z"/>
            </g>
          </g>
        </g>
      </g>
    </g>
  </g>
</svg>