<?xml version="1.0" encoding="UTF-8"?>
<svg id="_图层_2" data-name="图层 2" xmlns="http://www.w3.org/2000/svg" viewBox="0 0 199.77 71.72">
  <defs>
    <style>
      .cls-1 {
        fill: #96928f;
        opacity: .36;
      }

      .cls-2 {
        opacity: .05;
      }

      .cls-3 {
        fill: #686360;
        opacity: .55;
      }

      .cls-4, .cls-5 {
        fill: #fff;
      }

      .cls-6 {
        fill: #534e4c;
        opacity: .64;
      }

      .cls-5 {
        opacity: 0;
      }

      .cls-7 {
        fill: #afaba9;
        opacity: .27;
      }

      .cls-8 {
        fill: #7f7a77;
        opacity: .45;
      }

      .cls-9 {
        fill: #1a1616;
        opacity: .91;
      }

      .cls-10 {
        fill: #c9c6c5;
        opacity: .18;
      }

      .cls-11 {
        fill: #e5e3e2;
        opacity: .09;
      }

      .cls-12 {
        fill: #2c2827;
        opacity: .82;
      }

      .cls-13 {
        fill: #050000;
      }

      .cls-14 {
        fill: #3f3b39;
        opacity: .73;
      }
    </style>
  </defs>
  <g id="Layer_1" data-name="Layer 1">
    <g>
      <g class="cls-2">
        <path class="cls-5" d="M4.64,0h190.48c2.56,0,4.64,2.08,4.64,4.64v62.43c0,2.56-2.08,4.64-4.64,4.64H4.64c-2.56,0-4.64-2.08-4.64-4.64V4.64C0,2.08,2.08,0,4.64,0Z"/>
        <rect class="cls-11" x="1.11" y="1.03" width="197.54" height="69.94" rx="4.84" ry="4.84"/>
        <rect class="cls-10" x="2.23" y="2.06" width="195.32" height="68.17" rx="5.03" ry="5.03"/>
        <rect class="cls-7" x="3.34" y="3.09" width="193.09" height="66.39" rx="5.23" ry="5.23"/>
        <rect class="cls-1" x="4.45" y="4.12" width="190.86" height="64.62" rx="5.42" ry="5.42"/>
        <rect class="cls-8" x="5.57" y="5.15" width="188.64" height="62.84" rx="5.61" ry="5.61"/>
        <rect class="cls-3" x="6.68" y="6.18" width="186.41" height="61.06" rx="5.81" ry="5.81"/>
        <rect class="cls-6" x="7.79" y="7.21" width="184.19" height="59.29" rx="6" ry="6"/>
        <path class="cls-14" d="M15.1,8.24h169.57c3.42,0,6.2,2.78,6.2,6.2v45.12c0,3.42-2.78,6.2-6.2,6.2H15.1c-3.42,0-6.2-2.78-6.2-6.2V14.43c0-3.42,2.78-6.2,6.2-6.2Z"/>
        <path class="cls-12" d="M16.41,9.26h166.95c3.53,0,6.39,2.86,6.39,6.39v42.96c0,3.53-2.86,6.39-6.39,6.39H16.41c-3.53,0-6.39-2.86-6.39-6.39V15.65c0-3.53,2.86-6.39,6.39-6.39Z"/>
        <path class="cls-9" d="M17.72,10.29h164.34c3.63,0,6.58,2.95,6.58,6.58v40.8c0,3.63-2.95,6.58-6.58,6.58H17.71c-3.63,0-6.58-2.95-6.58-6.58V16.88c0-3.63,2.95-6.58,6.58-6.58Z"/>
        <path class="cls-13" d="M19.02,11.32h161.73c3.74,0,6.78,3.04,6.78,6.78v38.63c0,3.74-3.04,6.78-6.78,6.78H19.02c-3.74,0-6.78-3.04-6.78-6.78V18.1c0-3.74,3.04-6.78,6.78-6.78Z"/>
      </g>
      <rect class="cls-4" x="12.24" y="11.32" width="175.28" height="51.56" rx="3.39" ry="3.39"/>
    </g>
  </g>
</svg>