<?xml version="1.0" encoding="UTF-8"?>
<svg id="_图层_2" data-name="图层 2" xmlns="http://www.w3.org/2000/svg" viewBox="0 0 27.79 24.25">
  <defs>
    <style>
      .cls-1 {
        fill: #006934;
      }
    </style>
  </defs>
  <g id="Layer_1" data-name="Layer 1">
    <g>
      <path class="cls-1" d="M2.63,24.25c-1.45,0-2.63-1.15-2.63-2.57h0V7.22c0-1.42,1.18-2.57,2.63-2.57h11.91c1.45,0,2.63,1.15,2.63,2.57h0v14.46c0,1.42-1.18,2.57-2.63,2.57H2.63ZM1.69,7.22v14.46c0,.51.43.93.95.93h11.91c.52,0,.95-.42.95-.93h0V7.22c0-.51-.42-.93-.95-.93H2.63c-.52,0-.95.42-.95.93h0Z"/>
      <path class="cls-1" d="M14.3,16.03l-2.94-2.86-2.71,4.41,1.09,1.07,4.56-2.62Z"/>
      <path class="cls-1" d="M27.13.65c-.88-.86-2.32-.86-3.2,0l-.91.89,3.2,3.13.91-.89c.89-.86.89-2.27,0-3.13ZM25.49,5.4l-3.21-3.14-10.49,10.25,3.2,3.13,10.5-10.24Z"/>
      <path class="cls-1" d="M9.19,19.04l-1.04-1.02-1.58,2.55,2.62-1.53Z"/>
      <path class="cls-1" d="M14.47,16.03l-4.73,2.77-1.25-1.22,2.77-4.47.11.06-.11-.06.08-.14,3.13,3.06h0ZM11.38,13.37l-2.58,4.17.97.95,4.29-2.5-2.67-2.61h0Z"/>
    </g>
  </g>
</svg>