<?xml version="1.0" encoding="UTF-8"?>
<svg id="_图层_2" data-name="图层 2" xmlns="http://www.w3.org/2000/svg" viewBox="0 0 149.79 25.38">
  <defs>
    <style>
      .cls-1 {
        fill: #fff;
      }

      .cls-2 {
        fill: #2fa138;
      }
    </style>
  </defs>
  <g id="Layer_1" data-name="Layer 1">
    <g>
      <path class="cls-2" d="M149.79,20.38c0,2.75-1.93,5-4.3,5H6.02c-2.36,0-4.3-2.25-4.3-5V6.33C1.72,3.58,3.65,1.33,6.02,1.33h139.47c2.36,0,4.3,2.25,4.3,5v14.05Z"/>
      <path class="cls-1" d="M148.07,19.05c0,2.75-1.93,5-4.3,5H4.3c-2.36,0-4.3-2.25-4.3-5V5C0,2.25,1.93,0,4.3,0h139.47c2.36,0,4.3,2.25,4.3,5v14.05Z"/>
    </g>
  </g>
</svg>