<?xml version="1.0" encoding="UTF-8"?>
<svg id="_图层_2" data-name="图层 2" xmlns="http://www.w3.org/2000/svg" xmlns:xlink="http://www.w3.org/1999/xlink" viewBox="0 0 12.77 13.7">
  <defs>
    <style>
      .cls-1 {
        fill: none;
      }

      .cls-2 {
        fill: #006934;
      }

      .cls-3 {
        clip-path: url(#clippath);
      }
    </style>
    <clipPath id="clippath">
      <rect class="cls-1" width="12.77" height="13.7"/>
    </clipPath>
  </defs>
  <g id="Layer_1" data-name="Layer 1">
    <g class="cls-3">
      <path class="cls-2" d="M2.48,11.31v-.07s0,.05,0,.07h0ZM7.92,3.05c-.33,0-.61.27-.61.61v7.6c0,.33.28.61.61.61s.61-.27.61-.61V3.65c0-.34-.28-.61-.61-.61h0ZM12.15,1.25h-4.83s0-.62,0-.62C7.32.29,7.05.02,6.71.02c-.11,0-.21.03-.3.08-.09-.05-.19-.08-.3-.08-.33,0-.61.27-.61.61v.63s-3.48,0-3.48,0c-.05-.01-.1-.02-.15-.02s-.1,0-.15.02H.6C.27,1.25,0,1.52,0,1.86s.27.61.61.61h.65s0,9.35,0,9.35h0v.64c0,.67.54,1.21,1.21,1.21h.61s6.67,0,6.67,0h0s.61,0,.61,0c.66,0,1.2-.53,1.21-1.19V3.66c0-.34-.28-.61-.61-.61s-.61.27-.61.61v7.71c-.02.91-.28,1.08-1.21,1.08l.63.02H2.89s.79-.02.79-.02c-.95,0-1.2-.17-1.21-1.14v1.16s0,0,0,0V2.46s3.58,0,3.58,0c.02,0,.04,0,.05,0s.04,0,.05,0h.49s.04,0,.06,0,.04,0,.06,0h5.37c.33,0,.61-.27.61-.61s-.27-.61-.61-.61h0ZM10.36,11.47v.99s0,0,0,0v-.99ZM4.89,3.05c-.33,0-.61.27-.61.61v7.6c0,.33.28.61.61.61s.61-.27.61-.61V3.65c0-.34-.28-.61-.61-.61h0Z"/>
    </g>
  </g>
</svg>