<?xml version="1.0" encoding="UTF-8"?>
<svg id="_图层_2" data-name="图层 2" xmlns="http://www.w3.org/2000/svg" viewBox="0 0 34.14 28.17">
  <defs>
    <style>
      .cls-1 {
        fill: #050503;
      }

      .cls-2 {
        fill: #46b144;
      }

      .cls-3 {
        fill: #3aa738;
      }

      .cls-4 {
        fill: #050202;
      }

      .cls-5 {
        fill: #fdfeff;
      }

      .cls-6 {
        fill: #050101;
      }

      .cls-7 {
        fill: #050302;
      }

      .cls-8 {
        fill: #cbe4c3;
      }

      .cls-9 {
        fill: #f3d426;
      }

      .cls-10 {
        fill: #fdfefe;
      }

      .cls-11 {
        fill: #040000;
      }

      .cls-12 {
        fill: #5bb650;
      }

      .cls-13 {
        fill: #f5d73b;
      }

      .cls-14 {
        fill: #47b145;
      }

      .cls-15 {
        fill: #c6e7f9;
      }

      .cls-16 {
        fill: #418ccb;
      }

      .cls-17 {
        fill: #fff;
      }

      .cls-18 {
        fill: #050603;
      }

      .cls-19 {
        fill: #319c39;
      }

      .cls-20 {
        fill: #060905;
      }

      .cls-21 {
        fill: #f0851f;
      }

      .cls-22 {
        fill: #050704;
      }

      .cls-23 {
        fill: #060202;
      }

      .cls-24 {
        fill: #f4d637;
      }

      .cls-25 {
        fill: #f3d633;
      }

      .cls-26 {
        fill: #f0851a;
      }

      .cls-27 {
        fill: #36ae3f;
      }

      .cls-28 {
        fill: #cae4c3;
      }

      .cls-29 {
        fill: #f4d633;
      }

      .cls-30 {
        fill: #54b5e7;
      }

      .cls-31 {
        fill: #060404;
      }

      .cls-32 {
        fill: #428dcc;
      }

      .cls-33 {
        fill: #35ae40;
      }

      .cls-34 {
        fill: #f0841d;
      }

      .cls-35 {
        fill: #060303;
      }

      .cls-36 {
        fill: #71bd5a;
      }

      .cls-37 {
        fill: #50b34a;
      }

      .cls-38 {
        fill: #56b54e;
      }

      .cls-39 {
        fill: #f2d424;
      }

      .cls-40 {
        fill: #fffefd;
      }

      .cls-41 {
        fill: #070505;
      }

      .cls-42 {
        fill: #f3d52b;
      }

      .cls-43 {
        fill: #f4d532;
      }

      .cls-44 {
        fill: #f4d638;
      }

      .cls-45 {
        fill: #f3d42b;
      }

      .cls-46 {
        fill: #55b5e7;
      }

      .cls-47 {
        fill: #f08520;
      }
    </style>
  </defs>
  <g id="Layer_1" data-name="Layer 1">
    <g>
      <path class="cls-11" d="M29.65,27.34c-.06,0-.13,0-.19,0-2.58,0-5.17,0-7.75,0-.2,0-.4,0-.6,0,.05-.07.11-.1.17-.12,3.65-1.65,5.97-4.39,6.83-8.33.27-1.22-.33-2.2-1.47-2.48-.28-.07-.57-.05-.85-.05-.17,0-.24-.03-.23-.22.02-.34,0-.68,0-1.02.02-.31-.1-.5-.4-.57-.28-.05-.46.1-.49.43-.02.31,0,.62,0,.93,0,.1.02.22-.07.3-.04.02-.08.03-.13.03-.69,0-1.37,0-2.06,0-.08,0-.16,0-.23-.06-.06-.09-.04-.19-.04-.29,0-.37,0-.75,0-1.12-.05-1.24-.5-2.31-1.34-3.22-.42-.46-.93-.81-1.49-1.08-.12-.06-.19-.13-.18-.26.01-.13.13-.1.21-.12.27-.07.45-.27.45-.53,0-.25-.17-.49-.43-.54-.18-.04-.27-.12-.28-.3-.02-.49-.14-.95-.3-1.41-.05-.15-.02-.26.13-.32.35-.15.71-.3,1.1-.32.4-.05.81-.08,1.21-.01,1.56.26,2.63,1.14,3.19,2.61.19.49.26,1,.25,1.53,0,.48-.01.97,0,1.45.01.32.2.48.49.44.31-.09.39-.18.39-.51,0-.38.02-.75,0-1.13-.02-.28.04-.42.36-.41.28,0,.42-.18.4-.43-.01-.24-.19-.41-.45-.38-.3.04-.4-.06-.43-.35-.02-.15,0-.23.13-.3.1-.06.2-.12.29-.19.2-.15.24-.38.12-.57-.12-.19-.37-.24-.59-.11-.09.05-.18.12-.28.18-.26-.51-.58-.97-1-1.4.07-.05.12-.09.18-.14.06-.05.12-.11.17-.17.14-.18.13-.41-.03-.55-.17-.15-.35-.16-.54-.03-.09.07-.18.15-.25.24-.11.13-.19.12-.33.03-1.53-.93-3.12-1.03-4.75-.29-.22.1-.3.08-.42-.12-1.31-2.14-3.97-3.26-6.38-2.7q-.39.09-.46-.31c-.05-.23-.24-.39-.46-.37-.23.02-.39.22-.37.47,0,.13.01.27.04.4.02.13.02.21-.12.27-.13.07-.21.04-.29-.06-.1-.11-.21-.22-.33-.31-.18-.14-.41-.12-.55.04-.15.17-.15.35-.02.54.08.11.29.2.26.31-.03.12-.21.2-.33.29-.03.03-.07.06-.1.09-.23.21-.27.47-.09.65.18.19.4.18.64-.02.63-.56,1.36-.94,2.18-1.16.16.07.31,0,.47-.01.6-.06,1.2-.08,1.8.04,1.49.29,2.62,1.11,3.41,2.38.63,1.01.8,2.13.74,3.3,0,.15-.08.19-.2.16-.26-.06-.53-.05-.8-.05-.87.05-1.69.26-2.43.74-1.44.93-2.22,2.25-2.31,3.97,0,.37,0,.75,0,1.12,0,.36-.02.38-.37.38-.95,0-1.91,0-2.86,0-.13,0-.27,0-.4.03-.08.06-.17.08-.27.08-.21,0-.42-.01-.63,0-.11-.05-.06-.16-.07-.24,0-.26,0-.52,0-.78,0-.28-.17-.46-.41-.47-.24,0-.41.18-.42.46,0,.25-.02.5,0,.75.02.22-.06.28-.28.3-1.05.09-1.89,1.16-1.71,2.17.52,2.98,2,5.37,4.38,7.21.83.64,1.73,1.14,2.69,1.58h-.25c-3,0-5.99,0-8.99,0-.11,0-.21,0-.32.03-.19.06-.28.19-.29.37-.01.19.08.32.26.4.11.05.23.04.34.04,8.89,0,17.78,0,26.67,0,.06,0,.13,0,.19,0,.24-.02.41-.19.42-.4,0-.21-.16-.4-.4-.43ZM16.22,11.16c-1.36.91-2.07,2.17-2.07,3.81,0,.25,0,.5.01.75.12.2.13.4-.01.6-.26.05-.52.01-.77.02-.07,0-.12-.02-.12-.1.02-.97-.1-1.95.31-2.88.55-1.22,1.46-2,2.75-2.33.06.11-.06.11-.1.13Z"/>
      <path class="cls-36" d="M17.11,10.08c-2.01.16-3.47,1.11-4.31,2.97-.23.51-.33,1.05-.37,1.6-.04.19-.02.39-.02.59,0,.16-.07.23-.21.24-.1,0-.2,0-.29,0-.9,0-1.8,0-2.7,0q-.43,0-.44.42c0,.14.02.29-.08.41-.28.07-.57.03-.86.03.2,0,.39-.03.59-.02.18,0,.22-.06.22-.23,0-1.04,0-2.07,0-3.11,0-1.21,0-2.41,0-3.62.02-2.21.99-3.88,2.88-5.02.07-.04.16-.05.18-.15.77-.17,1.53-.23,2.3-.03,1.83.92,2.85,2.41,3.14,4.43.06.41.03.82.04,1.23,0,.09,0,.18-.07.25Z"/>
      <path class="cls-3" d="M21.25,6.59c1.01.12,1.83.61,2.49,1.36.68.79.99,1.72.99,2.75,0,.49,0,.98,0,1.47,0,.33.1.44.43.5,0,.09-.02.19.02.28-.47.18-.38.58-.37.95,0,.22.24.24.34.37,0,.09,0,.17,0,.26-.35.09-.42.19-.43.54,0,.34,0,.68,0,1.01,0,.07.04.16-.04.22-.43-.06-.87,0-1.3-.02-.15,0-.3,0-.45,0-.29,0-.45-.09-.5-.3-.06-.22.09-.53.3-.65.16-.03.32-.01.48-.02.15,0,.21-.07.21-.21,0-.08,0-.16,0-.24,0-1.38,0-2.77,0-4.15.01-1.47-.58-2.64-1.68-3.58-.12-.1-.25-.17-.37-.26-.09-.07-.2-.13-.13-.28Z"/>
      <path class="cls-6" d="M6.93,10.13c-.02-.83,0-1.84.36-2.8.07-.19.14-.38.24-.57.11-.22.37-.3.57-.19.2.1.27.33.17.55-.38.82-.52,1.68-.5,2.58.02.73,0,1.47,0,2.2,0,.33-.15.52-.41.52-.27,0-.43-.18-.43-.53,0-.53,0-1.06,0-1.76Z"/>
      <path class="cls-35" d="M7.77,13.79c0,.17,0,.34,0,.51-.01.24-.18.41-.41.41-.24,0-.4-.14-.42-.37-.02-.36-.02-.73,0-1.1.01-.23.17-.37.41-.37.23,0,.39.16.41.41.01.17,0,.34,0,.51Z"/>
      <path class="cls-42" d="M2.76,8.04c-.42,0-.77-.34-.77-.76,0-.42.35-.77.76-.77.41,0,.77.36.77.76,0,.41-.35.77-.76.77Z"/>
      <path class="cls-30" d="M31.59,7.89c-.44,0-.75-.33-.74-.77,0-.43.32-.74.75-.74.43,0,.77.33.76.76,0,.43-.33.75-.77.75Z"/>
      <path class="cls-35" d="M33.31,28.17c-.13,0-.27,0-.4,0-.25-.02-.4-.18-.4-.41,0-.23.15-.41.39-.42.28-.02.57-.02.86,0,.24.02.39.2.38.43-.02.24-.16.37-.39.39-.14.01-.29,0-.43,0Z"/>
      <path class="cls-39" d="M29.02,4.94c-.18.01-.22-.1-.2-.24.04-.26-.04-.4-.34-.35-.15.02-.26-.01-.26-.21,0-.19.13-.21.25-.19.29.05.38-.08.34-.35-.02-.14.02-.24.2-.25.18,0,.24.1.22.25-.04.29.07.38.35.34.14-.02.25.03.25.2,0,.17-.11.22-.25.2-.28-.04-.39.06-.35.34.02.15-.03.27-.22.25Z"/>
      <path class="cls-30" d="M2.41,3.95c0,.36-.31.67-.67.66-.36-.01-.65-.31-.64-.66,0-.38.3-.68.65-.67.36,0,.66.31.66.67Z"/>
      <path class="cls-31" d="M31.19,28.17c-.11,0-.22,0-.32-.02-.21-.05-.34-.19-.34-.42,0-.21.13-.36.34-.39.2-.03.41-.03.61,0,.23.03.37.19.36.42,0,.23-.15.36-.36.4-.09.02-.2,0-.29,0,0,0,0,0,0,0Z"/>
      <path class="cls-6" d="M25.15,14.28c-.33-.07-.42-.18-.42-.51,0-.12,0-.23,0-.35,0-.32.13-.44.45-.47.26.05.38.2.37.47,0,.12,0,.23,0,.35.02.29-.12.45-.4.51Z"/>
      <path class="cls-41" d="M.61,28.17c-.07,0-.14,0-.21,0-.24-.03-.41-.21-.4-.43.02-.24.16-.37.39-.4.12-.02.25-.01.37,0,.24.02.41.19.41.41,0,.23-.17.4-.43.42-.04,0-.09,0-.13,0,0,0,0,0,0,0Z"/>
      <path class="cls-16" d="M26.18,1.61c0,.2-.12.22-.26.21-.21-.03-.3.04-.27.26.02.12,0,.25-.16.26-.18,0-.2-.13-.18-.26.03-.22-.07-.28-.27-.26-.12.01-.25,0-.25-.16,0-.18.12-.21.25-.19.21.02.3-.05.27-.27-.01-.12,0-.24.17-.24.17,0,.18.12.17.24-.03.22.07.28.27.26.13-.01.23.02.25.15Z"/>
      <path class="cls-31" d="M8.92,5.85c0,.28-.35.65-.59.63-.22-.01-.4-.21-.39-.43,0-.27.36-.65.59-.63.22.01.4.2.39.43Z"/>
      <path class="cls-34" d="M9.49.54c-.02.12-.1.17-.21.15-.17-.02-.23.05-.21.21.01.1-.02.19-.13.19-.11,0-.16-.07-.14-.18.02-.17-.03-.25-.21-.22-.1.01-.19-.03-.2-.13,0-.13.1-.16.2-.15.16.02.23-.04.21-.21-.01-.09.01-.19.13-.2.12,0,.16.08.15.17-.03.2.06.25.24.23.09,0,.15.03.17.13Z"/>
      <path class="cls-47" d="M29.24,7.97c-.15-.03-.26-.12-.26-.28,0-.18.11-.28.29-.28.16,0,.26.11.26.28,0,.18-.12.27-.3.28Z"/>
      <path class="cls-32" d="M7.63,2.46c-.01.18-.1.28-.27.28-.17,0-.27-.09-.28-.26,0-.18.09-.29.28-.28.17,0,.25.11.27.27Z"/>
      <path class="cls-21" d="M29.25,2.26c-.16-.01-.26-.1-.27-.26,0-.17.1-.28.28-.28.19,0,.28.12.27.29,0,.16-.11.26-.29.26Z"/>
      <path class="cls-13" d="M3.8,2.32c.06,0,.12,0,.19,0,.08,0,.13.05.14.14,0,.1-.05.15-.14.16-.12.01-.25,0-.37,0-.1,0-.18-.05-.18-.15,0-.11.08-.15.18-.15.06,0,.12,0,.19,0h0Z"/>
      <path class="cls-44" d="M4.45,1.66s0-.07,0-.11c0-.12,0-.26.16-.25.13,0,.15.12.15.24,0,.08,0,.16,0,.24,0,.1-.02.21-.15.21-.15,0-.16-.11-.16-.22,0-.04,0-.07,0-.11Z"/>
      <path class="cls-44" d="M4.46,3.28c0-.06,0-.12,0-.19,0-.09.06-.15.15-.15.09,0,.13.06.14.13.01.11.01.23.01.34,0,.1-.03.21-.15.21-.15,0-.16-.11-.16-.22,0-.04,0-.09,0-.13,0,0,0,0,0,0Z"/>
      <path class="cls-24" d="M5.41,2.63c-.07,0-.14,0-.21-.02-.08-.02-.12-.08-.11-.16,0-.08.06-.13.14-.13.13,0,.26,0,.4,0,.09,0,.15.06.15.15,0,.09-.07.14-.16.15-.07,0-.14,0-.21,0,0,0,0,0,0,0Z"/>
      <path class="cls-43" d="M5.04,2.76c.1,0,.43.34.43.43,0,.16-.11.19-.22.12-.12-.08-.23-.2-.32-.32-.09-.12,0-.19.11-.23Z"/>
      <path class="cls-43" d="M3.87,1.61c.1,0,.43.32.43.42,0,.1-.06.19-.16.15-.17-.08-.31-.21-.39-.39-.04-.1.02-.17.12-.18Z"/>
      <path class="cls-45" d="M5.47,1.71c0,.12-.33.48-.42.46-.1-.01-.19-.08-.13-.18.09-.16.22-.3.39-.38.08-.04.16.02.16.1Z"/>
      <path class="cls-9" d="M4.18,2.77c.12.03.17.12.09.22-.09.12-.2.23-.32.32-.09.07-.2.04-.21-.1-.01-.1.33-.45.44-.44Z"/>
      <path class="cls-29" d="M26.93,3.71c-.12,0-.2-.05-.21-.19-.01-.14.07-.23.2-.24.13,0,.22.08.22.22,0,.12-.08.2-.21.2Z"/>
      <path class="cls-25" d="M3.37,5.27c.13.03.22.09.22.22,0,.13-.09.21-.22.21-.12,0-.2-.07-.2-.2,0-.15.1-.19.2-.22Z"/>
      <path class="cls-17" d="M17.77,27.26c-1.49.18-2.97.07-4.4-.38-3.75-1.2-6.26-3.65-7.38-7.46-.09-.31-.15-.62-.2-.94-.1-.68.38-1.26,1.06-1.3.09,0,.18,0,.27,0,5.96,0,11.91,0,17.87,0,.08,0,.16,0,.24,0,.33.2.43.53.43.87,0,.55-.15,1.08-.29,1.6-.44,1.56-1.18,2.97-2.26,4.19-1.2,1.37-2.64,2.42-4.34,3.11-.32.13-.65.24-.99.3Z"/>
      <path class="cls-36" d="M16.32,11.03c.62-.13,1.25-.17,1.87.03,1.48.87,2.19,2.18,2.22,3.89,0,.19,0,.37,0,.56,0,.11,0,.22-.13.27-.11.04-.23.03-.35.03-1.78,0-3.57,0-5.35,0-.12,0-.23,0-.35-.03-.11-.04-.13-.14-.14-.24-.11-1.28.16-2.45.98-3.47.35-.43.77-.78,1.24-1.05Z"/>
      <path class="cls-46" d="M17.77,27.26c1.13-.38,2.21-.87,3.18-1.56,2.56-1.82,4.12-4.27,4.63-7.38.07-.43-.07-.81-.35-1.14.34,0,.68-.02,1.02,0,.69.03,1.21.64,1.08,1.31-.77,3.96-3.1,6.63-6.81,8.13-.88.36-1.8.58-2.75.64Z"/>
      <path class="cls-2" d="M21.25,6.59c0,.13.1.17.19.24,1.13.77,1.88,1.79,2,3.18.16,1.73.03,3.47.06,5.21,0,.14-.05.19-.19.19-.19,0-.37,0-.56,0-.09-.1-.07-.22-.07-.33,0-1.07-.31-2.04-.99-2.87-.24-.3-.55-.53-.84-.78-.04-.03-.09-.06-.13-.09-.23-.19-.21-.31.07-.43.21-.09.42-.17.48-.42.03-.1.07-.23-.06-.28-.13-.05-.16.07-.2.16-.07.16-.18.24-.36.21-.15-.02-.22-.1-.2-.26.04-.08.06-.16.06-.26.04-1.03-.02-2.04-.46-3-.06-.14-.16-.28-.1-.45.43-.07.86-.11,1.29,0Z"/>
      <path class="cls-3" d="M19.96,6.6c.21.55.47,1.09.56,1.69.1.61.08,1.22.08,1.84,0,.1-.07.16-.11.24-.05.01-.08-.03-.1-.07-.05-.08-.1-.16-.21-.1-.1.05-.08.15-.06.24.05.23.21.36.43.43.09.03.2,0,.26.1-.05.08-.2,0-.2.13,0,.11.1.17.18.22,1.05.68,1.65,1.66,1.89,2.87.08.4.09.81.07,1.22-.15.08-.32.42-.26.58.07.18.21.29.43.29.56-.01,1.12,0,1.67-.02.06,0,.08.02.09.07-.84.04-1.69.01-2.53.02-.05,0-.09-.01-.09-.07.07-.52.08-1.04,0-1.55-.16-1.94-1.1-3.35-2.86-4.2-.13-.07-.22-.33-.16-.45.03-.06.07-.03.11-.03.35-.02.56-.19.57-.47,0-.28-.2-.48-.54-.49-.1,0-.14-.01-.15-.12-.05-.61-.15-1.2-.37-1.77-.03-.09,0-.13.07-.17.39-.2.79-.37,1.23-.4Z"/>
      <path class="cls-3" d="M17.11,10.08c.02-.9,0-1.79-.31-2.66-.49-1.36-1.36-2.4-2.63-3.1-.07-.04-.15-.06-.18-.15.98.15,1.82.61,2.54,1.28,1.1,1.04,1.65,2.32,1.66,3.84,0,.24,0,.48,0,.72,0,.11-.02.15-.15.13-.31-.04-.62-.05-.93-.07Z"/>
      <path class="cls-38" d="M14.15,16.32c0-.2,0-.4.01-.6,2.06,0,4.11,0,6.17,0,.29.06.58.02.87,0,.01.01.01.02,0,.04.03.18.04.36,0,.54-.16.06-.32.03-.48.02-.06-.06-.14-.03-.2-.03-1.9,0-3.81,0-5.71,0-.07,0-.14-.02-.2.03-.15,0-.29,0-.44,0Z"/>
      <path class="cls-37" d="M21.2,15.72c-.29.13-.58.19-.87,0,0-.78.03-1.56-.26-2.32-.27-.71-.67-1.31-1.23-1.81-.21-.19-.49-.3-.66-.54,1.11.24,1.92.9,2.5,1.85.35.58.53,1.22.53,1.9,0,.3,0,.61-.01.91Z"/>
      <path class="cls-14" d="M8.69,16.32c0-.22.01-.45,0-.67-.02-.2.06-.26.26-.25,1.05,0,2.09,0,3.14,0,.24,0,.34-.06.32-.31-.01-.14-.05-.3.04-.44,0,.5,0,1,0,1.5,0,.14-.05.18-.19.18-1.19,0-2.37,0-3.56-.01Z"/>
      <path class="cls-12" d="M14.59,16.32c.07-.1.18-.06.27-.06,1.86,0,3.72,0,5.57,0,.09,0,.2-.04.27.06-.96,0-1.92.01-2.89.01-1.08,0-2.16,0-3.23-.01Z"/>
      <path class="cls-3" d="M22.06,14.71c.07.03.12.1.12.17,0,.4-.01.8-.02,1.2,0,.07-.04.14-.09.19,0-.52,0-1.04,0-1.55Z"/>
      <path class="cls-37" d="M21.19,16.3c0-.18,0-.36,0-.54.03.18.05.36,0,.54Z"/>
      <path class="cls-28" d="M10.52,7.08c-.3-.01-.51-.32-.38-.58.22-.46.55-.85.94-1.18.19-.16.43-.12.57.05.14.17.13.42-.05.57-.3.25-.52.56-.72.89-.09.15-.21.24-.36.25Z"/>
      <path class="cls-7" d="M13.12,10.09c-.48,0-.88-.37-.89-.82,0-.18.06-.31.23-.33.17-.02.28.07.31.25.03.21.14.36.36.35.2,0,.32-.14.33-.35.01-.17.12-.27.28-.26.17.01.26.13.26.31,0,.46-.4.85-.89.85Z"/>
      <path class="cls-7" d="M14.77,7.68c.28,0,.55.26.55.55,0,.3-.26.57-.56.57-.29,0-.55-.26-.55-.55,0-.3.26-.57.56-.57Z"/>
      <path class="cls-7" d="M11.35,8.8c-.29,0-.55-.24-.57-.53-.01-.3.24-.57.54-.58.29,0,.57.27.57.56,0,.29-.26.55-.55.55Z"/>
      <path class="cls-33" d="M15.25,9.07c.24,0,.46.21.47.45,0,.26-.2.5-.44.51-.27.01-.51-.21-.52-.47,0-.26.22-.49.5-.49Z"/>
      <path class="cls-27" d="M10.92,10.03c-.23,0-.45-.23-.46-.47,0-.28.21-.5.49-.49.25,0,.47.24.46.49,0,.22-.27.47-.49.47Z"/>
      <path class="cls-8" d="M12.1,5.42c-.22,0-.41-.18-.41-.4,0-.25.15-.41.39-.41.23,0,.42.17.42.39,0,.23-.17.41-.4.42Z"/>
      <path class="cls-40" d="M2.74,7.68c-.21,0-.39-.17-.39-.39,0-.22.18-.42.39-.42.21,0,.41.2.41.41,0,.22-.19.4-.41.4Z"/>
      <path class="cls-10" d="M31.99,7.14c0,.23-.17.42-.39.42-.2,0-.41-.21-.41-.41,0-.2.18-.38.39-.39.25,0,.41.14.41.38Z"/>
      <path class="cls-5" d="M2.09,3.99c-.02.18-.19.32-.37.3-.17-.02-.34-.21-.31-.37.03-.2.17-.32.37-.32.19,0,.33.19.32.39Z"/>
      <path class="cls-15" d="M7.14,19.76c0-.29.13-.43.37-.48.24-.05.38.1.43.3.07.24.09.49.15.73.12.51.36.96.63,1.41.13.22.09.46-.1.59-.19.13-.43.09-.58-.14-.44-.63-.71-1.33-.84-2.08-.02-.12-.04-.25-.05-.34Z"/>
      <path class="cls-23" d="M16.42,21.62c.24,0,.48,0,.72,0,.24,0,.32.11.3.33-.05.53-.69.92-1.28.78-.43-.11-.74-.43-.77-.79-.02-.21.06-.32.28-.32.25,0,.5,0,.75,0h0Z"/>
      <path class="cls-4" d="M18.4,21.69c-.35,0-.62-.27-.61-.61,0-.34.28-.59.63-.59.34,0,.62.28.62.61,0,.33-.29.59-.63.59Z"/>
      <path class="cls-6" d="M14.5,21.69c-.35,0-.62-.25-.62-.6,0-.34.27-.6.61-.6.35,0,.63.26.63.59,0,.33-.28.6-.62.6Z"/>
      <path class="cls-15" d="M14.22,22.5c0,.33-.22.53-.57.52-.31,0-.51-.24-.5-.56,0-.31.22-.51.56-.51.31,0,.52.23.52.55Z"/>
      <path class="cls-15" d="M19.24,21.95c.29,0,.56.25.56.53,0,.29-.27.55-.58.54-.29,0-.55-.27-.55-.54,0-.27.27-.53.56-.53Z"/>
      <path class="cls-15" d="M7.35,19c-.23,0-.43-.18-.43-.38,0-.2.2-.38.44-.37.22,0,.41.17.42.37,0,.2-.19.39-.42.39Z"/>
      <path class="cls-8" d="M16.27,12.51c0,.1-.05.18-.12.25-.2.18-.38.37-.53.6-.13.19-.31.22-.49.1-.18-.12-.19-.29-.08-.47.17-.28.39-.53.65-.74.13-.1.28-.12.43-.04.11.06.15.17.14.3Z"/>
      <path class="cls-22" d="M19.04,14.09c0,.23-.21.41-.45.4-.22-.01-.4-.21-.39-.42,0-.23.21-.4.45-.39.22,0,.4.2.39.42Z"/>
      <path class="cls-1" d="M16.63,14.09c0,.23-.2.41-.44.4-.22,0-.4-.2-.4-.41,0-.23.2-.41.44-.4.22,0,.4.19.4.41Z"/>
      <path class="cls-28" d="M16.71,11.48c.23,0,.41.19.4.41,0,.22-.2.4-.42.4-.22,0-.39-.18-.39-.42,0-.25.17-.4.41-.39Z"/>
      <path class="cls-20" d="M17.39,15.18c-.24,0-.52-.32-.49-.55.01-.08.05-.14.13-.14.07,0,.13.04.13.1.02.17.1.3.28.3.17,0,.26-.12.28-.29,0-.07.07-.13.16-.11.09.02.12.1.12.19,0,.28-.28.51-.61.5Z"/>
      <path class="cls-38" d="M16.2,14.97c0,.27-.15.44-.33.43-.17,0-.37-.2-.36-.37.02-.21.15-.32.35-.32.22,0,.32.12.34.27Z"/>
      <path class="cls-27" d="M18.96,14.71c.16,0,.36.19.35.34,0,.17-.21.37-.38.35-.19-.02-.29-.15-.31-.32-.03-.21.14-.37.33-.37Z"/>
      <path class="cls-18" d="M20.82,10.96c-.33.01-.6-.09-.73-.42-.06-.15-.14-.35.07-.44.23-.11.27.11.33.26.02.13.12.17.24.16.13,0,.2-.08.22-.19.03-.17.1-.31.3-.23.19.07.15.24.1.39-.08.26-.28.4-.53.47Z"/>
      <path class="cls-4" d="M22.18,9.06c.26,0,.49.2.5.46,0,.28-.22.52-.5.51-.25,0-.48-.22-.49-.47,0-.27.21-.49.49-.5Z"/>
      <path class="cls-19" d="M22.6,11.11c-.26,0-.43-.16-.43-.43,0-.22.19-.38.46-.38.2,0,.38.18.38.39,0,.24-.16.41-.42.41Z"/>
      <path class="cls-26" d="M16.42,22.61c-.19-.03-.47.02-.48-.22,0-.24.27-.23.46-.23.2,0,.49-.02.5.22,0,.26-.3.2-.48.23Z"/>
    </g>
  </g>
</svg>